0
SECTION
2
HEADER
9
$INSUNITS
70
4
9
$ACADVER
1
AC1014
9
$HANDSEED
5
FFFF
0
ENDSEC
0
SECTION
2
TABLES
0
TABLE
2
VPORT
5
8
100
AcDbSymbolTable
0
ENDTAB
0
TABLE
2
LTYPE
5
5
100
AcDbSymbolTable
0
LTYPE
5
14
100
AcDbSymbolTableRecord
100
AcDbLinetypeTableRecord
2
BYBLOCK
70
0
0
LTYPE
5
15
100
AcDbSymbolTableRecord
100
AcDbLinetypeTableRecord
2
BYLAYER
70
0
0
ENDTAB
0
TABLE
2
LAYER
5
2
100
AcDbSymbolTable
70
2
0
LAYER
5
50
100
AcDbSymbolTableRecord
100
AcDbLayerTableRecord
2
0
70
0
6
CONTINUOUS
0
ENDTAB
0
TABLE
2
STYLE
5
3
100
AcDbSymbolTable
70
1
0
STYLE
5
11
100
AcDbSymbolTableRecord
100
AcDbTextStyleTableRecord
2
STANDARD
70
0
0
ENDTAB
0
TABLE
2
VIEW
5
6
100
AcDbSymbolTable
70
0
0
ENDTAB
0
TABLE
2
UCS
5
7
100
AcDbSymbolTable
70
0
0
ENDTAB
0
TABLE
2
APPID
5
9
100
AcDbSymbolTable
70
2
0
APPID
5
12
100
AcDbSymbolTableRecord
100
AcDbRegAppTableRecord
2
ACAD
70
0
0
ENDTAB
0
TABLE
2
DIMSTYLE
5
A
100
AcDbSymbolTable
70
1
0
ENDTAB
0
TABLE
2
BLOCK_RECORD
5
1
100
AcDbSymbolTable
70
1
0
BLOCK_RECORD
5
1F
100
AcDbSymbolTableRecord
100
AcDbBlockTableRecord
2
*MODEL_SPACE
0
BLOCK_RECORD
5
1B
100
AcDbSymbolTableRecord
100
AcDbBlockTableRecord
2
*PAPER_SPACE
0
ENDTAB
0
ENDSEC
0
SECTION
2
BLOCKS
0
BLOCK
5
20
100
AcDbEntity
100
AcDbBlockBegin
2
*MODEL_SPACE
0
ENDBLK
5
21
100
AcDbEntity
100
AcDbBlockEnd
0
BLOCK
5
1C
100
AcDbEntity
100
AcDbBlockBegin
2
*PAPER_SPACE
0
ENDBLK
5
1D
100
AcDbEntity
100
AcDbBlockEnd
0
ENDSEC
0
SECTION
2
ENTITIES
0
LWPOLYLINE
5
100
100
AcDbEntity
8
0
100
AcDbPolyline
90
8
70
1
43
0.0
10
78.437489774877363
20
-47.067382176673867
42
0.41421356237310542
10
77.937489775249063
20
-46.567382176302175
10
64.937489775249048
20
-46.567382166637898
42
0.41421356237311063
10
64.437489774877349
20
-47.067382166266185
10
64.437489765213058
20
-60.067382166266228
42
0.41421356237309503
10
64.937489764841331
20
-60.567382166637927
10
77.937489764841359
20
-60.567382176302218
42
0.4142135623730846
10
78.43748976521303
20
-60.067382176673917
0
LWPOLYLINE
5
101
100
AcDbEntity
8
0
100
AcDbPolyline
90
8
70
1
43
0.0
10
220.81248977878957
20
-41.804882282516608
10
207.81248977878963
20
-41.804882272852325
42
0.41421356237308982
10
207.3124897784179
20
-42.304882272480604
10
207.31248976875355
20
-55.304882272480647
42
0.41421356237300139
10
207.81248976838185
20
-55.804882272852296
10
220.81248976838185
20
-55.804882282516644
42
0.4142135623730534
10
221.31248976875358
20
-55.304882282888357
10
221.31248977841793
20
-42.304882282888286
42
0.41421356237310025
0
LWPOLYLINE
5
102
100
AcDbEntity
8
0
100
AcDbPolyline
90
8
70
1
43
0.0
10
83.487489760715391
20
-66.117382180428109
10
83.487489751051072
20
-79.117382180428123
42
0.41421356237313145
10
83.987489750679444
20
-79.617382180799851
10
96.98748975067943
20
-79.617382190464127
42
0.41421356237308982
10
97.487489751051157
20
-79.117382190835812
10
97.48748976071542
20
-66.117382190835826
42
0.41421356237311063
10
96.987489761087147
20
-65.617382190464099
10
83.98748976108709
20
-65.617382180799851
42
0.41421356237308982
0
LWPOLYLINE
5
103
100
AcDbEntity
8
0
100
AcDbPolyline
90
8
70
1
43
0.0
10
269.7249897967057
20
-17.704882318878585
10
282.7249897967057
20
-17.704882328542876
42
0.41421356237301177
10
283.22498979707734
20
-17.204882328914554
10
283.22498980674175
20
-4.2048823289145245
42
0.41421356237313567
10
282.7249898071135
20
-3.7048823285428711
10
269.72498980711345
20
-3.7048823188785458
42
0.41421356237312396
10
269.22498980674169
20
-4.2048823185068462
10
269.22498979707734
20
-17.204882318506886
42
0.4142135623730443
0
LWPOLYLINE
5
104
100
AcDbEntity
8
0
100
AcDbPolyline
90
8
70
1
43
0.0
10
174.47498980711342
20
-3.7048822480689307
42
0.41421356237312851
10
173.97498980674172
20
-4.2048822476972392
10
173.97498979707737
20
-17.20488224769727
42
0.41421356237322249
10
174.4749897967057
20
-17.704882248068898
10
187.47498979670567
20
-17.704882257733232
42
0.41421356237306384
10
187.97498979707737
20
-17.204882258104959
10
187.97498980674169
20
-4.2048822581049077
42
0.41421356237311618
10
187.47498980711339
20
-3.7048822577332552
0
LWPOLYLINE
5
105
100
AcDbEntity
8
0
100
AcDbPolyline
90
8
70
1
43
0.0
10
193.52498980711346
20
-3.7048822622308819
42
0.4142135623731773
10
193.02498980674173
20
-4.2048822618591668
10
193.02498979707738
20
-17.204882261859186
42
0.4142135623732251
10
193.52498979670571
20
-17.704882262230825
10
206.52498979670571
20
-17.704882271895169
42
0.41421356237315748
10
207.02498979707741
20
-17.204882272266882
10
207.02498980674164
20
-4.2048822722668326
42
0.41421356237304496
10
206.52498980711343
20
-3.7048822718951757
0
LWPOLYLINE
5
106
100
AcDbEntity
8
0
100
AcDbPolyline
90
8
70
1
43
0.0
10
64.93748980711338
20
-3.7048821666378808
42
0.41421356237310053
10
64.437489806741695
20
-4.2048821662661773
10
64.437489797077376
20
-17.20488216626617
42
0.41421356237308721
10
64.937489796705648
20
-17.704882166637887
10
77.937489796705663
20
-17.704882176302188
42
0.41421356237308332
10
78.437489797077376
20
-17.204882176673912
10
78.437489806741667
20
-4.2048821766738858
42
0.414213562373069
10
77.937489807113366
20
-3.7048821763021782
0
LWPOLYLINE
5
107
100
AcDbEntity
8
0
100
AcDbPolyline
90
8
70
1
43
0.0
10
54.624989768753522
20
-55.304882158971509
10
54.624989778417834
20
-42.304882158971495
42
0.41421356237308982
10
54.124989778789541
20
-41.804882158599803
10
41.124989778789526
20
-41.804882148935462
42
0.41421356237310025
10
40.624989778417834
20
-42.304882148563756
10
40.62498976875353
20
-55.304882148563777
42
0.41421356237306384
10
41.124989768381759
20
-55.804882148935491
10
54.12498976838183
20
-55.804882158599796
42
0.41421356237310542
0
LWPOLYLINE
5
108
100
AcDbEntity
8
0
100
AcDbPolyline
90
8
70
1
43
0.0
10
164.16248977841786
20
-42.30488224040252
42
0.41421356237318868
10
163.66248977878956
20
-41.804882240030913
10
150.66248977878956
20
-41.804882230366545
42
0.41421356237306384
10
150.16248977841784
20
-42.304882229994817
10
150.16248976875352
20
-55.304882229994867
42
0.41421356237312623
10
150.66248976838185
20
-55.804882230366573
10
163.66248976838182
20
-55.804882240030878
42
0.41421356237317308
10
164.16248976875366
20
-55.304882240402563
0
LWPOLYLINE
5
109
100
AcDbEntity
8
0
100
AcDbPolyline
90
8
70
1
43
0.0
10
192.41348974636708
20
-84.642382261006915
10
210.01348974636699
20
-84.642382274054455
42
0.41421356237304302
10
211.21348974725649
20
-83.44238227494408
10
211.21348974770129
20
-82.842382274944043
42
0.41421356237311241
10
210.01348974859084
20
-81.64238227405437
10
192.41348974859091
20
-81.642382261006816
42
0.41421356237303436
10
191.2134897477014
20
-82.842382260117233
10
191.21348974725657
20
-83.442382260117284
42
0.41421356237312101
0
LWPOLYLINE
5
110
100
AcDbEntity
8
0
100
AcDbPolyline
90
8
70
1
43
0.0
10
40.624989806741674
20
-4.2048821485637733
10
40.624989797077369
20
-17.204882148563769
42
0.41421356237308204
10
41.124989796705684
20
-17.704882148935486
10
54.124989796705663
20
-17.704882158599798
42
0.41421356237309892
10
54.624989797077383
20
-17.204882158971493
10
54.624989806741681
20
-4.2048821589714791
42
0.414213562373069
10
54.124989807113408
20
-3.7048821585997738
10
41.124989807113366
20
-3.7048821489354671
42
0.41421356237311679
0
LWPOLYLINE
5
111
100
AcDbEntity
8
0
100
AcDbPolyline
90
8
70
1
43
0.0
10
144.61248976838186
20
-55.804882225868937
42
0.41421356237311585
10
145.11248976875356
20
-55.30488222624065
10
145.11248977841782
20
-42.304882226240615
42
0.41421356237312623
10
144.61248977878955
20
-41.804882225868923
10
131.61248977878958
20
-41.804882216204604
42
0.41421356237306384
10
131.11248977841782
20
-42.304882215832905
10
131.11248976875356
20
-55.304882215832912
42
0.41421356237314183
10
131.61248976838183
20
-55.804882216204632
0
LWPOLYLINE
5
112
100
AcDbEntity
8
0
100
AcDbPolyline
90
8
70
1
43
0.0
10
336.39998975422003
20
-74.85488236844526
10
349.39998975421997
20
-74.854882378109593
42
0.41421356237324591
10
349.89998975459167
20
-74.354882378481335
10
349.89998976425591
20
-61.354882378481356
42
0.41421356237304818
10
349.39998976462766
20
-60.854882378109572
10
336.39998976462772
20
-60.854882368445267
42
0.41421356237325629
10
335.89998976425585
20
-61.354882368073618
10
335.89998975459162
20
-74.354882368073561
42
0.41421356237297013
0
LWPOLYLINE
5
113
100
AcDbEntity
8
0
100
AcDbPolyline
90
8
70
1
43
0.0
10
287.48748978254366
20
-36.754882332083341
42
0.41421356237309503
10
287.98748978291547
20
-36.254882332455054
10
287.98748979257982
20
-23.254882332455008
42
0.41421356237305079
10
287.48748979295152
20
-22.754882332083334
10
274.48748979295152
20
-22.754882322419046
42
0.41421356237303258
10
273.98748979257977
20
-23.254882322047333
10
273.98748978291553
20
-36.254882322047379
42
0.41421356237325629
10
274.48748978254389
20
-36.754882322419036
0
LWPOLYLINE
5
114
100
AcDbEntity
8
0
100
AcDbPolyline
90
8
70
1
43
0.0
10
293.03748978291549
20
-36.254882336209299
42
0.41421356237314183
10
293.53748978254384
20
-36.754882336580977
10
306.53748978254373
20
-36.754882346245296
42
0.41421356237308721
10
307.03748978291549
20
-36.254882346616981
10
307.03748979257978
20
-23.254882346616938
42
0.4142135623732251
10
306.53748979295153
20
-22.754882346245303
10
293.53748979295153
20
-22.754882336580987
42
0.41421356237314444
10
293.03748979257978
20
-23.254882336209253
0
LWPOLYLINE
5
115
100
AcDbEntity
8
0
100
AcDbPolyline
90
8
70
1
43
0.0
10
35.074989778789551
20
-41.804882144437855
10
22.074989778789554
20
-41.80488213477355
42
0.41421356237311846
10
21.574989778417844
20
-42.304882134401851
10
21.574989768753529
20
-55.304882134401851
42
0.41421356237310025
10
22.074989768381791
20
-55.804882134773557
10
35.074989768381826
20
-55.804882144437862
42
0.41421356237307683
10
35.574989768753532
20
-55.304882144809604
10
35.57498977841783
20
-42.304882144809568
42
0.41421356237309243
0
LWPOLYLINE
5
116
100
AcDbEntity
8
0
100
AcDbPolyline
90
8
70
1
43
0.0
10
142.41348974859096
20
-81.642382223939819
42
0.41421356237307339
10
141.21348974770137
20
-82.842382223050194
10
141.21348974725652
20
-83.442382223050217
42
0.41421356237308204
10
142.41348974636688
20
-84.642382223939862
10
160.01348974636699
20
-84.642382236987444
42
0.41421356237309503
10
161.21348974725652
20
-83.442382237877041
10
161.21348974770129
20
-82.842382237877018
42
0.4142135623731254
10
160.01348974859093
20
-81.642382236987444
0
LWPOLYLINE
5
117
100
AcDbEntity
8
0
100
AcDbPolyline
90
8
70
1
43
0.0
10
239.86248977878961
20
-41.804882296678549
10
226.86248977878964
20
-41.804882287014237
42
0.41421356237299617
10
226.36248977841788
20
-42.304882286642531
10
226.36248976875362
20
-55.304882286642574
42
0.41421356237297535
10
226.86248976838186
20
-55.804882287014209
10
239.86248976838183
20
-55.804882296678564
42
0.41421356237300661
10
240.36248976875359
20
-55.304882297050248
10
240.36248977841791
20
-42.304882297050206
42
0.4142135623731783
0
LWPOLYLINE
5
118
100
AcDbEntity
8
0
100
AcDbPolyline
90
8
70
1
43
0.0
10
342.75623977841781
20
-42.304882373170607
42
0.41421356237293894
10
342.25623977878939
20
-41.804882372798922
10
329.25623977878962
20
-41.804882363134588
42
0.41421356237300661
10
328.75623977841781
20
-42.304882362762868
10
328.75623976875352
20
-55.304882362762839
42
0.41421356237321988
10
329.25623976838187
20
-55.804882363134652
10
342.25623976838176
20
-55.804882372798815
42
0.41421356237335516
10
342.75623976875363
20
-55.304882373170585
0
LWPOLYLINE
5
119
100
AcDbEntity
8
0
100
AcDbPolyline
90
8
70
1
43
0.0
10
278.46248977841788
20
-42.304882325374045
42
0.41421356237312623
10
277.96248977878963
20
-41.80488232500241
10
264.96248977878969
20
-41.804882315338077
42
0.41421356237304818
10
264.46248977841788
20
-42.304882314966356
10
264.46248976875358
20
-55.30488231496642
42
0.41421356237309503
10
264.96248976838189
20
-55.804882315338062
10
277.96248976838183
20
-55.804882325002382
42
0.4142135623730846
10
278.46248976875364
20
-55.304882325374116
0
LWPOLYLINE
5
120
100
AcDbEntity
8
0
100
AcDbPolyline
90
8
70
1
43
0.0
10
161.21248981229084
20
4.2826177621238042
10
161.21248981273553
20
4.8826177621238021
42
0.4142135623730715
10
160.01248981362517
20
6.0826177630134222
10
142.41248981362511
20
6.0826177760610154
42
0.41421356237309975
10
141.2124898127355
20
4.8826177769506209
10
141.2124898122907
20
4.2826177769506284
42
0.41421356237309853
10
142.41248981140109
20
3.0826177760610207
10
160.0124898114012
20
3.0826177630134159
42
0.41421356237308082
0
LWPOLYLINE
5
121
100
AcDbEntity
8
0
100
AcDbPolyline
90
8
70
1
43
0.0
10
173.68748979257973
20
-23.254882247483472
42
0.41421356237302481
10
173.18748979295154
20
-22.754882247111826
10
160.18748979295142
20
-22.754882237447511
42
0.41421356237307161
10
159.68748979257975
20
-23.25488223707579
10
159.68748978291546
20
-36.254882237075854
42
0.41421356237307161
10
160.18748978254382
20
-36.754882237447561
10
173.18748978254376
20
-36.754882247111816
42
0.41421356237311324
10
173.68748978291546
20
-36.254882247483529
0
LWPOLYLINE
5
122
100
AcDbEntity
8
0
100
AcDbPolyline
90
8
70
1
43
0.0
10
249.88748979257974
20
-23.254882304131151
42
0.41421356237304563
10
249.38748979295153
20
-22.754882303759519
10
236.38748979295147
20
-22.754882294095204
42
0.41421356237302998
10
235.88748979257971
20
-23.254882293723487
10
235.8874897829154
20
-36.25488229372354
42
0.41421356237322249
10
236.38748978254384
20
-36.754882294095189
10
249.38748978254367
20
-36.754882303759508
42
0.41421356237311846
10
249.88748978291542
20
-36.254882304131215
0
LWPOLYLINE
5
123
100
AcDbEntity
8
0
100
AcDbPolyline
90
8
70
1
43
0.0
10
16.524989768753517
20
-55.304882130647641
10
16.524989778417837
20
-42.304882130647613
42
0.41421356237310802
10
16.024989778789525
20
-41.804882130275907
10
3.0249897787895441
20
-41.80488212061163
42
0.41421356237310053
10
2.5249897784178281
20
-42.304882120239931
10
2.5249897687535294
20
-55.304882120239938
42
0.4142135623730534
10
3.0249897683817717
20
-55.804882120611637
10
16.024989768381825
20
-55.804882130275928
42
0.41421356237309243
0
LWPOLYLINE
5
124
100
AcDbEntity
8
0
100
AcDbPolyline
90
8
70
1
43
0.0
10
135.58748979257979
20
-23.254882219159651
42
0.41421356237312884
10
135.08748979295146
20
-22.754882218787962
10
122.08748979295144
20
-22.754882209123657
42
0.41421356237302998
10
121.58748979257977
20
-23.254882208751958
10
121.58748978291548
20
-36.254882208751972
42
0.41421356237311846
10
122.08748978254377
20
-36.754882209123664
10
135.08748978254377
20
-36.754882218787969
42
0.41421356237313406
10
135.58748978291547
20
-36.254882219159683
0
CIRCLE
5
125
100
AcDbEntity
8
0
100
AcDbCircle
10
176.2124898125131
20
4.5826177510036974
30
0
40
1.1250000000000071
210
0
220
0
230
1
0
LWPOLYLINE
5
126
100
AcDbEntity
8
0
100
AcDbPolyline
90
8
70
1
43
0.0
10
340.29098974859107
20
-81.642382370634436
42
0.41421356237316442
10
339.09098974770137
20
-82.842382369744811
10
339.09098974725674
20
-83.44238236974482
42
0.41421356237316009
10
340.29098974636713
20
-84.642382370634394
10
347.8909897463671
20
-84.642382376268586
42
0.41421356237306473
10
349.09098974725657
20
-83.442382377158268
10
349.09098974770131
20
-82.842382377158231
42
0.41421356237301271
10
347.89098974859115
20
-81.6423823762685
0
LWPOLYLINE
5
127
100
AcDbEntity
8
0
100
AcDbPolyline
90
8
70
1
43
0.0
10
121.29998976425594
20
-61.354882208538228
42
0.4142135623730846
10
120.79998976462767
20
-60.854882208166536
10
107.79998976462765
20
-60.854882198502224
42
0.41421356237309503
10
107.29998976425593
20
-61.354882198130547
10
107.29998975459161
20
-74.354882198130554
42
0.41421356237310025
10
107.79998975421989
20
-74.854882198502267
10
120.79998975421989
20
-74.854882208166572
42
0.41421356237301699
10
121.29998975459162
20
-74.354882208538271
0
LWPOLYLINE
5
128
100
AcDbEntity
8
0
100
AcDbPolyline
90
8
70
1
43
0.0
10
169.7124897787896
20
-41.804882244528457
42
0.41421356237296497
10
169.21248977841785
20
-42.304882244156772
10
169.21248976875353
20
-55.304882244156815
42
0.41421356237314183
10
169.71248976838186
20
-55.8048822445285
10
182.71248976838191
20
-55.804882254192798
42
0.4142135623730534
10
183.2124897687537
20
-55.304882254564511
10
183.2124897784179
20
-42.304882254564461
42
0.4142135623732251
10
182.71248977878955
20
-41.804882254192783
0
LWPOLYLINE
5
129
100
AcDbEntity
8
0
100
AcDbPolyline
90
8
70
1
43
0.0
10
112.61248980674173
20
-4.2048822020798564
42
0.41421356237302903
10
112.11248980711341
20
-3.704882201708136
10
111.11248980711341
20
-3.7048822009647542
42
0.41421356237309503
10
110.61248980674172
20
-4.2048822005930404
10
110.61248979707742
20
-17.204882200593048
42
0.41421356237305601
10
111.11248979670566
20
-17.704882200964782
10
112.11248979670572
20
-17.704882201708159
42
0.41421356237313406
10
112.61248979707744
20
-17.204882202079876
0
CIRCLE
5
130
100
AcDbEntity
8
0
100
AcDbCircle
10
176.213489747479
20
-83.142382248997123
30
-1.1102230246251563e-15
40
1.1250000000000071
210
0
220
0
230
1
0
LWPOLYLINE
5
131
100
AcDbEntity
8
0
100
AcDbPolyline
90
16
70
1
43
0.0
10
35.074989754219892
20
-74.85488214443788
42
0.41421356237308204
10
35.574989754591606
20
-74.354882144809579
10
35.574989765742728
20
-59.354882144809586
42
0.41421356237309764
10
35.074989766114435
20
-58.854882144437894
10
27.487989766114449
20
-58.854882138797642
42
0.41421356237309503
10
26.987989765742725
20
-59.354882138425928
10
26.98798976499933
20
-60.354882138425964
42
-0.41421356237310802
10
26.487989764627589
20
-60.854882138054222
10
11.611989764627605
20
-60.854882126995314
42
-0.41421356237308593
10
11.111989764999318
20
-60.354882126623622
10
11.111989765742718
20
-59.354882126623572
42
0.41421356237307422
10
10.611989766114423
20
-58.854882126251894
10
3.0249897661144387
20
-58.854882120611656
42
0.41421356237309437
10
2.5249897657427289
20
-59.354882120239942
10
2.5249897545916138
20
-74.354882120239949
42
0.41421356237311163
10
3.02498975421992
20
-74.854882120611677
0
LWPOLYLINE
5
132
100
AcDbEntity
8
0
100
AcDbPolyline
90
8
70
1
43
0.0
10
250.17498980674168
20
-4.2048823043449257
10
250.17498979707739
20
-17.204882304344956
42
0.41421356237307555
10
250.67498979670574
20
-17.704882304716662
10
263.67498979670574
20
-17.704882314380932
42
0.41421356237305862
10
264.17498979707744
20
-17.204882314752634
10
264.17498980674173
20
-4.2048823147526004
42
0.41421356237313567
10
263.67498980711343
20
-3.7048823143809488
10
250.67498980711343
20
-3.7048823047166293
42
0.41421356237318413
0
LWPOLYLINE
5
133
100
AcDbEntity
8
0
100
AcDbPolyline
90
8
70
1
43
0.0
10
212.07498979707736
20
-17.204882276021113
42
0.41421356237305473
10
212.57498979670572
20
-17.70488227639283
10
225.57498979670569
20
-17.704882286057092
42
0.41421356237312623
10
226.07498979707739
20
-17.204882286428788
10
226.07498980674168
20
-4.2048822864287541
42
0.41421356237311679
10
225.57498980711344
20
-3.7048822860571007
10
212.57498980711344
20
-3.7048822763927958
42
0.4142135623731848
10
212.07498980674163
20
-4.2048822760210935
0
LWPOLYLINE
5
134
100
AcDbEntity
8
0
100
AcDbPolyline
90
8
70
1
43
0.0
10
303.06248977878965
20
-41.804882343661944
42
0.4142135623730534
10
302.5624897784179
20
-42.304882343290231
10
302.56248976875361
20
-55.304882343290281
42
0.41421356237307422
10
303.06248976838179
20
-55.804882343661937
10
316.06248976838179
20
-55.804882353326242
42
0.41421356237305862
10
316.56248976875372
20
-55.304882353697948
10
316.5624897784179
20
-42.304882353697906
42
0.41421356237315748
10
316.06248977878954
20
-41.804882353326285
0
LWPOLYLINE
5
135
100
AcDbEntity
8
0
100
AcDbPolyline
90
8
70
1
43
0.0
10
268.93748978291541
20
-36.254882318293141
10
268.93748979257975
20
-23.254882318293085
42
0.41421356237301959
10
268.43748979295157
20
-22.754882317921414
10
255.43748979295148
20
-22.754882308257084
42
0.41421356237305601
10
254.93748979257973
20
-23.25488230788541
10
254.93748978291541
20
-36.254882307885467
42
0.41421356237320689
10
255.43748978254385
20
-36.754882308257109
10
268.43748978254371
20
-36.754882317921435
42
0.41421356237306123
0
LWPOLYLINE
5
136
100
AcDbEntity
8
0
100
AcDbPolyline
90
32
70
1
43
0.0
10
114.99373978477401
20
-33.754882203612382
42
-0.41421356237307422
10
115.49373978514566
20
-33.254882203984089
10
117.99373978445544
20
-33.254882205842613
42
0.41421356237307161
10
118.49373978482717
20
-32.754882206214326
10
118.4937397892876
20
-26.754882206214305
42
0.41421356237310542
10
117.9937397896593
20
-26.254882205842588
10
115.49373979034957
20
-26.254882203984064
42
-0.41421356237308721
10
114.99373979072126
20
-25.754882203612404
10
114.99373979257976
20
-23.254882203850112
42
0.41421356237314705
10
114.49373979295149
20
-22.754882203478417
10
113.49373979295144
20
-22.754882202735004
42
0.41421356237312623
10
112.99373979257977
20
-23.254882202363291
10
112.99373979072128
20
-25.754882202125572
42
-0.41421356237308721
10
112.49373979034957
20
-26.254882201753897
10
109.89373979034957
20
-26.254882199821004
42
-0.41421356237309243
10
109.3937397907213
20
-25.754882199449334
10
109.39373979257977
20
-23.254882199687014
42
0.41421356237307422
10
108.89373979295145
20
-22.754882199315297
10
95.89373979295145
20
-22.75488218965101
42
0.41421356237302998
10
95.393739792579765
20
-23.254882189279307
10
95.393739782915446
20
-36.254882189279314
42
0.41421356237312101
10
95.893739782543719
20
-36.754882189651035
10
108.89373978254378
20
-36.754882199315318
42
0.41421356237310281
10
109.39373978291549
20
-36.254882199687032
10
109.39373978477394
20
-33.754882199449298
42
-0.41421356237307944
10
109.89373978514564
20
-33.254882199820997
10
112.49373978514572
20
-33.25488220175388
42
-0.41421356237306639
10
112.99373978477398
20
-33.754882202125557
10
112.99373978291548
20
-36.254882202363298
42
0.41421356237310542
10
113.49373978254377
20
-36.754882202734997
10
114.49373978254378
20
-36.75488220347841
42
0.41421356237310025
10
114.9937397829155
20
-36.25488220385013
0
CIRCLE
5
137
100
AcDbEntity
8
0
100
AcDbCircle
10
20.956239812513129
20
4.5826178661014723
30
0
40
1.1250000000000029
210
0
220
0
230
1
0
LWPOLYLINE
5
138
100
AcDbEntity
8
0
100
AcDbPolyline
90
8
70
1
43
0.0
10
135.87498979707738
20
-17.204882219373385
42
0.41421356237308204
10
136.37498979670573
20
-17.704882219745119
10
149.37498979670568
20
-17.704882229409403
42
0.41421356237307033
10
149.8749897970774
20
-17.204882229781123
10
149.8749898067417
20
-4.204882229781095
42
0.41421356237312951
10
149.37498980711339
20
-3.7048822294093915
10
136.37498980711339
20
-3.7048822197450808
42
0.41421356237309598
10
135.8749898067417
20
-4.2048822193733866
0
CIRCLE
5
139
100
AcDbEntity
8
0
100
AcDbCircle
10
20.956239747479017
20
-83.142382133898721
30
0
40
1.1249999999999942
210
0
220
0
230
1
0
LWPOLYLINE
5
140
100
AcDbEntity
8
0
100
AcDbPolyline
90
8
70
1
43
0.0
10
245.91248977878962
20
-41.804882301176171
42
0.4142135623730534
10
245.41248977841789
20
-42.304882300804458
10
245.41248976875357
20
-55.304882300804522
42
0.41421356237298579
10
245.91248976838187
20
-55.804882301176207
10
258.91248976838187
20
-55.804882310840497
42
0.41421356237308982
10
259.41248976875363
20
-55.304882311212182
10
259.41248977841786
20
-42.30488231121214
42
0.4142135623731939
10
258.91248977878962
20
-41.804882310840476
0
LWPOLYLINE
5
141
100
AcDbEntity
8
0
100
AcDbPolyline
90
8
70
1
43
0.0
10
230.33748979295154
20
-22.75488228959755
10
217.33748979295143
20
-22.754882279933266
42
0.41421356237305601
10
216.83748979257979
20
-23.254882279561556
10
216.83748978291538
20
-36.254882279561613
42
0.4142135623732251
10
217.33748978254383
20
-36.75488227993327
10
230.33748978254374
20
-36.754882289597589
42
0.41421356237308721
10
230.83748978291541
20
-36.254882289969281
10
230.83748979257976
20
-23.254882289969242
42
0.41421356237307161
0
CIRCLE
5
142
100
AcDbEntity
8
0
100
AcDbCircle
10
331.46898974747893
20
-83.142382364094289
30
0
40
1.1249999999999716
210
0
220
0
230
1
0
LWPOLYLINE
5
143
100
AcDbEntity
8
0
100
AcDbPolyline
90
8
70
1
43
0.0
10
12.134114746367018
20
-84.642382127358559
42
0.41421356237312756
10
13.334114747256596
20
-83.442382128248127
10
13.334114747701447
20
-82.842382128248147
42
0.41421356237310264
10
12.134114748591022
20
-81.642382127358516
10
4.5341147485910271
20
-81.642382121724211
42
0.41421356237309886
10
3.3341147477014141
20
-82.842382120834642
10
3.3341147472566202
20
-83.442382120834665
42
0.41421356237312212
10
4.5341147463670701
20
-84.642382121724268
0
LWPOLYLINE
5
144
100
AcDbEntity
8
0
100
AcDbPolyline
90
8
70
1
43
0.0
10
58.887489761087117
20
-65.617382162140288
10
45.88748976108711
20
-65.617382152475997
42
0.41421356237310025
10
45.387489760715447
20
-66.117382152104298
10
45.387489751051142
20
-79.117382152104312
42
0.41421356237312101
10
45.887489750679464
20
-79.617382152475983
10
58.887489750679443
20
-79.617382162140274
42
0.41421356237307422
10
59.387489751051142
20
-79.117382162512001
10
59.387489760715432
20
-66.117382162511987
42
0.41421356237311585
0
LWPOLYLINE
5
145
100
AcDbEntity
8
0
100
AcDbPolyline
90
8
70
1
43
0.0
10
188.76248976838181
20
-55.804882258690398
10
201.76248976838181
20
-55.80488226835471
42
0.414213562373069
10
202.2624897687536
20
-55.304882268726402
10
202.26248977841792
20
-42.304882268726345
42
0.4142135623730846
10
201.76248977878956
20
-41.804882268354653
10
188.76248977878959
20
-41.804882258690398
42
0.41421356237304818
10
188.26248977841786
20
-42.304882258318671
10
188.26248976875354
20
-55.304882258318742
42
0.41421356237294416
0
LWPOLYLINE
5
146
100
AcDbEntity
8
0
100
AcDbPolyline
90
8
70
1
43
0.0
10
339.09098981273536
20
4.882617630255262
10
339.09098981229073
20
4.2826176302552437
42
0.41421356237310641
10
340.290989811401
20
3.0826176293656649
10
347.8909898114012
20
3.0826176237314362
42
0.41421356237308421
10
349.09098981229073
20
4.2826176228418378
10
349.09098981273542
20
4.8826176228418259
42
0.4142135623730705
10
347.89098981362486
20
6.0826176237314824
10
340.290989813625
20
6.0826176293656342
42
0.41421356237318097
0
LWPOLYLINE
5
147
100
AcDbEntity
8
0
100
AcDbPolyline
90
8
70
1
43
0.0
10
317.34998976462776
20
-60.854882354283404
42
0.41421356237310542
10
316.84998976425595
20
-61.354882353911712
10
316.84998975459166
20
-74.354882353911734
42
0.41421356237314183
10
317.34998975422002
20
-74.85488235428339
10
330.34998975422008
20
-74.854882363947709
42
0.41421356237325629
10
330.84998975459149
20
-74.354882364319366
10
330.84998976425595
20
-61.35488236431943
42
0.41421356237295975
10
330.34998976462782
20
-60.854882363947731
0
LWPOLYLINE
5
148
100
AcDbEntity
8
0
100
AcDbPolyline
90
8
70
1
43
0.0
10
68.437489787825569
20
-24.99288218418517
42
0.4142135623730947
10
64.437489787825569
20
-28.992882184185177
10
64.437489787825598
20
-35.279882173777452
42
0.41421356237309537
10
68.437489787825569
20
-39.279882173777452
10
74.437489787825584
20
-39.279882173777466
42
0.41421356237309798
10
78.437489787825569
20
-35.279882173777473
10
78.437489787825598
20
-28.992882184185174
42
0.41421356237309825
10
74.437489787825569
20
-24.992882184185152
0
LWPOLYLINE
5
149
100
AcDbEntity
8
0
100
AcDbPolyline
90
16
70
1
43
0.0
10
184.94323976499939
20
-60.354882255851152
10
184.94323976574279
20
-59.354882255851102
42
0.41421356237293372
10
184.44323976611446
20
-58.85488225547941
10
177.44323976611446
20
-58.854882250275608
42
0.41421356237313145
10
176.94323976574267
20
-59.354882249903881
10
176.9432397545917
20
-74.354882249903923
42
0.41421356237296497
10
177.44323975421989
20
-74.854882250275637
10
208.31923975422001
20
-74.854882273229052
42
0.41421356237318868
10
208.81923975459173
20
-74.354882273600737
10
208.81923976574279
20
-59.354882273600715
42
0.41421356237301699
10
208.31923976611446
20
-58.854882273228995
10
201.31923976611446
20
-58.854882268025165
42
0.41421356237312623
10
200.81923976574276
20
-59.354882267653473
10
200.81923976499934
20
-60.354882267653458
42
-0.41421356237313145
10
200.31923976462764
20
-60.854882267281774
10
185.44323976462755
20
-60.854882256222858
42
-0.41421356237306384
0
LWPOLYLINE
5
150
100
AcDbEntity
8
0
100
AcDbPolyline
90
8
70
1
43
0.0
10
22.074989807113383
20
-3.7048821347735461
42
0.41421356237308593
10
21.574989806741691
20
-4.2048821344018528
10
21.574989797077375
20
-17.204882134401846
42
0.41421356237310802
10
22.074989796705665
20
-17.704882134773548
10
35.07498979670568
20
-17.70488214443786
42
0.41421356237309243
10
35.574989797077386
20
-17.204882144809574
10
35.574989806741684
20
-4.2048821448095559
42
0.41421356237309342
10
35.074989807113383
20
-3.7048821444378515
0
LWPOLYLINE
5
151
100
AcDbEntity
8
0
100
AcDbPolyline
90
8
70
1
43
0.0
10
284.01248977878964
20
-41.804882329500003
42
0.41421356237299617
10
283.51248977841794
20
-42.304882329128297
10
283.5124897687536
20
-55.30488232912834
42
0.41421356237307944
10
284.01248976838178
20
-55.804882329499996
10
297.01248976838178
20
-55.804882339164323
42
0.4142135623730534
10
297.5124897687536
20
-55.304882339536036
10
297.51248977841789
20
-42.304882339535972
42
0.41421356237312623
10
297.01248977878959
20
-41.804882339164344
0
LWPOLYLINE
5
152
100
AcDbEntity
8
0
100
AcDbPolyline
90
8
70
1
43
0.0
10
141.13748979295144
20
-22.75488222328557
42
0.41421356237311063
10
140.63748979257974
20
-23.254882222913885
10
140.63748978291545
20
-36.254882222913885
42
0.41421356237314705
10
141.13748978254375
20
-36.754882223285577
10
154.13748978254375
20
-36.754882232949903
42
0.41421356237309243
10
154.63748978291545
20
-36.254882233321609
10
154.63748979257974
20
-23.254882233321595
42
0.41421356237307161
10
154.13748979295147
20
-22.754882232949882
0
LWPOLYLINE
5
153
100
AcDbEntity
8
0
100
AcDbPolyline
90
8
70
1
43
0.0
10
131.11248975459162
20
-74.354882215832959
42
0.41421356237307422
10
131.61248975421987
20
-74.854882216204686
10
144.61248975421989
20
-74.854882225868948
42
0.41421356237311063
10
145.11248975459162
20
-74.354882226240647
10
145.11248976425594
20
-61.354882226240619
42
0.41421356237310542
10
144.61248976462764
20
-60.854882225868927
10
131.61248976462764
20
-60.854882216204643
42
0.41421356237315227
10
131.11248976425594
20
-61.354882215832937
0
LWPOLYLINE
5
154
100
AcDbEntity
8
0
100
AcDbPolyline
90
8
70
1
43
0.0
10
116.82498980674171
20
-4.2048822052114758
10
116.82498979707742
20
-17.204882205211462
42
0.41421356237309115
10
117.32498979670568
20
-17.704882205583168
10
130.32498979670572
20
-17.704882215247469
42
0.41421356237309115
10
130.82498979707742
20
-17.20488221561919
10
130.82498980674168
20
-4.2048822156191754
42
0.41421356237313633
10
130.32498980711341
20
-3.7048822152474696
10
117.32498980711341
20
-3.7048822055831589
42
0.41421356237311258
0
CIRCLE
5
155
100
AcDbEntity
8
0
100
AcDbCircle
10
331.4689898125132
20
4.582617635905736
30
0
40
1.1250000000000429
210
0
220
0
230
1
0
LWPOLYLINE
5
156
100
AcDbEntity
8
0
100
AcDbPolyline
90
24
70
1
43
0.0
10
269.22498975645021
20
-71.854882315231364
42
0.41421356259075015
10
268.72498975645021
20
-71.354882314859651
10
261.81873975962475
20
-71.354882314859708
42
-0.41421356237304818
10
261.3187397596248
20
-70.85488231485968
10
261.3187397596248
20
-64.85488231485968
42
-0.41421356237310025
10
261.8187397596248
20
-64.35488231485968
10
268.72498976239751
20
-64.354882314859665
42
0.41421356215537225
10
269.22498976239757
20
-63.854882315231372
10
269.22498976425601
20
-61.354882318506881
42
-0.41421356237305862
10
269.72498976462771
20
-60.85488231887858
10
271.72498976462759
20
-60.854882320365384
42
0.41421356237308982
10
272.22498976499929
20
-60.354882320737069
10
272.22498976574275
20
-59.354882320737104
42
-0.41421356237315227
10
272.7249897661145
20
-58.854882321108803
10
279.72498976611456
20
-58.854882326312648
42
-0.41421356237300661
10
280.22498976574275
20
-59.354882326684333
10
280.22498976499935
20
-60.354882326684361
42
0.4142135623730846
10
280.72498976462759
20
-60.854882327056075
10
282.72498976462771
20
-60.854882328542885
42
-0.41421356237307422
10
283.22498976425601
20
-61.354882328914542
10
283.22498975459166
20
-74.35488232891457
42
-0.41421356237304818
10
282.72498975422002
20
-74.854882328542857
10
269.72498975422008
20
-74.85488231887858
42
-0.41421356237310542
10
269.22498975459166
20
-74.35488231850691
0
LWPOLYLINE
5
157
100
AcDbEntity
8
0
100
AcDbPolyline
90
8
70
1
43
0.0
10
288.77498980711329
20
-3.7048823330404792
42
0.41421356237318413
10
288.27498980674164
20
-4.2048823326687756
10
288.27498979707735
20
-17.204882332668813
42
0.4142135623730846
10
288.77498979670565
20
-17.704882333040523
10
301.77498979670565
20
-17.704882342704778
42
0.41421356237311197
10
302.27498979707735
20
-17.204882343076498
10
302.27498980674164
20
-4.2048823430764486
42
0.41421356237311713
10
301.7749898071134
20
-3.7048823427047961
0
LWPOLYLINE
5
158
100
AcDbEntity
8
0
100
AcDbPolyline
90
8
70
1
43
0.0
10
192.41248981362517
20
6.0826177389939851
42
0.41421356237310819
10
191.21248981273556
20
4.8826177398835924
10
191.21248981229084
20
4.2826177398835927
42
0.41421356237306389
10
192.41248981140117
20
3.0826177389939735
10
210.0124898114012
20
3.0826177259463847
42
0.41421356237308099
10
211.21248981229084
20
4.282617725056773
10
211.21248981273553
20
4.8826177250567691
42
0.41421356237310386
10
210.01248981362511
20
6.0826177259464238
0
LWPOLYLINE
5
159
100
AcDbEntity
8
0
100
AcDbPolyline
90
8
70
1
43
0.0
10
2.5249897829154486
20
-36.254882120239941
42
0.41421356237309698
10
3.0249897825437655
20
-36.754882120611633
10
16.024989782543752
20
-36.754882130275931
42
0.41421356237308332
10
16.524989782915455
20
-36.254882130647651
10
16.52498979257976
20
-23.254882130647623
42
0.41421356237309631
10
16.024989792951448
20
-22.754882130275927
10
3.024989792951458
20
-22.754882120611626
42
0.41421356237309959
10
2.5249897925797598
20
-23.25488212023992
0
LWPOLYLINE
5
160
100
AcDbEntity
8
0
100
AcDbPolyline
90
8
70
1
43
0.0
10
154.92498980674171
20
-4.2048822335353204
10
154.92498979707742
20
-17.204882233535304
42
0.41421356237310936
10
155.42498979670569
20
-17.704882233907032
10
168.42498979670566
20
-17.704882243571326
42
0.41421356237298967
10
168.92498979707742
20
-17.20488224394304
10
168.92498980674168
20
-4.2048822439429845
42
0.41421356237304757
10
168.42498980711341
20
-3.704882243571328
10
155.42498980711341
20
-3.704882233907012
42
0.41421356237309764
0
LWPOLYLINE
5
161
100
AcDbEntity
8
0
100
AcDbPolyline
90
8
70
1
43
0.0
10
4.5341148136251439
20
6.0826178782758644
42
0.41421356237310181
10
3.3341148127355291
20
4.882617879165446
10
3.3341148122907276
20
4.282617879165473
42
0.41421356237310064
10
4.5341148114011371
20
3.082617878275864
10
12.134114811401115
20
3.0826178726416726
42
0.41421356237309354
10
13.334114812290725
20
4.2826178717520635
10
13.334114812735542
20
4.8826178717520623
42
0.41421356237310142
10
12.134114813625128
20
6.0826178726416842
0
LWPOLYLINE
5
162
100
AcDbEntity
8
0
100
AcDbPolyline
90
16
70
1
43
0.0
10
165.92498976499937
20
-60.354882241712858
10
165.92498976574277
20
-59.354882241712801
42
0.41421356237297535
10
165.42498976611449
20
-58.854882241341144
10
158.42498976611446
20
-58.854882236137271
42
0.4142135623730846
10
157.92498976574274
20
-59.354882235765544
10
157.92498976499937
20
-60.354882235765572
42
-0.41421356237316787
10
157.42498976462758
20
-60.854882235393859
10
155.42498976462764
20
-60.854882233907055
42
0.41421356237311063
10
154.92498976425591
20
-61.354882233535349
10
154.92498975459159
20
-74.354882233535335
42
0.41421356237307422
10
155.42498975421987
20
-74.85488223390702
10
168.42498975421992
20
-74.854882243571367
42
0.41421356237318346
10
168.92498975459173
20
-74.354882243943067
10
168.924989764256
20
-61.354882243943024
42
0.41421356237309503
10
168.4249897646277
20
-60.854882243571389
10
166.42498976462764
20
-60.85488224208455
42
-0.41421356237311585
0
LWPOLYLINE
5
163
100
AcDbEntity
8
0
100
AcDbPolyline
90
8
70
1
43
0.0
10
327.03748980711345
20
-3.7048823614851583
10
326.03748980711339
20
-3.7048823607417192
42
0.41421356237331225
10
325.53748980674163
20
-4.2048823603700214
10
325.5374897970774
20
-17.204882360369986
42
0.4142135623730222
10
326.0374897967057
20
-17.704882360741681
10
327.03748979670587
20
-17.704882361485136
42
0.41421356237326284
10
327.53748979707734
20
-17.204882361856846
10
327.53748980674175
20
-4.2048823618568631
42
0.41421356237320395
0
LWPOLYLINE
5
164
100
AcDbEntity
8
0
100
AcDbPolyline
90
8
70
1
43
0.0
10
320.82498980711335
20
-3.7048823568667366
10
307.82498980711341
20
-3.7048823472024313
42
0.41421356237320461
10
307.32498980674166
20
-4.2048823468306917
10
307.32498979707736
20
-17.204882346830736
42
0.41421356237301571
10
307.82498979670572
20
-17.704882347202435
10
320.82498979670572
20
-17.704882356866744
42
0.41421356237320167
10
321.32498979707742
20
-17.204882357238414
10
321.32498980674166
20
-4.2048823572384419
42
0.41421356237320883
0
LWPOLYLINE
5
165
100
AcDbEntity
8
0
100
AcDbPolyline
90
8
70
1
43
0.0
10
35.074989782543746
20
-36.75488214443785
42
0.4142135623730846
10
35.574989782915452
20
-36.254882144809592
10
35.574989792579757
20
-23.25488214480956
42
0.41421356237308982
10
35.074989792951463
20
-22.754882144437861
10
22.074989792951456
20
-22.75488213477356
42
0.41421356237310281
10
21.574989792579746
20
-23.25488213440185
10
21.574989782915452
20
-36.254882134401853
42
0.41421356237310281
10
22.074989782543746
20
-36.754882134773567
0
LWPOLYLINE
5
166
100
AcDbEntity
8
0
100
AcDbPolyline
90
8
70
1
43
0.0
10
293.03748975459166
20
-74.354882336209343
42
0.41421356237310025
10
293.53748975422002
20
-74.854882336581014
10
306.53748975422002
20
-74.854882346245276
42
0.41421356237305862
10
307.03748975459166
20
-74.354882346617018
10
307.03748976425601
20
-61.354882346616932
42
0.41421356237309503
10
306.53748976462771
20
-60.854882346245276
10
293.53748976462776
20
-60.854882336580985
42
0.41421356237297535
10
293.03748976425601
20
-61.354882336209251
0
LWPOLYLINE
5
167
100
AcDbEntity
8
0
100
AcDbPolyline
90
8
70
1
43
0.0
10
231.12498979707738
20
-17.204882290183036
42
0.41421356237307683
10
231.62498979670573
20
-17.704882290554742
10
244.62498979670571
20
-17.704882300219033
42
0.41421356237312623
10
245.1249897970774
20
-17.204882300590725
10
245.12498980674167
20
-4.2048823005906764
42
0.4142135623731672
10
244.62498980711345
20
-3.7048823002190239
10
231.62498980711345
20
-3.7048822905546959
42
0.41421356237312268
10
231.12498980674167
20
-4.2048822901829936
0
LWPOLYLINE
5
168
100
AcDbEntity
8
0
100
AcDbPolyline
90
8
70
1
43
0.0
10
77.937489761087093
20
-65.6173821763022
10
64.937489761087136
20
-65.617382166637924
42
0.414213562373069
10
64.437489760715451
20
-66.117382166266196
10
64.437489751051132
20
-79.117382166266196
42
0.41421356237311585
10
64.937489750679433
20
-79.617382166637924
10
77.937489750679433
20
-79.6173821763022
42
0.4142135623730846
10
78.437489751051146
20
-79.117382176673914
10
78.437489760715437
20
-66.117382176673914
42
0.41421356237312623
0
LWPOLYLINE
5
169
100
AcDbEntity
8
0
100
AcDbPolyline
90
8
70
1
43
0.0
10
16.524989797077371
20
-17.204882130647647
10
16.524989806741679
20
-4.2048821306476292
42
0.41421356237307944
10
16.024989807113414
20
-3.7048821302759247
10
3.0249898071133829
20
-3.7048821206116238
42
0.4142135623731022
10
2.5249898067416794
20
-4.2048821202399349
10
2.5249897970773767
20
-17.204882120239926
42
0.41421356237310708
10
3.0249897967056882
20
-17.704882120611636
10
16.024989796705668
20
-17.704882130275934
42
0.41421356237309243
0
LWPOLYLINE
5
170
100
AcDbEntity
8
0
100
AcDbPolyline
90
20
70
1
43
0.0
10
212.57498975421998
20
-74.854882276392786
10
255.94423975422004
20
-74.854882308633876
42
0.41421356237304302
10
256.44423975459165
20
-74.354882309005575
10
256.44423976574279
20
-59.354882309005497
42
0.41421356237293372
10
255.94423976611449
20
-58.854882308633812
10
248.94423976611449
20
-58.854882303429996
42
0.41421356237318868
10
248.44423976574268
20
-59.354882303058297
10
248.44423976499934
20
-60.354882303058289
42
-0.41421356237301177
10
247.94423976462764
20
-60.854882302686605
10
233.06823976462766
20
-60.854882291627675
42
-0.41421356237314705
10
232.5682397649993
20
-60.354882291255969
10
232.56823976574282
20
-59.35488229125589
42
0.41421356237298579
10
232.06823976611446
20
-58.854882290884227
10
225.06823976611446
20
-58.854882285680397
42
0.41421356237311585
10
224.56823976574276
20
-59.354882285308683
10
224.56823976499933
20
-60.354882285308662
42
-0.41421356237312623
10
224.06823976462761
20
-60.85488228493702
10
212.5749897646277
20
-60.8548822763928
42
0.41421356237304302
10
212.07498976425597
20
-61.354882276021101
10
212.07498975459168
20
-74.354882276021144
42
0.4142135623730378
0
LWPOLYLINE
5
171
100
AcDbEntity
8
0
100
AcDbPolyline
90
8
70
1
43
0.0
10
41.124989782543757
20
-36.754882148935494
10
54.124989782543764
20
-36.754882158599784
42
0.4142135623730846
10
54.624989782915456
20
-36.254882158971512
10
54.624989792579761
20
-23.254882158971487
42
0.41421356237309503
10
54.124989792951474
20
-22.754882158599777
10
41.12498979295146
20
-22.754882148935476
42
0.41421356237307422
10
40.624989792579754
20
-23.254882148563773
10
40.624989782915463
20
-36.25488214856378
42
0.41421356237308204
0
LWPOLYLINE
5
172
100
AcDbEntity
8
0
100
AcDbPolyline
90
8
70
1
43
0.0
10
192.23748978254375
20
-36.754882261273735
42
0.41421356237316265
10
192.73748978291542
20
-36.254882261645434
10
192.73748979257977
20
-23.254882261645392
42
0.41421356237315488
10
192.23748979295155
20
-22.75488226127376
10
179.23748979295146
20
-22.75488225160942
42
0.41421356237309243
10
178.73748979257977
20
-23.254882251237703
10
178.73748978291542
20
-36.25488225123776
42
0.41421356237307422
10
179.23748978254383
20
-36.754882251609459
0
LWPOLYLINE
5
173
100
AcDbEntity
8
0
100
AcDbPolyline
90
8
70
1
43
0.0
10
323.65623976838179
20
-55.804882358971554
10
324.65623976838179
20
-55.804882359714874
42
0.41421356237314183
10
325.15623976875355
20
-55.30488236008658
10
325.15623977841778
20
-42.304882360086616
42
0.41421356237285051
10
324.65623977878971
20
-41.80488235971491
10
323.65623977878954
20
-41.80488235897144
42
0.41421356237288171
10
323.15623977841773
20
-42.304882358599791
10
323.15623976875361
20
-55.304882358599762
42
0.41421356237312101
0
LWPOLYLINE
5
174
100
AcDbEntity
8
0
100
AcDbPolyline
90
8
70
1
43
0.0
10
211.78748979257975
20
-23.254882275807308
42
0.4142135623729884
10
211.28748979295153
20
-22.754882275435605
10
198.28748979295142
20
-22.754882265771347
42
0.41421356237308982
10
197.78748979257969
20
-23.254882265399623
10
197.78748978291546
20
-36.254882265399687
42
0.4142135623731939
10
198.28748978254379
20
-36.754882265771329
10
211.28748978254376
20
-36.754882275435634
42
0.41421356237306123
10
211.78748978291543
20
-36.254882275807375
0
LWPOLYLINE
5
175
100
AcDbEntity
8
0
100
AcDbPolyline
90
8
70
1
43
0.0
10
93.512489807113397
20
-3.7048821878807692
42
0.41421356237311452
10
93.012489806741726
20
-4.2048821875090709
10
93.012489797077365
20
-17.204882187509064
42
0.41421356237316398
10
93.512489796705694
20
-17.704882187880774
10
106.51248979670569
20
-17.704882197545061
42
0.41421356237308332
10
107.01248979707742
20
-17.204882197916795
10
107.01248980674173
20
-4.2048821979167705
42
0.41421356237310575
10
106.51248980711344
20
-3.7048821975450652
0
LWPOLYLINE
5
176
100
AcDbEntity
8
0
100
AcDbPolyline
90
8
70
1
43
0.0
10
-1.2880101836734781
20
9.8701178822250988
10
353.71300000643311
20
9.8701176194153124
42
-0.41465519317553307
10
356.71298974355921
20
6.8746476613889307
10
356.71299654060044
20
-85.434396692461519
42
-0.41377283539760779
10
353.71299993355927
20
-88.429881782808778
10
-1.2880102564408626
20
-88.429881446758301
42
-0.41421356225285183
10
-4.2880101835670512
20
-85.429881515184064
10
-4.2880101854240857
20
6.8701178848160716
42
-0.41421356280875415
0
LWPOLYLINE
5
177
100
AcDbEntity
8
0
100
AcDbPolyline
90
8
70
1
43
0.0
10
331.51875000000007
20
-11.291880000000001
10
331.51875000000007
20
-5.2918799999999999
42
-0.41421356237309503
10
332.01875000000001
20
-4.791879999999999
10
347.01875000000001
20
-4.7918799999999573
42
-0.41421356237309503
10
347.51875000000007
20
-5.2918799999999999
10
347.51874999999995
20
-11.291880000000001
42
-0.41421356237309503
10
347.01875000000001
20
-11.791880000000003
10
332.01875000000001
20
-11.791879999999972
42
-0.41421356237309503
0
LWPOLYLINE
5
178
100
AcDbEntity
8
0
100
AcDbPolyline
90
8
70
1
43
0.0
10
333.51875000000001
20
-26.729880000000001
10
333.51875000000007
20
-13.729880000000001
42
-0.41421356237309503
10
334.01875000000007
20
-13.229880000000001
10
347.01875000000001
20
-13.229879999999959
42
-0.41421356237309503
10
347.51875000000007
20
-13.729880000000001
10
347.51874999999995
20
-26.729880000000001
42
-0.41421356237309503
10
347.01875000000001
20
-27.229880000000005
10
334.01875000000007
20
-27.229880000000044
42
-0.41421356237309503
0
LWPOLYLINE
5
179
100
AcDbEntity
8
0
100
AcDbPolyline
90
8
70
1
43
0.0
10
331.51875000000007
20
-35.167879999999997
10
331.51875000000007
20
-29.167880000000004
42
-0.41421356237309503
10
332.01875000000001
20
-28.667880000000004
10
347.01875000000001
20
-28.667879999999961
42
-0.41421356237309503
10
347.51875000000007
20
-29.167880000000004
10
347.51874999999995
20
-35.167879999999997
42
-0.41421356237309503
10
347.01875000000001
20
-35.667880000000011
10
332.01875000000001
20
-35.667879999999968
42
-0.41421356237309503
0
LWPOLYLINE
5
180
100
AcDbEntity
8
0
100
AcDbPolyline
90
8
70
1
43
0.0
10
325.58749999999998
20
-22.754880000000028
42
-0.41421356237309503
10
326.08749999999992
20
-23.25488
10
326.08749999999992
20
-36.25488
42
-0.41421356237309503
10
325.58749999999998
20
-36.75488
10
312.58749999999998
20
-36.754880000000007
42
-0.41421356237309503
10
312.08749999999998
20
-36.25488
10
312.08749999999998
20
-23.25488
42
-0.41421356237309503
10
312.58749999999998
20
-22.75488
0
LWPOLYLINE
5
181
100
AcDbEntity
8
0
100
AcDbPolyline
90
8
70
1
43
0.0
10
104.13125000000001
20
-41.804879999999997
42
-0.41421356237309503
10
104.63125000000002
20
-42.304880000000004
10
104.63125000000002
20
-55.304880000000011
42
-0.41421356237309503
10
104.13125000000001
20
-55.804880000000011
10
91.131249999999994
20
-55.804880000000018
42
-0.41421356237309503
10
90.631249999999994
20
-55.304880000000011
10
90.631249999999994
20
-42.304880000000004
42
-0.41421356237309503
10
91.131249999999994
20
-41.804880000000004
0
LWPOLYLINE
5
182
100
AcDbEntity
8
0
100
AcDbPolyline
90
8
70
1
43
0.0
10
125.5625
20
-41.804879999999997
42
-0.41421356237309503
10
126.06250000000001
20
-42.304880000000004
10
126.0625
20
-55.304880000000011
42
-0.41421356237309503
10
125.5625
20
-55.804880000000011
10
112.56250000000001
20
-55.804880000000018
42
-0.41421356237309503
10
112.0625
20
-55.304880000000011
10
112.0625
20
-42.304880000000004
42
-0.41421356237309503
10
112.56250000000001
20
-41.804880000000004
0
ENDSEC
0
SECTION
2
OBJECTS
0
DICTIONARY
5
C
100
AcDbDictionary
3
ACAD_GROUP
350
D
3
ACAD_MLINESTYLE
350
17
0
DICTIONARY
5
D
100
AcDbDictionary
0
DICTIONARY
5
1A
330
C
100
AcDbDictionary
0
DICTIONARY
5
17
100
AcDbDictionary
0
ENDSEC
0
EOF
