  0
SECTION
  2
HEADER
  9
$ACADVER
  1
AC1014
  9
$ACADMAINTVER
 70
     9
  9
$DWGCODEPAGE
  3
ANSI_1252
  9
$INSBASE
 10
0.0
 20
0.0
 30
0.0
  9
$EXTMIN
 10
-361.0010056025963
 20
-0.000003000000028
 30
0.0
  9
$EXTMAX
 10
-0.0000000000000564
 20
98.29999800000016
 30
0.0
  9
$LIMMIN
 10
0.0
 20
0.0
  9
$LIMMAX
 10
12.0
 20
9.0
  9
$ORTHOMODE
 70
     0
  9
$REGENMODE
 70
     1
  9
$FILLMODE
 70
     1
  9
$QTEXTMODE
 70
     0
  9
$MIRRTEXT
 70
     1
  9
$DRAGMODE
 70
     2
  9
$LTSCALE
 40
1.0
  9
$OSMODE
 70
    37
  9
$ATTMODE
 70
     1
  9
$TEXTSIZE
 40
0.2
  9
$TRACEWID
 40
0.05
  9
$TEXTSTYLE
  7
STANDARD
  9
$CLAYER
  8
0
  9
$CELTYPE
  6
BYLAYER
  9
$CECOLOR
 62
   256
  9
$CELTSCALE
 40
1.0
  9
$DELOBJ
 70
     1
  9
$DISPSILH
 70
     0
  9
$DIMSCALE
 40
1.0
  9
$DIMASZ
 40
0.18
  9
$DIMEXO
 40
0.0625
  9
$DIMDLI
 40
0.38
  9
$DIMRND
 40
0.0
  9
$DIMDLE
 40
0.0
  9
$DIMEXE
 40
0.18
  9
$DIMTP
 40
0.0
  9
$DIMTM
 40
0.0
  9
$DIMTXT
 40
0.18
  9
$DIMCEN
 40
0.09
  9
$DIMTSZ
 40
0.0
  9
$DIMTOL
 70
     0
  9
$DIMLIM
 70
     0
  9
$DIMTIH
 70
     1
  9
$DIMTOH
 70
     1
  9
$DIMSE1
 70
     0
  9
$DIMSE2
 70
     0
  9
$DIMTAD
 70
     0
  9
$DIMZIN
 70
     0
  9
$DIMBLK
  1

  9
$DIMASO
 70
     1
  9
$DIMSHO
 70
     1
  9
$DIMPOST
  1

  9
$DIMAPOST
  1

  9
$DIMALT
 70
     0
  9
$DIMALTD
 70
     2
  9
$DIMALTF
 40
25.4
  9
$DIMLFAC
 40
1.0
  9
$DIMTOFL
 70
     0
  9
$DIMTVP
 40
0.0
  9
$DIMTIX
 70
     0
  9
$DIMSOXD
 70
     0
  9
$DIMSAH
 70
     0
  9
$DIMBLK1
  1

  9
$DIMBLK2
  1

  9
$DIMSTYLE
  2
STANDARD
  9
$DIMCLRD
 70
   178
  9
$DIMCLRE
 70
   178
  9
$DIMCLRT
 70
   178
  9
$DIMTFAC
 40
1.0
  9
$DIMGAP
 40
0.09
  9
$DIMJUST
 70
     0
  9
$DIMSD1
 70
     0
  9
$DIMSD2
 70
     0
  9
$DIMTOLJ
 70
     1
  9
$DIMTZIN
 70
     0
  9
$DIMALTZ
 70
     0
  9
$DIMALTTZ
 70
     0
  9
$DIMFIT
 70
     3
  9
$DIMUPT
 70
     0
  9
$DIMUNIT
 70
     2
  9
$DIMDEC
 70
     4
  9
$DIMTDEC
 70
     4
  9
$DIMALTU
 70
     2
  9
$DIMALTTD
 70
     2
  9
$DIMTXSTY
  7
STANDARD
  9
$DIMAUNIT
 70
     0
  9
$LUNITS
 70
     2
  9
$LUPREC
 70
     4
  9
$SKETCHINC
 40
0.1
  9
$FILLETRAD
 40
0.5
  9
$AUNITS
 70
     0
  9
$AUPREC
 70
     0
  9
$MENU
  1
.
  9
$ELEVATION
 40
0.0
  9
$PELEVATION
 40
0.0
  9
$THICKNESS
 40
0.0
  9
$LIMCHECK
 70
     0
  9
$CHAMFERA
 40
0.0
  9
$CHAMFERB
 40
0.0
  9
$CHAMFERC
 40
0.0
  9
$CHAMFERD
 40
0.0
  9
$SKPOLY
 70
     0
  9
$TDCREATE
 40
2459319.352660521
  9
$TDUPDATE
 40
2459319.352660567
  9
$TDINDWG
 40
0.0000000116
  9
$TDUSRTIMER
 40
0.0000000116
  9
$USRTIMER
 70
     1
  9
$ANGBASE
 50
0.0
  9
$ANGDIR
 70
     0
  9
$PDMODE
 70
     0
  9
$PDSIZE
 40
0.0
  9
$PLINEWID
 40
0.0
  9
$COORDS
 70
     1
  9
$SPLFRAME
 70
     0
  9
$SPLINETYPE
 70
     6
  9
$SPLINESEGS
 70
     8
  9
$ATTDIA
 70
     0
  9
$ATTREQ
 70
     1
  9
$HANDLING
 70
     1
  9
$HANDSEED
  5
10142
  9
$SURFTAB1
 70
     6
  9
$SURFTAB2
 70
     6
  9
$SURFTYPE
 70
     6
  9
$SURFU
 70
     6
  9
$SURFV
 70
     6
  9
$UCSNAME
  2

  9
$UCSORG
 10
0.0
 20
0.0
 30
0.0
  9
$UCSXDIR
 10
1.0
 20
0.0
 30
0.0
  9
$UCSYDIR
 10
0.0
 20
1.0
 30
0.0
  9
$PUCSNAME
  2

  9
$PUCSORG
 10
0.0
 20
0.0
 30
0.0
  9
$PUCSXDIR
 10
1.0
 20
0.0
 30
0.0
  9
$PUCSYDIR
 10
0.0
 20
1.0
 30
0.0
  9
$USERI1
 70
     0
  9
$USERI2
 70
     0
  9
$USERI3
 70
     0
  9
$USERI4
 70
     0
  9
$USERI5
 70
     0
  9
$USERR1
 40
0.0
  9
$USERR2
 40
0.0
  9
$USERR3
 40
0.0
  9
$USERR4
 40
0.0
  9
$USERR5
 40
0.0
  9
$WORLDVIEW
 70
     1
  9
$SHADEDGE
 70
     3
  9
$SHADEDIF
 70
    70
  9
$TILEMODE
 70
     1
  9
$MAXACTVP
 70
    64
  9
$PINSBASE
 10
0.0
 20
0.0
 30
0.0
  9
$PLIMCHECK
 70
     0
  9
$PEXTMIN
 10
1.000000000000000E+20
 20
1.000000000000000E+20
 30
1.000000000000000E+20
  9
$PEXTMAX
 10
-1.000000000000000E+20
 20
-1.000000000000000E+20
 30
-1.000000000000000E+20
  9
$PLIMMIN
 10
-0.25
 20
-0.25
  9
$PLIMMAX
 10
10.75
 20
8.25
  9
$UNITMODE
 70
     0
  9
$VISRETAIN
 70
     1
  9
$PLINEGEN
 70
     0
  9
$PSLTSCALE
 70
     1
  9
$TREEDEPTH
 70
  3020
  9
$PICKSTYLE
 70
     1
  9
$CMLSTYLE
  2
STANDARD
  9
$CMLJUST
 70
     0
  9
$CMLSCALE
 40
1.0
  9
$PROXYGRAPHICS
 70
     1
  9
$MEASUREMENT
 70
     0
  0
ENDSEC
  0
SECTION
  2
CLASSES
  0
CLASS
  1
ACDBDICTIONARYWDFLT
  2
AcDbDictionaryWithDefault
  3
ObjectDBX Classes
 90
        0
280
     0
281
     0
  0
CLASS
  1
VISUALSTYLE
  2
AcDbVisualStyle
  3
ObjectDBX Classes
 90
     4095
280
     0
281
     0
  0
CLASS
  1
MATERIAL
  2
AcDbMaterial
  3
ObjectDBX Classes
 90
     1153
280
     0
281
     0
  0
CLASS
  1
SCALE
  2
AcDbScale
  3
ObjectDBX Classes
 90
     1153
280
     0
281
     0
  0
CLASS
  1
TABLESTYLE
  2
AcDbTableStyle
  3
ObjectDBX Classes
 90
     4095
280
     0
281
     0
  0
CLASS
  1
MLEADERSTYLE
  2
AcDbMLeaderStyle
  3
ACDB_MLEADERSTYLE_CLASS
 90
     4095
280
     0
281
     0
  0
CLASS
  1
SUN
  2
AcDbSun
  3
SCENEOE
 90
     1153
280
     0
281
     0
  0
CLASS
  1
DICTIONARYVAR
  2
AcDbDictionaryVar
  3
ObjectDBX Classes
 90
        0
280
     0
281
     0
  0
CLASS
  1
XRECORD
  2
AcDbXrecord
  3
ObjectDBX Classes
 90
        0
280
     0
281
     0
  0
CLASS
  1
LWPOLYLINE
  2
AcDbPolyline
  3
ObjectDBX Classes
 90
        0
280
     0
281
     1
  0
CLASS
  1
HATCH
  2
AcDbHatch
  3
ObjectDBX Classes
 90
        0
280
     0
281
     1
  0
CLASS
  1
ACDBPLACEHOLDER
  2
AcDbPlaceHolder
  3
ObjectDBX Classes
 90
        0
280
     0
281
     0
  0
CLASS
  1
LAYOUT
  2
AcDbLayout
  3
ObjectDBX Classes
 90
        0
280
     0
281
     0
  0
ENDSEC
  0
SECTION
  2
TABLES
  0
TABLE
  2
VPORT
  5
10034
102
{ACAD_XDICTIONARY
360
10137
102
}
330
0
100
AcDbSymbolTable
 70
     1
  0
VPORT
  5
10054
330
10034
100
AcDbSymbolTableRecord
100
AcDbViewportTableRecord
  2
*ACTIVE
 70
     0
 10
0.0
 20
0.0
 11
1.0
 21
1.0
 12
-50.15062764093784
 22
173.3581132929667
 13
0.0
 23
0.0
 14
0.5
 24
0.5
 15
0.5
 25
0.5
 16
0.0
 26
0.0
 36
1.0
 17
0.0
 27
0.0
 37
0.0
 40
623.6443771667579
 41
1.24904214559387
 42
50.0
 43
0.0
 44
0.0
 50
0.0
 51
0.0
 71
     0
 72
   100
 73
     1
 74
     3
 75
     0
 76
     0
 77
     0
 78
     0
  0
ENDTAB
  0
TABLE
  2
LTYPE
  5
10031
330
0
100
AcDbSymbolTable
 70
    48
  0
LTYPE
  5
1003F
330
10031
100
AcDbSymbolTableRecord
100
AcDbLinetypeTableRecord
  2
BYBLOCK
 70
     0
  3

 72
    65
 73
     0
 40
0.0
  0
LTYPE
  5
10040
330
10031
100
AcDbSymbolTableRecord
100
AcDbLinetypeTableRecord
  2
BYLAYER
 70
     0
  3

 72
    65
 73
     0
 40
0.0
  0
LTYPE
  5
10041
330
10031
100
AcDbSymbolTableRecord
100
AcDbLinetypeTableRecord
  2
CONTINUOUS
 70
     0
  3
Solid line
 72
    65
 73
     0
 40
0.0
  0
LTYPE
  5
100D2
330
10031
100
AcDbSymbolTableRecord
100
AcDbLinetypeTableRecord
  2
CENTER2
 70
     0
  3
Center (.5x) ___ _ ___ _ ___ _ ___ _ ___ _ ___
 72
    65
 73
     4
 40
28.575
 49
19.05
 74
     0
 49
-3.175
 74
     0
 49
3.175
 74
     0
 49
-3.175
 74
     0
  0
LTYPE
  5
100D3
330
10031
100
AcDbSymbolTableRecord
100
AcDbLinetypeTableRecord
  2
CENTER
 70
     0
  3
Center ____ _ ____ _ ____ _ ____ _ ____ _ ____
 72
    65
 73
     4
 40
50.8
 49
31.75
 74
     0
 49
-6.35
 74
     0
 49
6.35
 74
     0
 49
-6.35
 74
     0
  0
LTYPE
  5
100D4
330
10031
100
AcDbSymbolTableRecord
100
AcDbLinetypeTableRecord
  2
BORDERX2
 70
     0
  3
Border (2x) ____  ____  .  ____  ____  .  ___
 72
    65
 73
     6
 40
88.89999999999999
 49
25.4
 74
     0
 49
-12.7
 74
     0
 49
25.4
 74
     0
 49
-12.7
 74
     0
 49
0.0
 74
     0
 49
-12.7
 74
     0
  0
LTYPE
  5
100D5
330
10031
100
AcDbSymbolTableRecord
100
AcDbLinetypeTableRecord
  2
BORDER2
 70
     0
  3
Border (.5x) __.__.__.__.__.__.__.__.__.__.__.
 72
    65
 73
     6
 40
22.225
 49
6.35
 74
     0
 49
-3.175
 74
     0
 49
6.35
 74
     0
 49
-3.175
 74
     0
 49
0.0
 74
     0
 49
-3.175
 74
     0
  0
LTYPE
  5
100D6
330
10031
100
AcDbSymbolTableRecord
100
AcDbLinetypeTableRecord
  2
DASHDOTX2
 70
     0
  3
Dash dot (2x) ____  .  ____  .  ____  .  ___
 72
    65
 73
     4
 40
50.8
 49
25.4
 74
     0
 49
-12.7
 74
     0
 49
0.0
 74
     0
 49
-12.7
 74
     0
  0
LTYPE
  5
100D7
330
10031
100
AcDbSymbolTableRecord
100
AcDbLinetypeTableRecord
  2
DASHDOT2
 70
     0
  3
Dash dot (.5x) _._._._._._._._._._._._._._._.
 72
    65
 73
     4
 40
12.7
 49
6.35
 74
     0
 49
-3.175
 74
     0
 49
0.0
 74
     0
 49
-3.175
 74
     0
  0
LTYPE
  5
100D8
330
10031
100
AcDbSymbolTableRecord
100
AcDbLinetypeTableRecord
  2
DASHDOT
 70
     0
  3
Dash dot __ . __ . __ . __ . __ . __ . __ . __
 72
    65
 73
     4
 40
25.4
 49
12.7
 74
     0
 49
-6.35
 74
     0
 49
0.0
 74
     0
 49
-6.35
 74
     0
  0
LTYPE
  5
100D9
330
10031
100
AcDbSymbolTableRecord
100
AcDbLinetypeTableRecord
  2
CENTERX2
 70
     0
  3
Center (2x) ________  __  ________  __  _____
 72
    65
 73
     4
 40
101.6
 49
63.5
 74
     0
 49
-12.7
 74
     0
 49
12.7
 74
     0
 49
-12.7
 74
     0
  0
LTYPE
  5
100DA
330
10031
100
AcDbSymbolTableRecord
100
AcDbLinetypeTableRecord
  2
ACAD_ISO13W100
 70
     0
  3
ISO double-dash double-dot __ __ . . __ __ . . _
 72
    65
 73
     8
 40
36.0
 49
12.0
 74
     0
 49
-3.0
 74
     0
 49
12.0
 74
     0
 49
-3.0
 74
     0
 49
0.0
 74
     0
 49
-3.0
 74
     0
 49
0.0
 74
     0
 49
-3.0
 74
     0
  0
LTYPE
  5
100DB
330
10031
100
AcDbSymbolTableRecord
100
AcDbLinetypeTableRecord
  2
ACAD_ISO12W100
 70
     0
  3
ISO dash double-dot __ . . __ . . __ . . __ . . 
 72
    65
 73
     6
 40
21.0
 49
12.0
 74
     0
 49
-3.0
 74
     0
 49
0.0
 74
     0
 49
-3.0
 74
     0
 49
0.0
 74
     0
 49
-3.0
 74
     0
  0
LTYPE
  5
100DC
330
10031
100
AcDbSymbolTableRecord
100
AcDbLinetypeTableRecord
  2
ACAD_ISO11W100
 70
     0
  3
ISO double-dash dot __ __ . __ __ . __ __ . __ _
 72
    65
 73
     6
 40
33.0
 49
12.0
 74
     0
 49
-3.0
 74
     0
 49
12.0
 74
     0
 49
-3.0
 74
     0
 49
0.0
 74
     0
 49
-3.0
 74
     0
  0
LTYPE
  5
100DD
330
10031
100
AcDbSymbolTableRecord
100
AcDbLinetypeTableRecord
  2
ACAD_ISO10W100
 70
     0
  3
ISO dash dot __ . __ . __ . __ . __ . __ . __ . 
 72
    65
 73
     4
 40
18.0
 49
12.0
 74
     0
 49
-3.0
 74
     0
 49
0.0
 74
     0
 49
-3.0
 74
     0
  0
LTYPE
  5
100DE
330
10031
100
AcDbSymbolTableRecord
100
AcDbLinetypeTableRecord
  2
BORDER
 70
     0
  3
Border __ __ . __ __ . __ __ . __ __ . __ __ .
 72
    65
 73
     6
 40
44.45
 49
12.7
 74
     0
 49
-6.35
 74
     0
 49
12.7
 74
     0
 49
-6.35
 74
     0
 49
0.0
 74
     0
 49
-6.35
 74
     0
  0
LTYPE
  5
100E1
330
10031
100
AcDbSymbolTableRecord
100
AcDbLinetypeTableRecord
  2
BATTING
 70
     0
  3
Batting SSSSSSSSSSSSSSSSSSSSSSSSSSSSSSSSSSSSSSSSSSSSSSS
 72
    65
 73
     4
 40
10.16254
 49
0.00254
 74
     0
 49
-2.54
 74
     2
 75
     0
340
100DF
 46
2.54
 50
0.0
 44
-2.54
 45
0.0
  9
BAT
 49
-5.08
 74
     2
 75
     0
340
100E0
 46
2.54
 50
180.0
 44
2.54
 45
0.0
  9
BAT
 49
-2.54
 74
     0
  0
LTYPE
  5
100E2
330
10031
100
AcDbSymbolTableRecord
100
AcDbLinetypeTableRecord
  2
ACAD_ISO15W100
 70
     0
  3
ISO double-dash triple-dot __ __ . . . __ __ . .
 72
    65
 73
    10
 40
39.0
 49
12.0
 74
     0
 49
-3.0
 74
     0
 49
12.0
 74
     0
 49
-3.0
 74
     0
 49
0.0
 74
     0
 49
-3.0
 74
     0
 49
0.0
 74
     0
 49
-3.0
 74
     0
 49
0.0
 74
     0
 49
-3.0
 74
     0
  0
LTYPE
  5
100E3
330
10031
100
AcDbSymbolTableRecord
100
AcDbLinetypeTableRecord
  2
ACAD_ISO14W100
 70
     0
  3
ISO dash triple-dot __ . . . __ . . . __ . . . _
 72
    65
 73
     8
 40
24.0
 49
12.0
 74
     0
 49
-3.0
 74
     0
 49
0.0
 74
     0
 49
-3.0
 74
     0
 49
0.0
 74
     0
 49
-3.0
 74
     0
 49
0.0
 74
     0
 49
-3.0
 74
     0
  0
LTYPE
  5
100E5
330
10031
100
AcDbSymbolTableRecord
100
AcDbLinetypeTableRecord
  2
FENCELINE1
 70
     0
  3
Fenceline circle ----0-----0----0-----0----0-----0--
 72
    65
 73
     4
 40
36.83
 49
6.35
 74
     0
 49
-2.54
 74
     2
 75
     0
340
100E4
 46
2.54
 50
0.0
 44
-2.54
 45
0.0
  9
CIRC1
 49
-2.54
 74
     0
 49
25.4
 74
     0
  0
LTYPE
  5
100E7
330
10031
100
AcDbSymbolTableRecord
100
AcDbLinetypeTableRecord
  2
DRAINAGE2
 70
     0
  3
Drainage reversed----<----<----<----
 72
    65
 73
     2
 40
10.16
 49
5.08
 74
     2
 75
     0
340
100E6
 46
2.54
 50
0.0
 44
0.0
 45
0.0
  9
RIGHT_ARROW
 49
5.08
 74
     0
  0
LTYPE
  5
100E9
330
10031
100
AcDbSymbolTableRecord
100
AcDbLinetypeTableRecord
  2
DRAINAGE
 70
     0
  3
Drainage ---->---->---->----
 72
    65
 73
     2
 40
10.16
 49
5.08
 74
     2
 75
     0
340
100E8
 46
2.54
 50
180.0
 44
0.0
 45
0.0
  9
RIGHT_ARROW
 49
5.08
 74
     0
  0
LTYPE
  5
100EA
330
10031
100
AcDbSymbolTableRecord
100
AcDbLinetypeTableRecord
  2
DOTX2
 70
     0
  3
Dot (2x) .  .  .  .  .  .  .  .  .  .  .  .  .  .
 72
    65
 73
     2
 40
12.7
 49
0.0
 74
     0
 49
-12.7
 74
     0
  0
LTYPE
  5
100EB
330
10031
100
AcDbSymbolTableRecord
100
AcDbLinetypeTableRecord
  2
HIDDEN2
 70
     0
  3
Hidden (.5x) _ _ _ _ _ _ _ _ _ _ _ _ _ _ _ _ _ 
 72
    65
 73
     2
 40
4.762499999999999
 49
3.175
 74
     0
 49
-1.5875
 74
     0
  0
LTYPE
  5
100EC
330
10031
100
AcDbSymbolTableRecord
100
AcDbLinetypeTableRecord
  2
HIDDEN
 70
     0
  3
Hidden __ __ __ __ __ __ __ __ __ __ __ __ __ __
 72
    65
 73
     2
 40
9.524999999999999
 49
6.35
 74
     0
 49
-3.175
 74
     0
  0
LTYPE
  5
100EE
330
10031
100
AcDbSymbolTableRecord
100
AcDbLinetypeTableRecord
  2
GAS_LINE
 70
     0
  3
Gas line ----GAS----GAS----GAS----GAS----GAS----GAS--
 72
    65
 73
     3
 40
24.13
 49
12.7
 74
     0
 49
-5.08
 74
     2
 75
     0
340
100ED
 46
2.54
 50
0.0
 44
-2.54
 45
-1.27
  9
GAS
 49
-6.35
 74
     0
  0
LTYPE
  5
100F0
330
10031
100
AcDbSymbolTableRecord
100
AcDbLinetypeTableRecord
  2
FENCELINE2
 70
     0
  3
Fenceline square ----[]-----[]----[]-----[]----[]---
 72
    65
 73
     4
 40
36.83
 49
6.35
 74
     0
 49
-2.54
 74
     2
 75
     0
340
100EF
 46
2.54
 50
0.0
 44
-2.54
 45
0.0
  9
BOX
 49
-2.54
 74
     0
 49
25.4
 74
     0
  0
LTYPE
  5
100F1
330
10031
100
AcDbSymbolTableRecord
100
AcDbLinetypeTableRecord
  2
DIVIDE
 70
     0
  3
Divide ____ . . ____ . . ____ . . ____ . . ____
 72
    65
 73
     6
 40
31.75
 49
12.7
 74
     0
 49
-6.35
 74
     0
 49
0.0
 74
     0
 49
-6.35
 74
     0
 49
0.0
 74
     0
 49
-6.35
 74
     0
  0
LTYPE
  5
100F2
330
10031
100
AcDbSymbolTableRecord
100
AcDbLinetypeTableRecord
  2
DASHEDX2
 70
     0
  3
Dashed (2x) ____  ____  ____  ____  ____  ___
 72
    65
 73
     2
 40
38.09999999999999
 49
25.4
 74
     0
 49
-12.7
 74
     0
  0
LTYPE
  5
100F3
330
10031
100
AcDbSymbolTableRecord
100
AcDbLinetypeTableRecord
  2
DASHED2
 70
     0
  3
Dashed (.5x) _ _ _ _ _ _ _ _ _ _ _ _ _ _ _ _ _ 
 72
    65
 73
     2
 40
9.524999999999999
 49
6.35
 74
     0
 49
-3.175
 74
     0
  0
LTYPE
  5
100F4
330
10031
100
AcDbSymbolTableRecord
100
AcDbLinetypeTableRecord
  2
DASHED
 70
     0
  3
Dashed __ __ __ __ __ __ __ __ __ __ __ __ __ _
 72
    65
 73
     2
 40
19.05
 49
12.7
 74
     0
 49
-6.35
 74
     0
  0
LTYPE
  5
100F5
330
10031
100
AcDbSymbolTableRecord
100
AcDbLinetypeTableRecord
  2
DOT2
 70
     0
  3
Dot (.5x) ........................................
 72
    65
 73
     2
 40
3.175
 49
0.0
 74
     0
 49
-3.175
 74
     0
  0
LTYPE
  5
100F6
330
10031
100
AcDbSymbolTableRecord
100
AcDbLinetypeTableRecord
  2
DOT
 70
     0
  3
Dot . . . . . . . . . . . . . . . . . . . . . . . .
 72
    65
 73
     2
 40
6.35
 49
0.0
 74
     0
 49
-6.35
 74
     0
  0
LTYPE
  5
100F7
330
10031
100
AcDbSymbolTableRecord
100
AcDbLinetypeTableRecord
  2
DIVIDEX2
 70
     0
  3
Divide (2x) ________  .  .  ________  .  .  _
 72
    65
 73
     6
 40
63.5
 49
25.4
 74
     0
 49
-12.7
 74
     0
 49
0.0
 74
     0
 49
-12.7
 74
     0
 49
0.0
 74
     0
 49
-12.7
 74
     0
  0
LTYPE
  5
100F8
330
10031
100
AcDbSymbolTableRecord
100
AcDbLinetypeTableRecord
  2
DIVIDE2
 70
     0
  3
Divide (.5x) __..__..__..__..__..__..__..__.._
 72
    65
 73
     6
 40
15.875
 49
6.35
 74
     0
 49
-3.175
 74
     0
 49
0.0
 74
     0
 49
-3.175
 74
     0
 49
0.0
 74
     0
 49
-3.175
 74
     0
  0
LTYPE
  5
100F9
330
10031
100
AcDbSymbolTableRecord
100
AcDbLinetypeTableRecord
  2
PHANTOM2
 70
     0
  3
Phantom (.5x) ___ _ _ ___ _ _ ___ _ _ ___ _ _
 72
    65
 73
     6
 40
31.75
 49
15.875
 74
     0
 49
-3.175
 74
     0
 49
3.175
 74
     0
 49
-3.175
 74
     0
 49
3.175
 74
     0
 49
-3.175
 74
     0
  0
LTYPE
  5
100FA
330
10031
100
AcDbSymbolTableRecord
100
AcDbLinetypeTableRecord
  2
PHANTOM
 70
     0
  3
Phantom ______  __  __  ______  __  __  ______ 
 72
    65
 73
     6
 40
63.50000000000001
 49
31.75
 74
     0
 49
-6.35
 74
     0
 49
6.35
 74
     0
 49
-6.35
 74
     0
 49
6.35
 74
     0
 49
-6.35
 74
     0
  0
LTYPE
  5
100FC
330
10031
100
AcDbSymbolTableRecord
100
AcDbLinetypeTableRecord
  2
HOT_WATER_SUPPLY
 70
     0
  3
Hot water supply ---- HW ---- HW ---- HW ----
 72
    65
 73
     3
 40
22.86
 49
12.7
 74
     0
 49
-5.08
 74
     2
 75
     0
340
100FB
 46
2.54
 50
0.0
 44
-2.54
 45
-1.27
  9
HW
 49
-5.08
 74
     0
  0
LTYPE
  5
100FD
330
10031
100
AcDbSymbolTableRecord
100
AcDbLinetypeTableRecord
  2
HIDDENX2
 70
     0
  3
Hidden (2x) ____ ____ ____ ____ ____ ____ ____ 
 72
    65
 73
     2
 40
19.05
 49
12.7
 74
     0
 49
-6.35
 74
     0
  0
LTYPE
  5
10100
330
10031
100
AcDbSymbolTableRecord
100
AcDbLinetypeTableRecord
  2
ZIGZAG
 70
     0
  3
Zig zag /\/\/\/\/\/\/\/\/\/\/\/\/\/\/\/\/\/\/\/\/\/\/\/
 72
    65
 73
     4
 40
20.32254
 49
0.00254
 74
     0
 49
-5.08
 74
     2
 75
     0
340
100FE
 46
5.08
 50
0.0
 44
-5.08
 45
0.0
  9
ZIG
 49
-10.16
 74
     2
 75
     0
340
100FF
 46
5.08
 50
180.0
 44
5.08
 45
0.0
  9
ZIG
 49
-5.08
 74
     0
  0
LTYPE
  5
10102
330
10031
100
AcDbSymbolTableRecord
100
AcDbLinetypeTableRecord
  2
TRACKS
 70
     0
  3
Tracks -|-|-|-|-|-|-|-|-|-|-|-|-|-|-|-|-|-|-|-|-|-|-|-|-
 72
    65
 73
     2
 40
7.62
 49
3.81
 74
     2
 75
     0
340
10101
 46
6.35
 50
0.0
 44
0.0
 45
0.0
  9
TRACK1
 49
3.81
 74
     0
  0
LTYPE
  5
10103
330
10031
100
AcDbSymbolTableRecord
100
AcDbLinetypeTableRecord
  2
PHANTOMX2
 70
     0
  3
Phantom (2x) ____________    ____    ____   _
 72
    65
 73
     6
 40
127.0
 49
63.5
 74
     0
 49
-12.7
 74
     0
 49
12.7
 74
     0
 49
-12.7
 74
     0
 49
12.7
 74
     0
 49
-12.7
 74
     0
  0
LTYPE
  5
10104
330
10031
100
AcDbSymbolTableRecord
100
AcDbLinetypeTableRecord
  2
ACAD_ISO05W100
 70
     0
  3
ISO long-dash double-dot ____ .. ____ .. ____ . 
 72
    65
 73
     6
 40
33.0
 49
24.0
 74
     0
 49
-3.0
 74
     0
 49
0.0
 74
     0
 49
-3.0
 74
     0
 49
0.0
 74
     0
 49
-3.0
 74
     0
  0
LTYPE
  5
10105
330
10031
100
AcDbSymbolTableRecord
100
AcDbLinetypeTableRecord
  2
ACAD_ISO04W100
 70
     0
  3
ISO long-dash dot ____ . ____ . ____ . ____ . _
 72
    65
 73
     4
 40
30.0
 49
24.0
 74
     0
 49
-3.0
 74
     0
 49
0.0
 74
     0
 49
-3.0
 74
     0
  0
LTYPE
  5
10106
330
10031
100
AcDbSymbolTableRecord
100
AcDbLinetypeTableRecord
  2
ACAD_ISO03W100
 70
     0
  3
ISO dash space __    __    __    __    __    __
 72
    65
 73
     2
 40
30.0
 49
12.0
 74
     0
 49
-18.0
 74
     0
  0
LTYPE
  5
10107
330
10031
100
AcDbSymbolTableRecord
100
AcDbLinetypeTableRecord
  2
ACAD_ISO02W100
 70
     0
  3
ISO dash __ __ __ __ __ __ __ __ __ __ __ __ __
 72
    65
 73
     2
 40
15.0
 49
12.0
 74
     0
 49
-3.0
 74
     0
  0
LTYPE
  5
10108
330
10031
100
AcDbSymbolTableRecord
100
AcDbLinetypeTableRecord
  2
ACAD_ISO09W100
 70
     0
  3
ISO long-dash double-short-dash ____ __ __ ____
 72
    65
 73
     6
 40
45.0
 49
24.0
 74
     0
 49
-3.0
 74
     0
 49
6.0
 74
     0
 49
-3.0
 74
     0
 49
6.0
 74
     0
 49
-3.0
 74
     0
  0
LTYPE
  5
10109
330
10031
100
AcDbSymbolTableRecord
100
AcDbLinetypeTableRecord
  2
ACAD_ISO08W100
 70
     0
  3
ISO long-dash short-dash ____ __ ____ __ ____ _
 72
    65
 73
     4
 40
36.0
 49
24.0
 74
     0
 49
-3.0
 74
     0
 49
6.0
 74
     0
 49
-3.0
 74
     0
  0
LTYPE
  5
1010A
330
10031
100
AcDbSymbolTableRecord
100
AcDbLinetypeTableRecord
  2
ACAD_ISO07W100
 70
     0
  3
ISO dot . . . . . . . . . . . . . . . . . . . . 
 72
    65
 73
     2
 40
3.0
 49
0.0
 74
     0
 49
-3.0
 74
     0
  0
LTYPE
  5
1010B
330
10031
100
AcDbSymbolTableRecord
100
AcDbLinetypeTableRecord
  2
ACAD_ISO06W100
 70
     0
  3
ISO long-dash triple-dot ____ ... ____ ... ____
 72
    65
 73
     8
 40
36.0
 49
24.0
 74
     0
 49
-3.0
 74
     0
 49
0.0
 74
     0
 49
-3.0
 74
     0
 49
0.0
 74
     0
 49
-3.0
 74
     0
 49
0.0
 74
     0
 49
-3.0
 74
     0
  0
ENDTAB
  0
TABLE
  2
LAYER
  5
1002F
330
0
100
AcDbSymbolTable
 70
     1
  0
LAYER
  5
1003C
330
1002F
100
AcDbSymbolTableRecord
100
AcDbLayerTableRecord
  2
0
 70
     0
 62
     7
  6
CONTINUOUS
  0
ENDTAB
  0
TABLE
  2
STYLE
  5
10030
330
0
100
AcDbSymbolTable
 70
    13
  0
STYLE
  5
1003D
330
10030
100
AcDbSymbolTableRecord
100
AcDbTextStyleTableRecord
  2
STANDARD
 70
     0
 40
0.0
 41
1.0
 50
0.0
 71
     0
 42
0.2
  3
txt
  4

  0
STYLE
  5
100D0
330
10030
100
AcDbSymbolTableRecord
100
AcDbTextStyleTableRecord
  2
QCADDIMTEXTSTYLE
 70
     0
 40
0.0
 41
1.0
 50
0.0
 71
     0
 42
0.2
  3

  4

  0
STYLE
  5
100DF
330
10030
100
AcDbSymbolTableRecord
100
AcDbTextStyleTableRecord
  2
TEXTSTYLE0
 70
     0
 40
0.0
 41
1.0
 50
0.0
 71
     0
 42
0.2
  3
ltypeshp.shx
  4

  0
STYLE
  5
100E0
330
10030
100
AcDbSymbolTableRecord
100
AcDbTextStyleTableRecord
  2
TEXTSTYLE1
 70
     0
 40
0.0
 41
1.0
 50
0.0
 71
     0
 42
0.2
  3
ltypeshp.shx
  4

  0
STYLE
  5
100E4
330
10030
100
AcDbSymbolTableRecord
100
AcDbTextStyleTableRecord
  2
TEXTSTYLE2
 70
     0
 40
0.0
 41
1.0
 50
0.0
 71
     0
 42
0.2
  3
ltypeshp.shx
  4

  0
STYLE
  5
100E6
330
10030
100
AcDbSymbolTableRecord
100
AcDbTextStyleTableRecord
  2
TEXTSTYLE3
 70
     0
 40
0.0
 41
1.0
 50
0.0
 71
     0
 42
0.2
  3
qcadshp.shx
  4

  0
STYLE
  5
100E8
330
10030
100
AcDbSymbolTableRecord
100
AcDbTextStyleTableRecord
  2
TEXTSTYLE4
 70
     0
 40
0.0
 41
1.0
 50
0.0
 71
     0
 42
0.2
  3
qcadshp.shx
  4

  0
STYLE
  5
100ED
330
10030
100
AcDbSymbolTableRecord
100
AcDbTextStyleTableRecord
  2
TEXTSTYLE5
 70
     0
 40
0.0
 41
1.0
 50
0.0
 71
     0
 42
0.2
  3
STANDARD
  4

  0
STYLE
  5
100EF
330
10030
100
AcDbSymbolTableRecord
100
AcDbTextStyleTableRecord
  2
TEXTSTYLE6
 70
     0
 40
0.0
 41
1.0
 50
0.0
 71
     0
 42
0.2
  3
ltypeshp.shx
  4

  0
STYLE
  5
100FB
330
10030
100
AcDbSymbolTableRecord
100
AcDbTextStyleTableRecord
  2
TEXTSTYLE7
 70
     0
 40
0.0
 41
1.0
 50
0.0
 71
     0
 42
0.2
  3
STANDARD
  4

  0
STYLE
  5
100FE
330
10030
100
AcDbSymbolTableRecord
100
AcDbTextStyleTableRecord
  2
TEXTSTYLE8
 70
     0
 40
0.0
 41
1.0
 50
0.0
 71
     0
 42
0.2
  3
ltypeshp.shx
  4

  0
STYLE
  5
100FF
330
10030
100
AcDbSymbolTableRecord
100
AcDbTextStyleTableRecord
  2
TEXTSTYLE9
 70
     0
 40
0.0
 41
1.0
 50
0.0
 71
     0
 42
0.2
  3
ltypeshp.shx
  4

  0
STYLE
  5
10101
330
10030
100
AcDbSymbolTableRecord
100
AcDbTextStyleTableRecord
  2
TEXTSTYLE10
 70
     0
 40
0.0
 41
1.0
 50
0.0
 71
     0
 42
0.2
  3
ltypeshp.shx
  4

  0
ENDTAB
  0
TABLE
  2
VIEW
  5
10032
330
0
100
AcDbSymbolTable
 70
     0
  0
ENDTAB
  0
TABLE
  2
UCS
  5
10033
330
0
100
AcDbSymbolTable
 70
     0
  0
ENDTAB
  0
TABLE
  2
APPID
  5
10035
330
0
100
AcDbSymbolTable
 70
     3
  0
APPID
  5
1003E
330
10035
100
AcDbSymbolTableRecord
100
AcDbRegAppTableRecord
  2
ACAD
 70
     0
  0
APPID
  5
10099
330
10035
100
AcDbSymbolTableRecord
100
AcDbRegAppTableRecord
  2
QCAD
 70
     0
  0
APPID
  5
10141
330
10035
100
AcDbSymbolTableRecord
100
AcDbRegAppTableRecord
  2
ACAD_MLEADERVER
 70
     0
  0
ENDTAB
  0
TABLE
  2
DIMSTYLE
  5
10036
330
0
100
AcDbSymbolTable
 70
     2
  0
DIMSTYLE
105
10052
330
10036
100
AcDbSymbolTableRecord
100
AcDbDimStyleTableRecord
  2
STANDARD
 70
     0
  3

  4

  5

  6

  7

 40
1.0
 41
0.18
 42
0.0625
 43
0.38
 44
0.18
 45
0.0
 46
0.0
 47
0.0
 48
0.0
140
0.18
141
0.09
142
0.0
143
25.4
144
1.0
145
0.0
146
1.0
147
0.09
 71
     0
 72
     0
 73
     1
 74
     1
 75
     0
 76
     0
 77
     0
 78
     0
170
     0
171
     2
172
     0
173
     0
174
     0
175
     0
176
     0
177
     0
178
     0
270
     2
271
     4
272
     4
273
     2
274
     2
340
1003D
275
     0
280
     0
281
     0
282
     0
283
     1
284
     0
285
     0
286
     0
287
     3
288
     0
  0
DIMSTYLE
105
100D1
330
10036
100
AcDbSymbolTableRecord
100
AcDbDimStyleTableRecord
  2
QCADDIMSTYLE
 70
     0
  3

  4

  5

  6

  7

 40
1.0
 41
0.18
 42
0.0625
 43
0.38
 44
0.18
 45
0.0
 46
0.0
 47
0.0
 48
0.0
140
0.18
141
0.09
142
0.0
143
25.4
144
1.0
145
0.0
146
1.0
147
0.09
 71
     0
 72
     0
 73
     0
 74
     1
 75
     0
 76
     0
 77
     1
 78
     0
170
     0
171
     2
172
     0
173
     0
174
     0
175
     0
176
     0
177
     0
178
     0
270
     2
271
     4
272
     4
273
     2
274
     2
340
100D0
275
     0
280
     0
281
     0
282
     0
283
     1
284
     0
285
     0
286
     0
287
     3
288
     0
  0
ENDTAB
  0
TABLE
  2
BLOCK_RECORD
  5
1002E
330
0
100
AcDbSymbolTable
 70
     0
  0
BLOCK_RECORD
  5
1004A
330
1002E
100
AcDbSymbolTableRecord
100
AcDbBlockTableRecord
  2
*MODEL_SPACE
  0
BLOCK_RECORD
  5
10046
330
1002E
100
AcDbSymbolTableRecord
100
AcDbBlockTableRecord
  2
*PAPER_SPACE
  0
ENDTAB
  0
ENDSEC
  0
SECTION
  2
BLOCKS
  0
BLOCK
  5
1004B
330
1004A
100
AcDbEntity
  8
0
100
AcDbBlockBegin
  2
*MODEL_SPACE
 70
     0
 10
0.0
 20
0.0
 30
0.0
  3
*MODEL_SPACE
  1

  0
ENDBLK
  5
1004C
330
1004A
100
AcDbEntity
  8
0
100
AcDbBlockEnd
  0
BLOCK
  5
10047
330
10046
100
AcDbEntity
 67
     1
  8
0
100
AcDbBlockBegin
  2
*PAPER_SPACE
 70
     0
 10
0.0
 20
0.0
 30
0.0
  3
*PAPER_SPACE
  1

  0
ENDBLK
  5
10048
330
10046
100
AcDbEntity
 67
     1
  8
0
100
AcDbBlockEnd
  0
ENDSEC
  0
SECTION
  2
ENTITIES
  0
LWPOLYLINE
  5
100
330
1004A
100
AcDbEntity
  8
0
100
AcDbPolyline
 90
        8
 70
     1
 43
0.0
 10
-358.0010056025963
 20
98.29999500000004
 10
-2.999995535356305
 20
98.29999459592003
 42
-0.4146551931840113
 10
-0.0000066025962724
 20
95.30452500000001
 10
-0.0000000000000568
 20
2.995482090100083
 42
-0.4137728353731598
 10
-2.999996602596184
 20
-0.000003000000028
 10
-358.0010056036433
 20
-0.0000029999999427
 42
-0.4142135622708752
 10
-361.0010056025963
 20
2.999997000000143
 10
-361.0010056025963
 20
95.2999949952881
 42
-0.4142135628331297
  0
LWPOLYLINE
  5
101
330
1004A
100
AcDbEntity
  8
0
100
AcDbPolyline
 90
        8
 70
     1
 43
0.0
 10
-352.1788816025962
 20
3.787496000000104
 42
-0.4142135623730951
 10
-353.3788816025962
 20
4.987496000000128
 10
-353.3788816025963
 20
5.587496000000023
 42
-0.4142135623730951
 10
-352.1788816025962
 20
6.787496000000068
 10
-344.5788816025962
 20
6.78749599999999
 42
-0.4142135623730951
 10
-343.3788816025963
 20
5.587496000000002
 10
-343.3788816025963
 20
4.987496000000121
 42
-0.4142135623730951
 10
-344.5788816025962
 20
3.787496000000061
  0
LWPOLYLINE
  5
102
330
1004A
100
AcDbEntity
  8
0
100
AcDbPolyline
 90
       16
 70
     1
 43
0.0
 10
-346.1010066025963
 20
29.57499600000019
 42
-0.4142135623730951
 10
-345.6010066025963
 20
29.07499600000022
 10
-345.6010066025963
 20
28.07499599999983
 42
0.4142135623730951
 10
-345.1010066025963
 20
27.57499600000005
 10
-330.2250066025962
 20
27.57499599999989
 42
0.4142135623730951
 10
-329.7250066025962
 20
28.07499599999993
 10
-329.7250066025962
 20
29.07499600000009
 42
-0.4142135623730951
 10
-329.2250066025962
 20
29.57499600000008
 10
-321.6380066025962
 20
29.57499600000013
 42
-0.4142135623730951
 10
-321.1380066025962
 20
29.07499600000008
 10
-321.1380066025962
 20
14.07499600000003
 42
-0.4142135623730951
 10
-321.6380066025962
 20
13.57499600000001
 10
-353.6880066025963
 20
13.57499599999998
 42
-0.4142135623730964
 10
-354.1880066025963
 20
14.07499600000004
 10
-354.1880066025963
 20
29.07499600000009
 42
-0.4142135623730951
 10
-353.6880066025963
 20
29.57499599999975
  0
LWPOLYLINE
  5
103
330
1004A
100
AcDbEntity
  8
0
100
AcDbPolyline
 90
        8
 70
     1
 43
0.0
 10
-310.8255066025962
 20
8.81249600000011
 42
-0.4142135623730951
 10
-311.3255066025962
 20
9.312496000000003
 10
-311.3255066025962
 20
22.31249600000006
 42
-0.4142135623730951
 10
-310.8255066025962
 20
22.81249600000008
 10
-297.8255066025962
 20
22.81249600000001
 42
-0.4142135623730951
 10
-297.3255066025962
 20
22.31249600000005
 10
-297.3255066025962
 20
9.312496000000053
 42
-0.4142135623730951
 10
-297.8255066025962
 20
8.81249600000006
  0
LWPOLYLINE
  5
104
330
1004A
100
AcDbEntity
  8
0
100
AcDbPolyline
 90
        8
 70
     1
 43
0.0
 10
-291.7755066025962
 20
8.812496000000039
 42
-0.4142135623730951
 10
-292.2755066025962
 20
9.312496000000039
 10
-292.2755066025962
 20
22.31249599999998
 42
-0.4142135623730951
 10
-291.7755066025962
 20
22.81249600000006
 10
-278.7755066025962
 20
22.81249600000001
 42
-0.4142135623730951
 10
-278.2755066025962
 20
22.3124960000001
 10
-278.2755066025962
 20
9.312496000000039
 42
-0.4142135623730951
 10
-278.7755066025962
 20
8.81249600000006
  0
LWPOLYLINE
  5
105
330
1004A
100
AcDbEntity
  8
0
100
AcDbPolyline
 90
        8
 70
     1
 43
0.0
 10
-214.2995066025962
 20
3.787496000000061
 42
-0.4142135623730951
 10
-215.4995066025962
 20
4.987496000000036
 10
-215.4995066025962
 20
5.587496000000066
 42
-0.4142135623730951
 10
-214.2995066025962
 20
6.787496000000083
 10
-196.6995066025962
 20
6.787496000000104
 42
-0.4142135623730951
 10
-195.4995066025962
 20
5.587496000000073
 10
-195.4995066025962
 20
4.98749600000005
 42
-0.4142135623730951
 10
-196.6995066025962
 20
3.787496000000047
  0
LWPOLYLINE
  5
106
330
1004A
100
AcDbEntity
  8
0
100
AcDbPolyline
 90
        8
 70
     1
 43
0.0
 10
-273.2255066025962
 20
22.312496
 42
-0.4142135623730951
 10
-272.7255066025963
 20
22.8124960000001
 10
-259.7255066025962
 20
22.8124960000001
 42
-0.4142135623730951
 10
-259.2255066025962
 20
22.31249600000008
 10
-259.2255066025962
 20
9.312496000000053
 42
-0.4142135623730951
 10
-259.7255066025962
 20
8.812496000000017
 10
-272.7255066025963
 20
8.812496000000031
 42
-0.4142135623730951
 10
-273.2255066025963
 20
9.312496000000102
  0
LWPOLYLINE
  5
107
330
1004A
100
AcDbEntity
  8
0
100
AcDbPolyline
 90
        8
 70
     1
 43
0.0
 10
-235.4130066025963
 20
14.07499600000008
 42
-0.4142135623730951
 10
-235.9130066025962
 20
13.57499600000005
 10
-248.9130066025962
 20
13.57499600000005
 42
-0.4142135623730951
 10
-249.4130066025963
 20
14.07499600000006
 10
-249.4130066025962
 20
27.07499600000008
 42
-0.4142135623730951
 10
-248.9130066025962
 20
27.57499600000004
 10
-235.9130066025963
 20
27.57499600000006
 42
-0.4142135623730951
 10
-235.4130066025963
 20
27.07499600000008
  0
LWPOLYLINE
  5
108
330
1004A
100
AcDbEntity
  8
0
100
AcDbPolyline
 90
        8
 70
     1
 43
0.0
 10
-211.6005066025962
 20
14.07499600000006
 42
-0.4142135623730951
 10
-212.1005066025962
 20
13.57499600000006
 10
-225.1005066025963
 20
13.57499600000007
 42
-0.4142135623730951
 10
-225.6005066025963
 20
14.07499600000006
 10
-225.6005066025963
 20
27.07499600000007
 42
-0.4142135623730951
 10
-225.1005066025963
 20
27.57499600000008
 10
-212.1005066025962
 20
27.57499600000007
 42
-0.4142135623730951
 10
-211.6005066025962
 20
27.07499600000008
  0
LWPOLYLINE
  5
109
330
1004A
100
AcDbEntity
  8
0
100
AcDbPolyline
 90
       16
 70
     1
 43
0.0
 10
-201.7880066025962
 20
27.07499600000007
 42
-0.4142135623730951
 10
-201.2880066025963
 20
27.57499600000007
 10
-199.2880066025962
 20
27.57499600000006
 42
0.4142135623730951
 10
-198.7880066025962
 20
28.07499600000007
 10
-198.7880066025963
 20
29.07499600000007
 42
-0.4142135623730951
 10
-198.2880066025963
 20
29.57499600000007
 10
-191.2880066025962
 20
29.57499600000007
 42
-0.4142135623730951
 10
-190.7880066025962
 20
29.07499600000007
 10
-190.7880066025963
 20
28.07499600000007
 42
0.4142135623730951
 10
-190.2880066025963
 20
27.57499600000007
 10
-188.2880066025963
 20
27.57499600000007
 42
-0.4142135623730951
 10
-187.7880066025963
 20
27.07499600000007
 10
-187.7880066025963
 20
14.07499600000006
 42
-0.4142135623730951
 10
-188.2880066025963
 20
13.57499600000004
 10
-201.2880066025963
 20
13.57499600000003
 42
-0.4142135623730951
 10
-201.7880066025963
 20
14.07499600000006
  0
LWPOLYLINE
  5
110
330
1004A
100
AcDbEntity
  8
0
100
AcDbPolyline
 90
        8
 70
     1
 43
0.0
 10
-292.2755066025962
 20
41.36249600000015
 42
-0.4142135623730951
 10
-291.7755066025962
 20
41.86249599999985
 10
-278.7755066025962
 20
41.86249600000006
 42
-0.4142135623730951
 10
-278.2755066025962
 20
41.36249600000018
 10
-278.2755066025962
 20
28.36249600000013
 42
-0.4142135623730951
 10
-278.7755066025962
 20
27.86249600000008
 10
-291.7755066025962
 20
27.86249600000003
 42
-0.4142135623730951
 10
-292.2755066025962
 20
28.36249600000001
  0
LWPOLYLINE
  5
111
330
1004A
100
AcDbEntity
  8
0
100
AcDbPolyline
 90
        8
 70
     1
 43
0.0
 10
-353.6880066025963
 20
32.6249959999999
 42
-0.4142135623730951
 10
-354.1880066025963
 20
33.12499600000018
 10
-354.1880066025963
 20
46.12499600000095
 42
-0.4142135623730951
 10
-353.6880066025963
 20
46.62499600000003
 10
-340.6880066025963
 20
46.6249959999999
 42
-0.4142135623730951
 10
-340.1880066025963
 20
46.12499600000024
 10
-340.1880066025963
 20
33.12499599999993
 42
-0.4142135623730951
 10
-340.6880066025963
 20
32.62499600000027
  0
LWPOLYLINE
  5
112
330
1004A
100
AcDbEntity
  8
0
100
AcDbPolyline
 90
        8
 70
     1
 43
0.0
 10
-334.6380066025962
 20
32.62499600000011
 42
-0.4142135623730951
 10
-335.1380066025962
 20
33.12499600000017
 10
-335.1380066025962
 20
46.12499600000063
 42
-0.4142135623730951
 10
-334.6380066025962
 20
46.62499599999961
 10
-321.6380066025962
 20
46.62499599999946
 42
-0.4142135623730951
 10
-321.1380066025962
 20
46.12499599999951
 10
-321.1380066025962
 20
33.12499600000002
 42
-0.4142135623730951
 10
-321.6380066025962
 20
32.62499600000011
  0
LWPOLYLINE
  5
113
330
1004A
100
AcDbEntity
  8
0
100
AcDbPolyline
 90
        8
 70
     1
 43
0.0
 10
-315.5880066025962
 20
32.62499599999997
 42
-0.4142135623730951
 10
-316.0880066025962
 20
33.12499600000007
 10
-316.0880066025962
 20
46.12499600000057
 42
-0.4142135623730951
 10
-315.5880066025962
 20
46.62499599999956
 10
-302.5880066025962
 20
46.62499600000024
 42
-0.4142135623730951
 10
-302.0880066025962
 20
46.12499600000024
 10
-302.0880066025962
 20
33.12499599999991
 42
-0.4142135623730951
 10
-302.5880066025962
 20
32.62499599999995
  0
ARC
  5
114
330
1004A
100
AcDbEntity
  8
0
100
AcDbCircle
 10
-264.9947566025962
 20
33.124995
 30
0.0
 40
0.5000000000010071
100
AcDbArc
 50
179.9998854097085
 51
270.0
  0
LINE
  5
115
330
1004A
100
AcDbEntity
  8
0
100
AcDbLine
 10
-265.4947566025962
 20
33.12499600000002
 30
0.0
 11
-265.4947571023681
 21
48.12499599999954
 31
0.0
  0
ARC
  5
116
330
1004A
100
AcDbEntity
  8
0
100
AcDbCircle
 10
-264.9947576025962
 20
48.12499599999985
 30
0.0
 40
0.5000000000009982
100
AcDbArc
 50
89.99988540844127
 51
180.0
  0
LINE
  5
117
330
1004A
100
AcDbEntity
  8
0
100
AcDbLine
 10
-264.9947566025962
 20
48.62499600000019
 30
0.0
 11
-257.9947566025962
 21
48.6249964997731
 31
0.0
  0
ARC
  5
118
330
1004A
100
AcDbEntity
  8
0
100
AcDbCircle
 10
-257.9947566025962
 20
48.12499699999962
 30
0.0
 40
0.5000000000010071
100
AcDbArc
 50
359.9998854097084
 51
90.00000000000001
  0
LINE
  5
119
330
1004A
100
AcDbEntity
  8
0
100
AcDbLine
 10
-257.4947566025962
 20
48.12499600000062
 30
0.0
 11
-257.4947566025962
 21
47.12499600000007
 31
0.0
  0
ARC
  5
120
330
1004A
100
AcDbEntity
  8
0
100
AcDbCircle
 10
-256.9947566025962
 20
47.1249959999999
 30
0.0
 40
0.5000000000000071
100
AcDbArc
 50
180.0
 51
270.0
  0
LINE
  5
121
330
1004A
100
AcDbEntity
  8
0
100
AcDbLine
 10
-256.9947566025962
 20
46.62499600000007
 30
0.0
 11
-242.1187566025962
 21
46.62499600000016
 31
0.0
  0
ARC
  5
122
330
1004A
100
AcDbEntity
  8
0
100
AcDbCircle
 10
-242.1187566025962
 20
47.12499599999974
 30
0.0
 40
0.4999999999999982
100
AcDbArc
 50
270.0
 51
0.0
  0
LINE
  5
123
330
1004A
100
AcDbEntity
  8
0
100
AcDbLine
 10
-241.6187566025962
 20
47.12499600000005
 30
0.0
 11
-241.6187571023681
 21
48.12499600000019
 31
0.0
  0
ARC
  5
124
330
1004A
100
AcDbEntity
  8
0
100
AcDbCircle
 10
-241.1187576025962
 20
48.12499599999995
 30
0.0
 40
0.5000000000009982
100
AcDbArc
 50
89.99988540844127
 51
180.0
  0
LINE
  5
125
330
1004A
100
AcDbEntity
  8
0
100
AcDbLine
 10
-241.1187566025962
 20
48.62499600000059
 30
0.0
 11
-234.1187566025962
 21
48.62499649977198
 31
0.0
  0
ARC
  5
126
330
1004A
100
AcDbEntity
  8
0
100
AcDbCircle
 10
-234.1187566025962
 20
48.12499700000004
 30
0.0
 40
0.5000000000010071
100
AcDbArc
 50
359.9998854097084
 51
90.00000000000001
  0
LINE
  5
127
330
1004A
100
AcDbEntity
  8
0
100
AcDbLine
 10
-233.6187566025962
 20
48.12499599999985
 30
0.0
 11
-233.6187561028244
 21
33.12499600000004
 31
0.0
  0
ARC
  5
128
330
1004A
100
AcDbEntity
  8
0
100
AcDbCircle
 10
-234.1187556025963
 20
33.12499600000007
 30
0.0
 40
0.5000000000009982
100
AcDbArc
 50
269.9998854084413
 51
0.0
  0
LINE
  5
129
330
1004A
100
AcDbEntity
  8
0
100
AcDbLine
 10
-234.1187566025962
 20
32.62499600000007
 30
0.0
 11
-264.9947566025962
 21
32.62499499999905
 31
0.0
  0
LWPOLYLINE
  5
130
330
1004A
100
AcDbEntity
  8
0
100
AcDbPolyline
 90
        8
 70
     1
 43
0.0
 10
-211.6005066025962
 20
33.12499600000005
 42
-0.4142135623730951
 10
-212.1005066025962
 20
32.62499600000007
 10
-225.1005066025963
 20
32.62499600000003
 42
-0.4142135623730951
 10
-225.6005066025963
 20
33.12499600000005
 10
-225.6005066025963
 20
46.12499600000009
 42
-0.4142135623730951
 10
-225.1005066025963
 20
46.62499600000002
 10
-212.1005066025962
 20
46.62499600000012
 42
-0.4142135623730951
 10
-211.6005066025962
 20
46.12499600000005
  0
LWPOLYLINE
  5
131
330
1004A
100
AcDbEntity
  8
0
100
AcDbPolyline
 90
        8
 70
     1
 43
0.0
 10
-192.5505066025962
 20
33.12499600000005
 42
-0.4142135623730951
 10
-193.0505066025962
 20
32.62499600000007
 10
-206.0505066025962
 20
32.62499600000005
 42
-0.4142135623730951
 10
-206.5505066025962
 20
33.12499600000005
 10
-206.5505066025962
 20
46.12499600000007
 42
-0.4142135623730951
 10
-206.0505066025962
 20
46.62499600000007
 10
-193.0505066025962
 20
46.62499600000007
 42
-0.4142135623730951
 10
-192.5505066025962
 20
46.12499600000006
  0
LWPOLYLINE
  5
132
330
1004A
100
AcDbEntity
  8
0
100
AcDbPolyline
 90
        8
 70
     1
 43
0.0
 10
-173.5005066025963
 20
33.12499600000005
 42
-0.4142135623730951
 10
-174.0005066025963
 20
32.62499600000007
 10
-187.0005066025963
 20
32.62499600000005
 42
-0.4142135623730951
 10
-187.5005066025963
 20
33.12499600000005
 10
-187.5005066025963
 20
46.12499600000007
 42
-0.4142135623730951
 10
-187.0005066025963
 20
46.62499600000007
 10
-174.0005066025963
 20
46.62499600000007
 42
-0.4142135623730951
 10
-173.5005066025963
 20
46.12499600000007
  0
LWPOLYLINE
  5
133
330
1004A
100
AcDbEntity
  8
0
100
AcDbPolyline
 90
        8
 70
     1
 43
0.0
 10
-164.2995066025962
 20
3.787496000000047
 42
-0.4142135623730951
 10
-165.4995066025962
 20
4.987496000000064
 10
-165.4995066025962
 20
5.58749600000008
 42
-0.4142135623730951
 10
-164.2995066025962
 20
6.787496000000083
 10
-146.6995066025962
 20
6.787496000000111
 42
-0.4142135623730951
 10
-145.4995066025962
 20
5.587496000000073
 10
-145.4995066025962
 20
4.987496000000057
 42
-0.4142135623730951
 10
-146.6995066025962
 20
3.787496000000075
  0
LWPOLYLINE
  5
134
330
1004A
100
AcDbEntity
  8
0
100
AcDbPolyline
 90
       16
 70
     1
 43
0.0
 10
-179.7697566025963
 20
29.07499600000007
 42
-0.4142135623730951
 10
-179.2697566025962
 20
29.57499600000007
 10
-172.2697566025963
 20
29.57499600000007
 42
-0.4142135623730951
 10
-171.7697566025962
 20
29.07499600000007
 10
-171.7697566025962
 20
28.07499600000007
 42
0.4142135623730951
 10
-171.2697566025963
 20
27.57499600000007
 10
-156.3937566025962
 20
27.57499600000007
 42
0.4142135623730951
 10
-155.8937566025962
 20
28.07499600000006
 10
-155.8937566025963
 20
29.07499600000009
 42
-0.4142135623730951
 10
-155.3937566025963
 20
29.57499600000007
 10
-148.3937566025963
 20
29.57499600000007
 42
-0.4142135623730951
 10
-147.8937566025963
 20
29.07499600000007
 10
-147.8937566025962
 20
14.0749960000001
 42
-0.4142135623730951
 10
-148.3937566025963
 20
13.57499600000006
 10
-179.2697566025962
 20
13.57499600000007
 42
-0.4142135623730951
 10
-179.7697566025963
 20
14.07499600000007
  0
LWPOLYLINE
  5
135
330
1004A
100
AcDbEntity
  8
0
100
AcDbPolyline
 90
       20
 70
     1
 43
0.0
 10
-144.6380066025962
 20
27.07499600000008
 42
-0.4142135623730951
 10
-144.1380066025962
 20
27.57499600000008
 10
-132.6447566025963
 20
27.57499600000008
 42
0.4142135623730951
 10
-132.1447566025963
 20
28.07499600000008
 10
-132.1447566025963
 20
29.07499600000005
 42
-0.4142135623730951
 10
-131.6447566025963
 20
29.5749960000001
 10
-124.6447566025963
 20
29.57499600000009
 42
-0.4142135623730951
 10
-124.1447566025963
 20
29.07499600000008
 10
-124.1447566025963
 20
28.07499600000007
 42
0.4142135623730951
 10
-123.6447566025962
 20
27.57499600000011
 10
-108.7687566025962
 20
27.57499600000008
 42
0.4142135623730951
 10
-108.2687566025962
 20
28.07499600000007
 10
-108.2687566025963
 20
29.07499600000004
 42
-0.4142135623730951
 10
-107.7687566025963
 20
29.57499600000013
 10
-100.7687566025962
 20
29.57499600000004
 42
-0.4142135623730951
 10
-100.2687566025962
 20
29.07499600000002
 10
-100.2687566025962
 20
14.07499600000008
 42
-0.4142135623730951
 10
-100.7687566025962
 20
13.57499600000006
 10
-144.1380066025962
 20
13.57499600000003
 42
-0.4142135623730951
 10
-144.6380066025962
 20
14.07499600000008
  0
LWPOLYLINE
  5
136
330
1004A
100
AcDbEntity
  8
0
100
AcDbPolyline
 90
        8
 70
     1
 43
0.0
 10
-7.622006602596201
 20
4.987496000000128
 10
-7.62200660259623
 20
5.587496000000009
 42
0.4142135623730951
 10
-8.822006602596275
 20
6.787496000000189
 10
-16.42200660259624
 20
6.787496000000004
 42
0.4142135623730951
 10
-17.6220066025962
 20
5.587496000000101
 10
-17.62200660259623
 20
4.987496000000185
 42
0.4142135623730951
 10
-16.42200660259621
 20
3.787496000000154
 10
-8.822006602596275
 20
3.787495999999983
 42
0.4142135623730951
  0
LWPOLYLINE
  5
137
330
1004A
100
AcDbEntity
  8
0
100
AcDbPolyline
 90
        8
 70
     1
 43
0.0
 10
-63.67550660259627
 20
27.07499600000004
 42
-0.4142135623730951
 10
-63.17550660259627
 20
27.5749960000001
 10
-50.17550660259627
 20
27.57499600000022
 42
-0.4142135623730951
 10
-49.67550660259622
 20
27.07499600000031
 10
-49.67550660259622
 20
14.07499600000001
 42
-0.4142135623730951
 10
-50.17550660259627
 20
13.57499599999998
 10
-63.17550660259626
 20
13.57499600000002
 42
-0.4142135623730951
 10
-63.67550660259627
 20
14.07499600000008
  0
LWPOLYLINE
  5
138
330
1004A
100
AcDbEntity
  8
0
100
AcDbPolyline
 90
       24
 70
     1
 43
0.0
 10
-84.98800660259622
 20
27.57499600000002
 10
-86.98800660259627
 20
27.57499600000004
 42
0.4142135623730951
 10
-87.48800660259622
 20
27.0749960000001
 10
-87.4880066025962
 20
24.5749959996601
 42
-0.4142135621739256
 10
-87.98800660259626
 20
24.07499600000003
 10
-94.89425660259627
 20
24.07499600000009
 42
0.4142135623730951
 10
-95.39425660259627
 20
23.5749960000001
 10
-95.39425660259627
 20
17.57499600000003
 42
0.4142135623730951
 10
-94.89425660259626
 20
17.07499600000008
 10
-87.98800660294626
 20
17.07499600000007
 42
-0.4142135625781073
 10
-87.4880066025962
 20
16.57499600000008
 10
-87.48800660259627
 20
14.07499600000011
 42
0.4142135623730951
 10
-86.98800660259626
 20
13.57499600000005
 10
-73.98800660259627
 20
13.57499600000007
 42
0.4142135623730951
 10
-73.48800660259627
 20
14.07499600000005
 10
-73.48800660259627
 20
27.07499600000008
 42
0.4142135623730951
 10
-73.98800660259626
 20
27.57499600000007
 10
-75.98800660259627
 20
27.57499600000006
 42
-0.4142135623730951
 10
-76.48800660259627
 20
28.074996
 10
-76.48800660259627
 20
29.0749960000001
 42
0.4142135623730951
 10
-76.98800660259626
 20
29.57499600000011
 10
-83.98800660259627
 20
29.5749960000001
 42
0.4142135623730951
 10
-84.48800660259627
 20
29.0749960000001
 10
-84.48800660259622
 20
28.07499599999999
 42
-0.4142135623730951
  0
LWPOLYLINE
  5
139
330
1004A
100
AcDbEntity
  8
0
100
AcDbPolyline
 90
        8
 70
     1
 43
0.0
 10
-26.36300660259627
 20
27.57499599999993
 42
-0.4142135623730951
 10
-25.86300660259633
 20
27.07499599999992
 10
-25.8630066025963
 20
14.07499600000013
 42
-0.4142135623730951
 10
-26.36300660259627
 20
13.57499600000001
 10
-39.36300660259622
 20
13.57499600000008
 42
-0.4142135623730951
 10
-39.86300660259622
 20
14.07499600000018
 10
-39.86300660259622
 20
27.07499599999996
 42
-0.4142135623730951
 10
-39.36300660259622
 20
27.57499600000007
  0
LWPOLYLINE
  5
140
330
1004A
100
AcDbEntity
  8
0
100
AcDbPolyline
 90
        8
 70
     1
 43
0.0
 10
-20.31300660259626
 20
13.57499600000015
 42
-0.4142135623730951
 10
-20.8130066025962
 20
14.07499600000003
 10
-20.8130066025962
 20
27.07499600000014
 42
-0.4142135623730951
 10
-20.31300660259626
 20
27.57499600000012
 10
-7.313006602596261
 20
27.57499600000012
 42
-0.4142135623730951
 10
-6.813006602596261
 20
27.07499599999994
 10
-6.813006602596261
 20
14.07499599999993
 42
-0.4142135623730951
 10
-7.313006602596261
 20
13.57499600000001
  0
LWPOLYLINE
  5
141
330
1004A
100
AcDbEntity
  8
0
100
AcDbPolyline
 90
        8
 70
     1
 43
0.0
 10
-167.9505066025962
 20
32.62499600000005
 42
-0.4142135623730951
 10
-168.4505066025962
 20
33.12499600000005
 10
-168.4505066025962
 20
46.12499600000007
 42
-0.4142135623730951
 10
-167.9505066025962
 20
46.62499600000005
 10
-154.9505066025962
 20
46.62499600000004
 42
-0.4142135623730951
 10
-154.4505066025962
 20
46.12499600000012
 10
-154.4505066025962
 20
33.12499600000007
 42
-0.4142135623730951
 10
-154.9505066025962
 20
32.62499600000008
  0
LWPOLYLINE
  5
142
330
1004A
100
AcDbEntity
  8
0
100
AcDbPolyline
 90
        8
 70
     1
 43
0.0
 10
-149.4005066025962
 20
46.1249960000001
 42
-0.4142135623730951
 10
-148.9005066025962
 20
46.62499600000009
 10
-135.9005066025962
 20
46.62499600000006
 42
-0.4142135623730951
 10
-135.4005066025962
 20
46.12499599999997
 10
-135.4005066025962
 20
33.12499600000004
 42
-0.4142135623730951
 10
-135.9005066025962
 20
32.62499600000005
 10
-148.9005066025962
 20
32.62499600000005
 42
-0.4142135623730951
 10
-149.4005066025962
 20
33.12499600000007
  0
LWPOLYLINE
  5
143
330
1004A
100
AcDbEntity
  8
0
100
AcDbPolyline
 90
        8
 70
     1
 43
0.0
 10
-116.3505066025963
 20
33.12499600000013
 42
-0.4142135623730951
 10
-116.8505066025963
 20
32.62499600000013
 10
-129.8505066025962
 20
32.62499600000004
 42
-0.4142135623730951
 10
-130.3505066025962
 20
33.12499600000005
 10
-130.3505066025962
 20
46.12499600000011
 42
-0.4142135623730951
 10
-129.8505066025962
 20
46.6249960000001
 10
-116.8505066025963
 20
46.62499600000011
 42
-0.4142135623730951
 10
-116.3505066025963
 20
46.1249960000001
  0
LWPOLYLINE
  5
144
330
1004A
100
AcDbEntity
  8
0
100
AcDbPolyline
 90
        8
 70
     1
 43
0.0
 10
-97.30050660259622
 20
33.12499600000012
 42
-0.4142135623730951
 10
-97.80050660259622
 20
32.6249960000001
 10
-110.8005066025962
 20
32.62499600000008
 42
-0.4142135623730951
 10
-111.3005066025962
 20
33.12499600000007
 10
-111.3005066025962
 20
46.12499600000005
 42
-0.4142135623730951
 10
-110.8005066025962
 20
46.62499600000003
 10
-97.80050660259622
 20
46.6249960000001
 42
-0.4142135623730951
 10
-97.30050660259622
 20
46.12499600000007
  0
LWPOLYLINE
  5
145
330
1004A
100
AcDbEntity
  8
0
100
AcDbPolyline
 90
        8
 70
     1
 43
0.0
 10
-78.2505066025962
 20
33.1249960000001
 42
-0.4142135623730951
 10
-78.75050660259626
 20
32.62499600000003
 10
-91.75050660259626
 20
32.6249960000001
 42
-0.4142135623730951
 10
-92.25050660259626
 20
33.12499600000015
 10
-92.25050660259626
 20
46.12499600000017
 42
-0.4142135623730951
 10
-91.75050660259626
 20
46.62499600000032
 10
-78.75050660259626
 20
46.62499600000029
 42
-0.4142135623730951
 10
-78.2505066025962
 20
46.12499600000046
  0
LWPOLYLINE
  5
146
330
1004A
100
AcDbEntity
  8
0
100
AcDbPolyline
 90
        8
 70
     1
 43
0.0
 10
-72.70050660259625
 20
32.62499599999998
 42
-0.4142135623730951
 10
-73.20050660259625
 20
33.12499600000017
 10
-73.20050660259625
 20
46.12499600000014
 42
-0.4142135623730951
 10
-72.70050660259625
 20
46.62499599999974
 10
-59.70050660259619
 20
46.62499599999995
 42
-0.4142135623730951
 10
-59.20050660259619
 20
46.12499600000026
 10
-59.20050660259619
 20
33.124996
 42
-0.4142135623730951
 10
-59.70050660259619
 20
32.62499600000014
  0
LWPOLYLINE
  5
147
330
1004A
100
AcDbEntity
  8
0
100
AcDbPolyline
 90
        8
 70
     1
 43
0.0
 10
-53.65050660259624
 20
32.62499600000012
 42
-0.4142135623730951
 10
-54.15050660259624
 20
33.12499599999998
 10
-54.15050660259624
 20
46.12499599999925
 42
-0.4142135623730951
 10
-53.65050660259624
 20
46.62499600000006
 10
-40.65050660259624
 20
46.62499600000008
 42
-0.4142135623730951
 10
-40.15050660259624
 20
46.12499600000089
 10
-40.15050660259624
 20
33.12499600000002
 42
-0.4142135623730951
 10
-40.65050660259624
 20
32.62499599999991
  0
LWPOLYLINE
  5
148
330
1004A
100
AcDbEntity
  8
0
100
AcDbPolyline
 90
        8
 70
     1
 43
0.0
 10
-33.55675660259618
 20
46.12499599999995
 10
-33.55675660259618
 20
33.12499599999989
 42
0.4142135623730951
 10
-33.05675660259624
 20
32.62499600000014
 10
-32.05675660259624
 20
32.62499599999994
 42
0.4142135623730951
 10
-31.55675660259624
 20
33.12499600000005
 10
-31.55675660259624
 20
46.12499600000041
 42
0.4142135623730951
 10
-32.05675660259624
 20
46.62499599999971
 10
-33.05675660259624
 20
46.62499599999992
 42
0.4142135623730951
  0
LWPOLYLINE
  5
149
330
1004A
100
AcDbEntity
  8
0
100
AcDbPolyline
 90
        8
 70
     1
 43
0.0
 10
-27.45675660259627
 20
32.62499600000017
 42
-0.4142135623730951
 10
-27.95675660259622
 20
33.12499599999981
 10
-27.95675660259622
 20
46.12499600000043
 42
-0.4142135623730951
 10
-27.45675660259627
 20
46.62499600000039
 10
-14.45675660259622
 20
46.62499600000027
 42
-0.4142135623730951
 10
-13.95675660259627
 20
46.12499599999932
 10
-13.95675660259627
 20
33.12499599999992
 42
-0.4142135623730951
 10
-14.45675660259622
 20
32.62499600000019
  0
LWPOLYLINE
  5
150
330
1004A
100
AcDbEntity
  8
0
100
AcDbPolyline
 90
        8
 70
     1
 43
0.0
 10
-340.1880066025963
 20
52.17499599999993
 42
-0.4142135623730951
 10
-340.6880066025963
 20
51.67499599999983
 10
-353.6880066025963
 20
51.6749959999992
 42
-0.4142135623730951
 10
-354.1880066025963
 20
52.17499599999873
 10
-354.1880066025963
 20
65.17499599999991
 42
-0.4142135623730951
 10
-353.6880066025963
 20
65.67499599999987
 10
-340.6880066025963
 20
65.67499599999991
 42
-0.4142135623730951
 10
-340.1880066025963
 20
65.174996
  0
LWPOLYLINE
  5
151
330
1004A
100
AcDbEntity
  8
0
100
AcDbPolyline
 90
        8
 70
     1
 43
0.0
 10
-334.6380066025962
 20
51.6749960000002
 42
-0.4142135623730951
 10
-335.1380066025962
 20
52.17499599999926
 10
-335.1380066025962
 20
65.17499600000028
 42
-0.4142135623730951
 10
-334.6380066025962
 20
65.674996
 10
-321.6380066025962
 20
65.67499600000001
 42
-0.4142135623730951
 10
-321.1380066025962
 20
65.1749959999998
 10
-321.1380066025962
 20
52.17499600000043
 42
-0.4142135623730951
 10
-321.6380066025962
 20
51.67499600000048
  0
LWPOLYLINE
  5
152
330
1004A
100
AcDbEntity
  8
0
100
AcDbPolyline
 90
        8
 70
     1
 43
0.0
 10
-316.0880066025962
 20
65.17499599999985
 42
-0.4142135623730951
 10
-315.5880066025962
 20
65.67499600000008
 10
-302.5880066025962
 20
65.67499600000005
 42
-0.4142135623730951
 10
-302.0880066025962
 20
65.17499600000014
 10
-302.0880066025962
 20
52.17499600000046
 42
-0.4142135623730951
 10
-302.5880066025962
 20
51.67499599999892
 10
-315.5880066025962
 20
51.67499599999962
 42
-0.4142135623730951
 10
-316.0880066025962
 20
52.17499600000021
  0
LWPOLYLINE
  5
153
330
1004A
100
AcDbEntity
  8
0
100
AcDbPolyline
 90
        8
 70
     1
 43
0.0
 10
-292.2755066025962
 20
59.43699600000003
 10
-292.2755066025962
 20
53.14999599999989
 42
0.4142135623730951
 10
-288.2755066025962
 20
49.14999589402731
 10
-282.2755066025962
 20
49.14999750000002
 42
0.4142135623730951
 10
-278.2755066025962
 20
53.14999600000018
 10
-278.2755066025962
 20
59.43699600000005
 42
0.4142135623730951
 10
-282.2755066025962
 20
63.43699600000006
 10
-288.2755066025962
 20
63.43699600000012
 42
0.4142135623730951
  0
LWPOLYLINE
  5
154
330
1004A
100
AcDbEntity
  8
0
100
AcDbPolyline
 90
       32
 70
     1
 43
0.0
 10
-243.2192566025962
 20
51.67499600000014
 42
-0.4142135623730951
 10
-243.7192566025963
 20
52.17499600000011
 10
-243.7192566025963
 20
54.67499599999999
 42
0.4142135623730951
 10
-244.2192566025962
 20
55.17499600000006
 10
-246.8192566025963
 20
55.17499600000001
 42
0.4142135623730951
 10
-247.3192566025963
 20
54.67499600000008
 10
-247.3192566025963
 20
52.17499599999996
 42
-0.4142135623730951
 10
-247.8192566025962
 20
51.67499600000006
 10
-265.5817566025963
 20
51.6749960000003
 42
-0.4142135623730951
 10
-266.0817566025963
 20
52.17499599999969
 10
-266.0817566025962
 20
65.17499600000005
 42
-0.4142135623730951
 10
-265.5817566025963
 20
65.67499600000001
 10
-247.8192566025962
 20
65.67499600000008
 42
-0.4142135623730951
 10
-247.3192566025962
 20
65.1749960000001
 10
-247.3192566025963
 20
62.67499600000005
 42
0.4142135623730951
 10
-246.8192566025963
 20
62.17499600000005
 10
-244.2192566025962
 20
62.17499600000004
 42
0.4142135623730951
 10
-243.7192566025962
 20
62.67499600000001
 10
-243.7192566025962
 20
65.17499600000005
 42
-0.4142135623730951
 10
-243.2192566025962
 20
65.67499600000001
 10
-242.2192566025962
 20
65.67499600000006
 42
-0.4142135623730951
 10
-241.7192566025962
 20
65.17499600000008
 10
-241.7192566025962
 20
62.67499600000004
 42
0.4142135623730951
 10
-241.2192566025963
 20
62.17499599999999
 10
-238.7192566025963
 20
62.17499600000006
 42
-0.4142135623730951
 10
-238.2192566025962
 20
61.67499600000008
 10
-238.2192566025963
 20
55.67499600000005
 42
-0.4142135623730951
 10
-238.7192566025963
 20
55.17499600000001
 10
-241.2192566025963
 20
55.17499600000008
 42
0.4142135623730951
 10
-241.7192566025963
 20
54.67499599999999
 10
-241.7192566025962
 20
52.17499600000026
 42
-0.4142135623730951
 10
-242.2192566025962
 20
51.67499600000007
  0
LWPOLYLINE
  5
155
330
1004A
100
AcDbEntity
  8
0
100
AcDbPolyline
 90
        8
 70
     1
 43
0.0
 10
-221.6255066025963
 20
65.67499600000005
 42
-0.4142135623730951
 10
-221.1255066025962
 20
65.17499600000006
 10
-221.1255066025962
 20
52.17499600000009
 42
-0.4142135623730951
 10
-221.6255066025963
 20
51.67499600000006
 10
-234.6255066025962
 20
51.67499600000008
 42
-0.4142135623730951
 10
-235.1255066025963
 20
52.17499599999996
 10
-235.1255066025962
 20
65.17499600000004
 42
-0.4142135623730951
 10
-234.6255066025962
 20
65.67499600000006
  0
LWPOLYLINE
  5
156
330
1004A
100
AcDbEntity
  8
0
100
AcDbPolyline
 90
        8
 70
     1
 43
0.0
 10
-215.5755066025962
 20
51.67499600000005
 42
-0.4142135623730951
 10
-216.0755066025962
 20
52.17499600000004
 10
-216.0755066025962
 20
65.17499600000008
 42
-0.4142135623730951
 10
-215.5755066025962
 20
65.67499600000004
 10
-202.5755066025962
 20
65.67499600000008
 42
-0.4142135623730951
 10
-202.0755066025962
 20
65.17499600000004
 10
-202.0755066025962
 20
52.17499600000006
 42
-0.4142135623730951
 10
-202.5755066025962
 20
51.67499600000008
  0
LWPOLYLINE
  5
157
330
1004A
100
AcDbEntity
  8
0
100
AcDbPolyline
 90
        8
 70
     1
 43
0.0
 10
-197.0255066025962
 20
65.17499600000006
 42
-0.4142135623730951
 10
-196.5255066025962
 20
65.67499600000005
 10
-183.5255066025962
 20
65.67499600000006
 42
-0.4142135623730951
 10
-183.0255066025962
 20
65.17499600000006
 10
-183.0255066025962
 20
52.17499600000006
 42
-0.4142135623730951
 10
-183.5255066025962
 20
51.67499600000006
 10
-196.5255066025962
 20
51.67499600000004
 42
-0.4142135623730951
 10
-197.0255066025962
 20
52.17499600000004
  0
LWPOLYLINE
  5
158
330
1004A
100
AcDbEntity
  8
0
100
AcDbPolyline
 90
        8
 70
     1
 43
0.0
 10
-340.1880066025963
 20
71.2249960000001
 42
-0.4142135623730951
 10
-340.6880066025963
 20
70.72499599999996
 10
-353.6880066025963
 20
70.72499600000005
 42
-0.4142135623730951
 10
-354.1880066025963
 20
71.22499599999995
 10
-354.1880066025963
 20
84.22499600000017
 42
-0.4142135623730951
 10
-353.6880066025963
 20
84.72499600000006
 10
-340.6880066025963
 20
84.72499599999996
 42
-0.4142135623730951
 10
-340.1880066025963
 20
84.22499600000008
  0
LWPOLYLINE
  5
159
330
1004A
100
AcDbEntity
  8
0
100
AcDbPolyline
 90
        8
 70
     1
 43
0.0
 10
-335.1380066025962
 20
84.22499600000023
 42
-0.4142135623730951
 10
-334.6380066025962
 20
84.72499599999993
 10
-321.6380066025963
 20
84.72499599999995
 42
-0.4142135623730951
 10
-321.1380066025962
 20
84.22499600000009
 10
-321.1380066025962
 20
71.22499600000019
 42
-0.4142135623730951
 10
-321.6380066025962
 20
70.72499600000009
 10
-334.6380066025962
 20
70.72499599999999
 42
-0.4142135623730951
 10
-335.1380066025962
 20
71.2249960000001
  0
LWPOLYLINE
  5
160
330
1004A
100
AcDbEntity
  8
0
100
AcDbPolyline
 90
        8
 70
     1
 43
0.0
 10
-302.5880066025962
 20
84.72499600000009
 42
-0.4142135623730951
 10
-302.0880066025962
 20
84.22499600000006
 10
-302.0880066025962
 20
71.22499599999995
 42
-0.4142135623730951
 10
-302.5880066025962
 20
70.724996
 10
-315.5880066025962
 20
70.72499600000003
 42
-0.4142135623730951
 10
-316.0880066025962
 20
71.22499600000003
 10
-316.0880066025962
 20
84.2249960000001
 42
-0.4142135623730951
 10
-315.5880066025962
 20
84.72499600000003
  0
LWPOLYLINE
  5
161
330
1004A
100
AcDbEntity
  8
0
100
AcDbPolyline
 90
        8
 70
     1
 43
0.0
 10
-292.2755066025962
 20
84.22499600000003
 42
-0.4142135623730951
 10
-291.7755066025962
 20
84.72499599999998
 10
-278.7755066025962
 20
84.72499600000002
 42
-0.4142135623730951
 10
-278.2755066025962
 20
84.22499600000002
 10
-278.2755066025962
 20
71.22499600000005
 42
-0.4142135623730951
 10
-278.7755066025962
 20
70.72499599999995
 10
-291.7755066025962
 20
70.724996
 42
-0.4142135623730951
 10
-292.2755066025962
 20
71.22499600000008
  0
LWPOLYLINE
  5
162
330
1004A
100
AcDbEntity
  8
0
100
AcDbPolyline
 90
        8
 70
     1
 43
0.0
 10
-344.5788816025963
 20
94.512495
 42
-0.4142135623730951
 10
-343.3788816025963
 20
93.31249500000004
 10
-343.3788816025963
 20
92.71249499999999
 42
-0.4142135623730951
 10
-344.5788816025963
 20
91.51249500000003
 10
-352.1788816025962
 20
91.51249500000009
 42
-0.4142135623730951
 10
-353.3788816025963
 20
92.71249499999989
 10
-353.3788816025963
 20
93.31249500000003
 42
-0.4142135623730951
 10
-352.1788816025963
 20
94.51249500000003
  0
LWPOLYLINE
  5
163
330
1004A
100
AcDbEntity
  8
0
100
AcDbPolyline
 90
        8
 70
     1
 43
0.0
 10
-263.7005066025962
 20
84.22499600000003
 42
-0.4142135623730951
 10
-263.2005066025962
 20
84.724996
 10
-250.2005066025962
 20
84.72499600000008
 42
-0.4142135623730951
 10
-249.7005066025962
 20
84.224996
 10
-249.7005066025962
 20
71.22499600000002
 42
-0.4142135623730951
 10
-250.2005066025962
 20
70.72499600000006
 10
-263.2005066025962
 20
70.72499599999998
 42
-0.4142135623730951
 10
-263.7005066025962
 20
71.22499599999999
  0
LWPOLYLINE
  5
164
330
1004A
100
AcDbEntity
  8
0
100
AcDbPolyline
 90
        8
 70
     1
 43
0.0
 10
-244.6005066025962
 20
84.72499600000003
 10
-245.6005066025962
 20
84.72499600000006
 42
0.4142135623730951
 10
-246.1005066025963
 20
84.22499600000003
 10
-246.1005066025963
 20
71.22499600000002
 42
0.4142135623730951
 10
-245.6005066025963
 20
70.72499600000009
 10
-244.6005066025962
 20
70.72499600000008
 42
0.4142135623730951
 10
-244.1005066025963
 20
71.22499600000002
 10
-244.1005066025962
 20
84.22499600000003
 42
0.4142135623730951
  0
LWPOLYLINE
  5
165
330
1004A
100
AcDbEntity
  8
0
100
AcDbPolyline
 90
        8
 70
     1
 43
0.0
 10
-226.3880066025962
 20
84.72499600000008
 42
-0.4142135623730951
 10
-225.8880066025962
 20
84.22499600000006
 10
-225.8880066025962
 20
71.22499600000009
 42
-0.4142135623730951
 10
-226.3880066025962
 20
70.72499600000006
 10
-239.3880066025962
 20
70.72499600000006
 42
-0.4142135623730951
 10
-239.8880066025962
 20
71.22499600000008
 10
-239.8880066025962
 20
84.22499600000003
 42
-0.4142135623730951
 10
-239.3880066025962
 20
84.72499600000009
  0
LWPOLYLINE
  5
166
330
1004A
100
AcDbEntity
  8
0
100
AcDbPolyline
 90
        8
 70
     1
 43
0.0
 10
-206.8380066025962
 20
71.22499600000006
 42
-0.4142135623730951
 10
-207.3380066025962
 20
70.72499600000005
 10
-220.3380066025962
 20
70.72499600000009
 42
-0.4142135623730951
 10
-220.8380066025962
 20
71.22499600000006
 10
-220.8380066025962
 20
84.22499600000006
 42
-0.4142135623730951
 10
-220.3380066025962
 20
84.72499600000006
 10
-207.3380066025963
 20
84.72499600000006
 42
-0.4142135623730951
 10
-206.8380066025962
 20
84.22499600000006
  0
LWPOLYLINE
  5
167
330
1004A
100
AcDbEntity
  8
0
100
AcDbPolyline
 90
        8
 70
     1
 43
0.0
 10
-187.7880066025963
 20
71.22499600000006
 42
-0.4142135623730951
 10
-188.2880066025963
 20
70.72499600000006
 10
-201.2880066025963
 20
70.72499600000005
 42
-0.4142135623730951
 10
-201.7880066025963
 20
71.22499600000006
 10
-201.7880066025963
 20
84.22499600000006
 42
-0.4142135623730951
 10
-201.2880066025963
 20
84.72499600000005
 10
-188.2880066025963
 20
84.72499600000008
 42
-0.4142135623730951
 10
-187.7880066025963
 20
84.22499600000008
  0
LWPOLYLINE
  5
168
330
1004A
100
AcDbEntity
  8
0
100
AcDbPolyline
 90
        8
 70
     1
 43
0.0
 10
-195.5005066025962
 20
92.71249500000008
 42
-0.4142135623730951
 10
-196.7005066025962
 20
91.51249500000006
 10
-214.3005066025962
 20
91.51249500000009
 42
-0.4142135623730951
 10
-215.5005066025963
 20
92.71249500000003
 10
-215.5005066025962
 20
93.31249500000007
 42
-0.4142135623730951
 10
-214.3005066025962
 20
94.51249500000007
 10
-196.7005066025962
 20
94.51249500000009
 42
-0.4142135623730951
 10
-195.5005066025962
 20
93.31249500000007
  0
LWPOLYLINE
  5
169
330
1004A
100
AcDbEntity
  8
0
100
AcDbPolyline
 90
        8
 70
     1
 43
0.0
 10
-177.4755066025963
 20
51.67499600000006
 42
-0.4142135623730951
 10
-177.9755066025963
 20
52.17499600000006
 10
-177.9755066025963
 20
65.17499600000006
 42
-0.4142135623730951
 10
-177.4755066025963
 20
65.67499600000006
 10
-164.4755066025963
 20
65.67499600000008
 42
-0.4142135623730951
 10
-163.9755066025962
 20
65.17499600000006
 10
-163.9755066025962
 20
52.17499600000006
 42
-0.4142135623730951
 10
-164.4755066025963
 20
51.67499600000008
  0
LWPOLYLINE
  5
170
330
1004A
100
AcDbEntity
  8
0
100
AcDbPolyline
 90
        8
 70
     1
 43
0.0
 10
-158.9255066025962
 20
65.17499600000008
 42
-0.4142135623730951
 10
-158.4255066025962
 20
65.67499600000008
 10
-145.4255066025962
 20
65.67499600000008
 42
-0.4142135623730951
 10
-144.9255066025962
 20
65.17499600000006
 10
-144.9255066025962
 20
52.17499600000016
 42
-0.4142135623730951
 10
-145.4255066025962
 20
51.67499600000003
 10
-158.4255066025962
 20
51.67499600000003
 42
-0.4142135623730951
 10
-158.9255066025962
 20
52.17499600000009
  0
LWPOLYLINE
  5
171
330
1004A
100
AcDbEntity
  8
0
100
AcDbPolyline
 90
        8
 70
     1
 43
0.0
 10
-139.3755066025962
 20
51.67499600000008
 42
-0.4142135623730951
 10
-139.8755066025962
 20
52.174996
 10
-139.8755066025963
 20
65.1749960000001
 42
-0.4142135623730951
 10
-139.3755066025962
 20
65.67499600000006
 10
-126.3755066025963
 20
65.67499600000005
 42
-0.4142135623730951
 10
-125.8755066025963
 20
65.17499600000008
 10
-125.8755066025963
 20
52.17499600000008
 42
-0.4142135623730951
 10
-126.3755066025963
 20
51.67499600000003
  0
LWPOLYLINE
  5
172
330
1004A
100
AcDbEntity
  8
0
100
AcDbPolyline
 90
        8
 70
     1
 43
0.0
 10
-120.8255066025962
 20
65.17499600000008
 42
-0.4142135623730951
 10
-120.3255066025962
 20
65.67499600000006
 10
-107.3255066025963
 20
65.67499600000006
 42
-0.4142135623730951
 10
-106.8255066025963
 20
65.17499600000004
 10
-106.8255066025962
 20
52.17499600000016
 42
-0.4142135623730951
 10
-107.3255066025962
 20
51.67499600000009
 10
-120.3255066025962
 20
51.67499600000008
 42
-0.4142135623730951
 10
-120.8255066025962
 20
52.17499600000036
  0
LWPOLYLINE
  5
173
330
1004A
100
AcDbEntity
  8
0
100
AcDbPolyline
 90
        8
 70
     1
 43
0.0
 10
-101.2755066025962
 20
51.67499599999977
 42
-0.4142135623730951
 10
-101.7755066025962
 20
52.17499599999979
 10
-101.7755066025962
 20
65.17499600000004
 42
-0.4142135623730951
 10
-101.2755066025962
 20
65.67499600000012
 10
-88.27550660259625
 20
65.67499600000015
 42
-0.4142135623730951
 10
-87.77550660259624
 20
65.1749960000001
 10
-87.77550660259624
 20
52.17499599999978
 42
-0.4142135623730951
 10
-88.27550660259624
 20
51.67499600000093
  0
LWPOLYLINE
  5
174
330
1004A
100
AcDbEntity
  8
0
100
AcDbPolyline
 90
        8
 70
     1
 43
0.0
 10
-68.72550660259623
 20
52.1749960000001
 42
-0.4142135623730951
 10
-69.22550660259623
 20
51.67499600000071
 10
-82.22550660259617
 20
51.67499600000009
 42
-0.4142135623730951
 10
-82.72550660259623
 20
52.17499600000008
 10
-82.72550660259623
 20
65.17499600000015
 42
-0.4142135623730951
 10
-82.22550660259618
 20
65.67499600000006
 10
-69.22550660259623
 20
65.67499600000014
 42
-0.4142135623730951
 10
-68.72550660259623
 20
65.17499600000005
  0
LWPOLYLINE
  5
175
330
1004A
100
AcDbEntity
  8
0
100
AcDbPolyline
 90
        8
 70
     1
 43
0.0
 10
-50.17550660259627
 20
65.67499600000005
 42
-0.4142135623730951
 10
-49.67550660259624
 20
65.17499600000002
 10
-49.67550660259622
 20
52.17499599999988
 42
-0.4142135623730951
 10
-50.17550660259627
 20
51.67499599999996
 10
-63.17550660259627
 20
51.6749959999993
 42
-0.4142135623730951
 10
-63.67550660259627
 20
52.17499599999923
 10
-63.67550660259629
 20
65.17499600000018
 42
-0.4142135623730951
 10
-63.17550660259627
 20
65.6749959999999
  0
ARC
  5
176
330
1004A
100
AcDbEntity
  8
0
100
AcDbCircle
 10
-10.28125560259622
 20
52.17499599999967
 30
0.0
 40
0.5000000000009982
100
AcDbArc
 50
269.9998854084347
 51
0.0
  0
LINE
  5
177
330
1004A
100
AcDbEntity
  8
0
100
AcDbLine
 10
-10.28125660259627
 20
51.67499600000026
 30
0.0
 11
-41.15725660259625
 21
51.67499550022813
 31
0.0
  0
ARC
  5
178
330
1004A
100
AcDbEntity
  8
0
100
AcDbCircle
 10
-41.15725660259625
 20
52.17499499999928
 30
0.0
 40
0.5000000000010071
100
AcDbArc
 50
179.9998854097085
 51
270.0
  0
LINE
  5
179
330
1004A
100
AcDbEntity
  8
0
100
AcDbLine
 10
-41.65725660259625
 20
52.17499599999947
 30
0.0
 11
-41.65725710236808
 21
67.174996
 31
0.0
  0
ARC
  5
180
330
1004A
100
AcDbEntity
  8
0
100
AcDbCircle
 10
-41.15725760259625
 20
67.17499600000006
 30
0.0
 40
0.5000000000009982
100
AcDbArc
 50
89.99988540844127
 51
180.0
  0
LINE
  5
181
330
1004A
100
AcDbEntity
  8
0
100
AcDbLine
 10
-41.15725660259625
 20
67.674996
 30
0.0
 11
-34.15725660259625
 21
67.67499649977199
 31
0.0
  0
ARC
  5
182
330
1004A
100
AcDbEntity
  8
0
100
AcDbCircle
 10
-34.15725660259625
 20
67.17499700000008
 30
0.0
 40
0.5000000000009717
100
AcDbArc
 50
359.9998854097084
 51
90.00000000000001
  0
LINE
  5
183
330
1004A
100
AcDbEntity
  8
0
100
AcDbLine
 10
-33.65725660259625
 20
67.17499599999985
 30
0.0
 11
-33.65725660259625
 21
66.17499599999996
 31
0.0
  0
ARC
  5
184
330
1004A
100
AcDbEntity
  8
0
100
AcDbCircle
 10
-33.15725660259625
 20
66.17499600000014
 30
0.0
 40
0.5000000000000426
100
AcDbArc
 50
180.0
 51
270.0
  0
LINE
  5
185
330
1004A
100
AcDbEntity
  8
0
100
AcDbLine
 10
-33.15725660259625
 20
65.67499600000006
 30
0.0
 11
-18.28125660259627
 21
65.67499600000006
 31
0.0
  0
ARC
  5
186
330
1004A
100
AcDbEntity
  8
0
100
AcDbCircle
 10
-18.28125660259627
 20
66.17499600000025
 30
0.0
 40
0.4999999999999982
100
AcDbArc
 50
270.0
 51
0.0
  0
LINE
  5
187
330
1004A
100
AcDbEntity
  8
0
100
AcDbLine
 10
-17.78125660259636
 20
66.17499600000025
 30
0.0
 11
-17.78125710236804
 21
67.17499599999998
 31
0.0
  0
ARC
  5
188
330
1004A
100
AcDbEntity
  8
0
100
AcDbCircle
 10
-17.2812576025963
 20
67.17499600000029
 30
0.0
 40
0.5000000000009982
100
AcDbArc
 50
89.99988540844127
 51
180.0
  0
LINE
  5
189
330
1004A
100
AcDbEntity
  8
0
100
AcDbLine
 10
-17.28125660259627
 20
67.67499600000008
 30
0.0
 11
-10.2812566025963
 21
67.67499649977218
 31
0.0
  0
ARC
  5
190
330
1004A
100
AcDbEntity
  8
0
100
AcDbCircle
 10
-10.28125660259627
 20
67.17499699999983
 30
0.0
 40
0.5000000000009717
100
AcDbArc
 50
359.9998854097084
 51
90.00000000000001
  0
LINE
  5
191
330
1004A
100
AcDbEntity
  8
0
100
AcDbLine
 10
-9.781256602596272
 20
67.17499600000004
 30
0.0
 11
-9.781255602595252
 21
52.17499599999943
 31
0.0
  0
LWPOLYLINE
  5
192
330
1004A
100
AcDbEntity
  8
0
100
AcDbPolyline
 90
        8
 70
     1
 43
0.0
 10
-169.2380066025962
 20
84.72499600000008
 42
-0.4142135623730951
 10
-168.7380066025962
 20
84.22499600000006
 10
-168.7380066025962
 20
71.22499600000006
 42
-0.4142135623730951
 10
-169.2380066025962
 20
70.72499600000008
 10
-182.2380066025962
 20
70.72499600000006
 42
-0.4142135623730951
 10
-182.7380066025962
 20
71.22499600000006
 10
-182.7380066025962
 20
84.22499600000006
 42
-0.4142135623730951
 10
-182.2380066025962
 20
84.72499600000006
  0
LWPOLYLINE
  5
193
330
1004A
100
AcDbEntity
  8
0
100
AcDbPolyline
 90
        8
 70
     1
 43
0.0
 10
-163.6880066025962
 20
84.22499600000003
 42
-0.4142135623730951
 10
-163.1880066025962
 20
84.72499600000006
 10
-150.1880066025963
 20
84.72499600000009
 42
-0.4142135623730951
 10
-149.6880066025962
 20
84.22499600000005
 10
-149.6880066025962
 20
71.22499600000006
 42
-0.4142135623730951
 10
-150.1880066025962
 20
70.72499600000008
 10
-163.1880066025963
 20
70.72499600000006
 42
-0.4142135623730951
 10
-163.6880066025962
 20
71.22499600000005
  0
LWPOLYLINE
  5
194
330
1004A
100
AcDbEntity
  8
0
100
AcDbPolyline
 90
        8
 70
     1
 43
0.0
 10
-131.1380066025962
 20
84.72499600000006
 42
-0.4142135623730951
 10
-130.6380066025962
 20
84.22499600000003
 10
-130.6380066025962
 20
71.22499600000009
 42
-0.4142135623730951
 10
-131.1380066025962
 20
70.7249960000001
 10
-144.1380066025962
 20
70.72499600000006
 42
-0.4142135623730951
 10
-144.6380066025962
 20
71.22499600000006
 10
-144.6380066025962
 20
84.22499600000006
 42
-0.4142135623730951
 10
-144.1380066025962
 20
84.72499600000008
  0
LWPOLYLINE
  5
195
330
1004A
100
AcDbEntity
  8
0
100
AcDbPolyline
 90
        8
 70
     1
 43
0.0
 10
-112.0880066025962
 20
84.72499600000009
 42
-0.4142135623730951
 10
-111.5880066025962
 20
84.22499600000008
 10
-111.5880066025962
 20
71.22499600000006
 42
-0.4142135623730951
 10
-112.0880066025962
 20
70.72499600000003
 10
-125.0880066025962
 20
70.72499600000006
 42
-0.4142135623730951
 10
-125.5880066025962
 20
71.22499600000006
 10
-125.5880066025963
 20
84.22499600000012
 42
-0.4142135623730951
 10
-125.0880066025962
 20
84.72499600000006
  0
LWPOLYLINE
  5
196
330
1004A
100
AcDbEntity
  8
0
100
AcDbPolyline
 90
        8
 70
     1
 43
0.0
 10
-93.03800660259624
 20
84.72499600000012
 42
-0.4142135623730951
 10
-92.53800660259617
 20
84.22499600000008
 10
-92.53800660259617
 20
71.22499600000006
 42
-0.4142135623730951
 10
-93.03800660259623
 20
70.72499600000005
 10
-106.0380066025963
 20
70.72499600000002
 42
-0.4142135623730951
 10
-106.5380066025963
 20
71.22499600000006
 10
-106.5380066025962
 20
84.224996
 42
-0.4142135623730951
 10
-106.0380066025963
 20
84.72499600000009
  0
LWPOLYLINE
  5
197
330
1004A
100
AcDbEntity
  8
0
100
AcDbPolyline
 90
        8
 70
     1
 43
0.0
 10
-165.5005066025963
 20
93.31249500000007
 42
-0.4142135623730951
 10
-164.3005066025962
 20
94.51249500000007
 10
-146.7005066025962
 20
94.51249500000006
 42
-0.4142135623730951
 10
-145.5005066025962
 20
93.31249500000007
 10
-145.5005066025962
 20
92.71249500000005
 42
-0.4142135623730951
 10
-146.7005066025962
 20
91.51249500000007
 10
-164.3005066025962
 20
91.51249500000006
 42
-0.4142135623730951
 10
-165.5005066025963
 20
92.71249500000009
  0
LWPOLYLINE
  5
198
330
1004A
100
AcDbEntity
  8
0
100
AcDbPolyline
 90
        8
 70
     1
 43
0.0
 10
-73.48800660259626
 20
71.22499600000003
 42
-0.4142135623730951
 10
-73.98800660259627
 20
70.72499600000003
 10
-86.98800660259629
 20
70.72499600000009
 42
-0.4142135623730951
 10
-87.48800660259629
 20
71.22499600000012
 10
-87.48800660259627
 20
84.22499600000002
 42
-0.4142135623730951
 10
-86.98800660259627
 20
84.72499600000003
 10
-73.98800660259629
 20
84.72499600000012
 42
-0.4142135623730951
 10
-73.48800660259626
 20
84.22499600000002
  0
LWPOLYLINE
  5
199
330
1004A
100
AcDbEntity
  8
0
100
AcDbPolyline
 90
        8
 70
     1
 43
0.0
 10
-68.43800660259626
 20
84.22499600000009
 42
-0.4142135623730951
 10
-67.93800660259627
 20
84.72499600000006
 10
-54.93800660259626
 20
84.72499600000015
 42
-0.4142135623730951
 10
-54.43800660259626
 20
84.22499600000023
 10
-54.43800660259626
 20
71.22499600000003
 42
-0.4142135623730951
 10
-54.93800660259627
 20
70.72499600000006
 10
-67.93800660259626
 20
70.72499600000002
 42
-0.4142135623730951
 10
-68.43800660259626
 20
71.22499600000009
  0
LWPOLYLINE
  5
200
330
1004A
100
AcDbEntity
  8
0
100
AcDbPolyline
 90
        8
 70
     1
 43
0.0
 10
-35.88800660259619
 20
84.72499599999999
 42
-0.4142135623730951
 10
-35.38800660259628
 20
84.22499600000015
 10
-35.38800660259625
 20
71.22499600000005
 42
-0.4142135623730951
 10
-35.88800660259619
 20
70.72499599999978
 10
-48.88800660259625
 20
70.7249960000001
 42
-0.4142135623730951
 10
-49.38800660259625
 20
71.22499600000022
 10
-49.38800660259628
 20
84.22499600000029
 42
-0.4142135623730951
 10
-48.88800660259622
 20
84.72499599999996
  0
LWPOLYLINE
  5
201
330
1004A
100
AcDbEntity
  8
0
100
AcDbPolyline
 90
        8
 70
     1
 43
0.0
 10
-29.67550660259622
 20
84.72499600000006
 42
-0.4142135623730951
 10
-29.17550660259627
 20
84.22499600000003
 10
-29.17550660259627
 20
71.22499600000006
 42
-0.4142135623730951
 10
-29.67550660259624
 20
70.72499600000022
 10
-30.67550660259627
 20
70.72499600000015
 42
-0.4142135623730951
 10
-31.17550660259622
 20
71.22499600000003
 10
-31.17550660259624
 20
84.22499600000012
 42
-0.4142135623730951
 10
-30.6755066025963
 20
84.72499600000009
  0
LWPOLYLINE
  5
202
330
1004A
100
AcDbEntity
  8
0
100
AcDbPolyline
 90
        8
 70
     1
 43
0.0
 10
-11.57550660259631
 20
71.22499600000017
 42
-0.4142135623730951
 10
-12.07550660259625
 20
70.72499600000015
 10
-25.07550660259625
 20
70.72499600000012
 42
-0.4142135623730951
 10
-25.57550660259619
 20
71.22499600000006
 10
-25.57550660259622
 20
84.22499600000013
 42
-0.4142135623730951
 10
-25.07550660259628
 20
84.72499600000023
 10
-12.07550660259625
 20
84.72499600000006
 42
-0.4142135623730951
 10
-11.57550660259631
 20
84.22499600000012
  0
LWPOLYLINE
  5
203
330
1004A
100
AcDbEntity
  8
0
100
AcDbPolyline
 90
        8
 70
     1
 43
0.0
 10
-8.822006602596275
 20
94.51249500000007
 10
-16.42200660259624
 20
94.51249500000011
 42
0.4142135623730951
 10
-17.62200660259623
 20
93.31249500000013
 10
-17.62200660259623
 20
92.71249500000016
 42
0.4142135623730951
 10
-16.42200660259624
 20
91.51249500000004
 10
-8.822006602596304
 20
91.51249500000017
 42
0.4142135623730951
 10
-7.622006602596258
 20
92.71249500000017
 10
-7.622006602596286
 20
93.3124950000001
 42
0.4142135623730951
  0
CIRCLE
  5
204
330
1004A
100
AcDbEntity
  8
0
100
AcDbCircle
 10
-335.7567566025963
 20
5.287495999999962
 30
0.0
 40
1.125
  0
CIRCLE
  5
205
330
1004A
100
AcDbEntity
  8
0
100
AcDbCircle
 10
-180.4995066025962
 20
5.287496000000061
 30
0.0
 40
1.125
  0
CIRCLE
  5
206
330
1004A
100
AcDbEntity
  8
0
100
AcDbCircle
 10
-25.24400660259619
 20
5.28749600000004
 30
0.0
 40
1.125
  0
CIRCLE
  5
207
330
1004A
100
AcDbEntity
  8
0
100
AcDbCircle
 10
-335.7567566025963
 20
93.01249500000014
 30
0.0
 40
1.125
  0
CIRCLE
  5
208
330
1004A
100
AcDbEntity
  8
0
100
AcDbCircle
 10
-180.5005066025963
 20
93.01249500000006
 30
0.0
 40
1.125
  0
CIRCLE
  5
209
330
1004A
100
AcDbEntity
  8
0
100
AcDbCircle
 10
-25.24400660259622
 20
93.01249500000007
 30
0.0
 40
1.125
  0
VIEWPORT
  5
1010C
330
10046
100
AcDbEntity
 67
     1
  8
0
100
AcDbViewport
 10
5.25
 20
4.0
 30
0.0
 40
11.638
 41
8.993
 68
     1
 69
     1
1001
ACAD
1000
MVIEW
1002
{
1070
    16
1010
0.0
1020
0.0
1030
0.0
1010
0.0
1020
0.0
1030
1.0
1040
0.0
1040
8.993
1040
5.25
1040
4.0
1040
50.0
1040
0.0
1040
0.0
1070
     0
1070
   100
1070
     0
1070
     3
1070
     0
1070
     0
1070
     0
1070
     0
1040
0.0
1040
0.0
1040
0.0
1040
0.5
1040
0.5
1040
0.5
1040
0.5
1070
     0
1002
{
1002
}
1002
}
  0
ENDSEC
  0
SECTION
  2
OBJECTS
  0
DICTIONARY
  5
10038
330
0
100
AcDbDictionary
  3
ACAD_GROUP
350
10039
  3
ACAD_LAYOUT
350
10045
  3
ACAD_MATERIAL
350
1006E
  3
ACAD_MLEADERSTYLE
350
10096
  3
ACAD_MLINESTYLE
350
10042
  3
ACAD_PLOTSETTINGS
350
10044
  3
ACAD_SCALELIST
350
10072
  3
ACAD_VISUALSTYLE
350
10055
  3
ACDBHEADERROUNDTRIPXREC
350
1010E
  3
ACDBVARIABLEDICTIONARY
350
1012F
  3
DWGPROPS
350
10136
  3
QCAD_OBJECTS
350
1009A
  0
DICTIONARY
  5
10137
330
10034
100
AcDbDictionary
280
     1
  3
ACAD_XREC_ROUNDTRIP
360
10138
  0
DICTIONARY
  5
10039
102
{ACAD_REACTORS
330
10038
102
}
330
10038
100
AcDbDictionary
  0
DICTIONARY
  5
10045
102
{ACAD_REACTORS
330
10038
102
}
330
10038
100
AcDbDictionary
  0
DICTIONARY
  5
1006E
102
{ACAD_REACTORS
330
10038
102
}
330
10038
100
AcDbDictionary
  3
BYBLOCK
350
10070
  3
BYLAYER
350
1006F
  3
GLOBAL
350
10071
  0
DICTIONARY
  5
10096
102
{ACAD_REACTORS
330
10038
102
}
330
10038
100
AcDbDictionary
  3
STANDARD
350
10097
  0
DICTIONARY
  5
10042
102
{ACAD_REACTORS
330
10038
102
}
330
10038
100
AcDbDictionary
  3
STANDARD
350
10043
  0
DICTIONARY
  5
10044
102
{ACAD_REACTORS
330
10038
102
}
330
10038
100
AcDbDictionary
  0
DICTIONARY
  5
10072
102
{ACAD_REACTORS
330
10038
102
}
330
10038
100
AcDbDictionary
  3
A0
350
10073
  3
A1
350
10074
  3
A2
350
10075
  3
A3
350
10076
  3
A4
350
10077
  3
A5
350
10078
  3
A6
350
10079
  3
A7
350
1007A
  3
A8
350
1007B
  3
A9
350
1007C
  3
B0
350
1007D
  3
B1
350
1007E
  3
B2
350
1007F
  3
B3
350
10080
  3
B4
350
10081
  3
B5
350
10082
  3
B6
350
10083
  3
B7
350
10084
  3
B8
350
10085
  3
B9
350
10086
  3
C0
350
10087
  3
C1
350
10088
  3
C2
350
10089
  3
C3
350
1008A
  3
C4
350
1008B
  3
C5
350
1008C
  3
C6
350
1008D
  3
C7
350
1008E
  3
C8
350
1008F
  3
C9
350
10090
  3
D0
350
10091
  3
D1
350
10092
  3
D2
350
10093
  0
DICTIONARY
  5
10055
102
{ACAD_REACTORS
330
10038
102
}
330
10038
100
AcDbDictionary
  3
2DWIREFRAME
350
1005A
  3
BASIC
350
1005D
  3
BRIGHTEN
350
10061
  3
COLORCHANGE
350
10065
  3
CONCEPTUAL
350
1005F
  3
DIM
350
10060
  3
EDGECOLOROFF
350
10068
  3
FACEPATTERN
350
10064
  3
FLAT
350
10056
  3
FLATWITHEDGES
350
10057
  3
GOURAUD
350
10058
  3
GOURAUDWITHEDGES
350
10059
  3
HIDDEN
350
1005C
  3
JITTEROFF
350
10066
  3
LINEPATTERN
350
10063
  3
OVERHANGOFF
350
10067
  3
REALISTIC
350
1005E
  3
SHADED
350
1006D
  3
SHADED_WITH_EDGES
350
1006C
  3
SHADES_OF_GRAY
350
10069
  3
SKETCHY
350
1006A
  3
THICKEN
350
10062
  3
WIREFRAME
350
1005B
  3
X-RAY
350
1006B
  0
DICTIONARY
  5
1010E
102
{ACAD_REACTORS
330
10038
102
}
330
10038
100
AcDbDictionary
  3
CEPSNID
350
10118
  3
CEPSNTYPE
350
10117
  3
DIMSTYLEDATA
350
1012E
  3
FINGERPRINTGUID
350
10119
  3
HYPERLINKBASE
350
10111
  3
INSUNITS
350
10116
  3
LAYOUTDICT
350
10113
  3
LWETCUNION
350
10115
  3
PLOTSETDICT
350
10114
  3
PSVPSCALE
350
1011B
  3
PUCSBASE
350
1011E
  3
PUCSORGBACK
350
10124
  3
PUCSORGBOTTOM
350
10120
  3
PUCSORGFRONT
350
10123
  3
PUCSORGLEFT
350
10121
  3
PUCSORGRIGHT
350
10122
  3
PUCSORGTOP
350
1011F
  3
PUCSORTHOREF
350
1011C
  3
PUCSORTHOVIEW
350
1011D
  3
STYLESHEET
350
10112
  3
TSTACKALIGN
350
1010F
  3
TSTACKSIZE
350
10110
  3
UCSBASE
350
10127
  3
UCSORGBACK
350
1012D
  3
UCSORGBOTTOM
350
10129
  3
UCSORGFRONT
350
1012C
  3
UCSORGLEFT
350
1012A
  3
UCSORGRIGHT
350
1012B
  3
UCSORGTOP
350
10128
  3
UCSORTHOREF
350
10125
  3
UCSORTHOVIEW
350
10126
  3
VERSIONGUID
350
1011A
  0
DICTIONARY
  5
1012F
102
{ACAD_REACTORS
330
10038
102
}
330
10038
100
AcDbDictionary
  3
CANNOSCALE
350
10139
  3
CMLEADERSTYLE
350
10131
  3
CTABLESTYLE
350
10130
  3
DIMASSOC
350
10134
  3
HIDETEXT
350
10135
  3
MSLTSCALE
350
1013A
  0
XRECORD
  5
10136
102
{ACAD_REACTORS
330
10038
102
}
330
10038
100
AcDbXrecord
  1
DWGPROPS COOKIE
  2

  3

  4

  6

  7

  8
brandonschlack
  9

300
=
301
=
302
=
303
=
304
=
305
=
306
=
307
=
308
=
309
=
 40
0.0
 41
2459319.685993854
 42
2459319.685993901
  1

 90
        0
  0
DICTIONARY
  5
1009A
102
{ACAD_REACTORS
330
10038
102
}
330
10038
100
AcDbDictionary
  3
COLORSETTINGS/BACKGROUNDCOLOR
350
1009C
  3
COLORSETTINGS/COLORMODE
350
1009D
  3
GRID/DISPLAYGRID00
350
1009E
  3
GRID/DISPLAYGRID01
350
1009F
  3
GRID/DISPLAYGRID02
350
100A0
  3
GRID/DISPLAYGRID03
350
100A1
  3
GRID/GRIDSPACINGX00
350
100A2
  3
GRID/GRIDSPACINGX01
350
100A3
  3
GRID/GRIDSPACINGX02
350
100A4
  3
GRID/GRIDSPACINGX03
350
100A5
  3
GRID/GRIDSPACINGY00
350
100A6
  3
GRID/GRIDSPACINGY01
350
100A7
  3
GRID/GRIDSPACINGY02
350
100A8
  3
GRID/GRIDSPACINGY03
350
100A9
  3
GRID/ISOMETRICGRID00
350
100AA
  3
GRID/ISOMETRICGRID01
350
100AB
  3
GRID/ISOMETRICGRID02
350
100AC
  3
GRID/ISOMETRICGRID03
350
100AD
  3
GRID/ISOMETRICPROJECTION00
350
100AE
  3
GRID/ISOMETRICPROJECTION01
350
100AF
  3
GRID/ISOMETRICPROJECTION02
350
100B0
  3
GRID/ISOMETRICPROJECTION03
350
100B1
  3
GRID/METAGRIDSPACINGX00
350
100B2
  3
GRID/METAGRIDSPACINGX01
350
100B3
  3
GRID/METAGRIDSPACINGX02
350
100B4
  3
GRID/METAGRIDSPACINGX03
350
100B5
  3
GRID/METAGRIDSPACINGY00
350
100B6
  3
GRID/METAGRIDSPACINGY01
350
100B7
  3
GRID/METAGRIDSPACINGY02
350
100B8
  3
GRID/METAGRIDSPACINGY03
350
100B9
  3
MULTIPAGESETTINGS/COLUMNS
350
100BA
  3
MULTIPAGESETTINGS/GLUEMAR0
350
100BC
  3
MULTIPAGESETTINGS/GLUEMAR1
350
100BD
  3
MULTIPAGESETTINGS/GLUEMAR2
350
100BE
  3
MULTIPAGESETTINGS/GLUEMARG
350
100BB
  3
MULTIPAGESETTINGS/PRINTCRO
350
100BF
  3
MULTIPAGESETTINGS/ROWS
350
100C0
  3
PAGESETTINGS/OFFSETX
350
100C1
  3
PAGESETTINGS/OFFSETY
350
100C2
  3
PAGESETTINGS/PAGEORIENTATION
350
100C3
  3
PAGESETTINGS/PAPERHEIGHT
350
100C4
  3
PAGESETTINGS/PAPERWIDTH
350
100C5
  3
PAGESETTINGS/SCALE
350
100C6
  3
PAGESETTINGS/SHOWPAPERBORDERS
350
100C7
  3
PAGETAGSETTINGS/ENABLEPAGETAGS
350
100C8
  3
PAGETAGSETTINGS/TAGALIGNMENT
350
100C9
  3
PAGETAGSETTINGS/TAGFONT
350
100CA
  3
PAGETAGSETTINGS/TAGPOSITION
350
100CB
  3
QCADVERSION
350
1009B
  3
UNITSETTINGS/PAPERUNIT
350
100CC
  3
VIEWPORTCENTER
350
100CD
  3
VIEWPORTHEIGHT
350
100CE
  3
VIEWPORTWIDTH
350
100CF
  0
XRECORD
  5
10138
102
{ACAD_REACTORS
330
10137
102
}
330
10137
100
AcDbXrecord
102
VTR_0.000_0.000_1.000_1.000_VISUALSTYLE
340
1005A
102
VTR_0.000_0.000_1.000_1.000_GRIDDISPLAY
 70
     3
102
VTR_0.000_0.000_1.000_1.000_GRIDMAJOR
 70
     5
102
VTR_0.000_0.000_1.000_1.000_DEFAULTLIGHTING
280
     1
102
VTR_0.000_0.000_1.000_1.000_DEFAULTLIGHTINGTYPE
 70
     1
102
VTR_0.000_0.000_1.000_1.000_BRIGHTNESS
141
0.0
102
VTR_0.000_0.000_1.000_1.000_CONTRAST
142
0.0
  0
MATERIAL
  5
10070
102
{ACAD_REACTORS
330
1006E
102
}
102
{ACAD_XDICTIONARY
360
1013D
102
}
330
1006E
100
AcDbMaterial
  1
BYBLOCK
  0
MATERIAL
  5
1006F
102
{ACAD_REACTORS
330
1006E
102
}
102
{ACAD_XDICTIONARY
360
1013B
102
}
330
1006E
100
AcDbMaterial
  1
BYLAYER
  0
MATERIAL
  5
10071
102
{ACAD_REACTORS
330
1006E
102
}
102
{ACAD_XDICTIONARY
360
1013F
102
}
330
1006E
100
AcDbMaterial
  1
GLOBAL
  0
ACAD_PROXY_OBJECT
  5
10097
102
{ACAD_REACTORS
330
10096
102
}
330
10096
100
AcDbProxyObject
 90
      499
 91
      505
 93
      610
310
40901902A4063FBFFFFFE056BD1B81E855B9FC0AD7A3703D0AD73F4214DD185B99185C9900AD7A3703D0AC73F90141901A02B5E8DC0F42B1CFC02B5E8DC0F42B1CFE5764000000000000300FC0
340
1003F
340
0
340
1003D
340
0
 94
        0
1001
ACAD_MLEADERVER
1070
     2
  0
MLINESTYLE
  5
10043
102
{ACAD_REACTORS
330
10042
102
}
330
10042
100
AcDbMlineStyle
  2
Standard
 70
     0
  3

 62
   256
 51
90.0
 52
90.0
 71
     2
 49
0.5
 62
   256
  6
BYLAYER
 49
-0.5
 62
   256
  6
BYLAYER
  0
ACAD_PROXY_OBJECT
  5
10073
102
{ACAD_REACTORS
330
10072
102
}
330
10072
100
AcDbProxyObject
 90
      499
 91
      503
 93
       41
310
903313A31580
  0
ACAD_PROXY_OBJECT
  5
10074
102
{ACAD_REACTORS
330
10072
102
}
330
10072
100
AcDbProxyObject
 90
      499
 91
      503
 93
      105
310
903313A324000000000000004000
  0
ACAD_PROXY_OBJECT
  5
10075
102
{ACAD_REACTORS
330
10072
102
}
330
10072
100
AcDbProxyObject
 90
      499
 91
      503
 93
      105
310
903313A344000000000000104000
  0
ACAD_PROXY_OBJECT
  5
10076
102
{ACAD_REACTORS
330
10072
102
}
330
10072
100
AcDbProxyObject
 90
      499
 91
      503
 93
      105
310
903313A354000000000000144000
  0
ACAD_PROXY_OBJECT
  5
10077
102
{ACAD_REACTORS
330
10072
102
}
330
10072
100
AcDbProxyObject
 90
      499
 91
      503
 93
      105
310
903313A384000000000000204000
  0
ACAD_PROXY_OBJECT
  5
10078
102
{ACAD_REACTORS
330
10072
102
}
330
10072
100
AcDbProxyObject
 90
      499
 91
      503
 93
      113
310
904313A31304000000000000244000
  0
ACAD_PROXY_OBJECT
  5
10079
102
{ACAD_REACTORS
330
10072
102
}
330
10072
100
AcDbProxyObject
 90
      499
 91
      503
 93
      113
310
904313A31364000000000000304000
  0
ACAD_PROXY_OBJECT
  5
1007A
102
{ACAD_REACTORS
330
10072
102
}
330
10072
100
AcDbProxyObject
 90
      499
 91
      503
 93
      113
310
904313A32304000000000000344000
  0
ACAD_PROXY_OBJECT
  5
1007B
102
{ACAD_REACTORS
330
10072
102
}
330
10072
100
AcDbProxyObject
 90
      499
 91
      503
 93
      113
310
904313A333040000000000003E4000
  0
ACAD_PROXY_OBJECT
  5
1007C
102
{ACAD_REACTORS
330
10072
102
}
330
10072
100
AcDbProxyObject
 90
      499
 91
      503
 93
      113
310
904313A34304000000000000444000
  0
ACAD_PROXY_OBJECT
  5
1007D
102
{ACAD_REACTORS
330
10072
102
}
330
10072
100
AcDbProxyObject
 90
      499
 91
      503
 93
      113
310
904313A35304000000000000494000
  0
ACAD_PROXY_OBJECT
  5
1007E
102
{ACAD_REACTORS
330
10072
102
}
330
10072
100
AcDbProxyObject
 90
      499
 91
      503
 93
      121
310
905313A3130304000000000000594000
  0
ACAD_PROXY_OBJECT
  5
1007F
102
{ACAD_REACTORS
330
10072
102
}
330
10072
100
AcDbProxyObject
 90
      499
 91
      503
 93
      105
310
903323A310000000000000010100
  0
ACAD_PROXY_OBJECT
  5
10080
102
{ACAD_REACTORS
330
10072
102
}
330
10072
100
AcDbProxyObject
 90
      499
 91
      503
 93
      105
310
903343A310000000000000410100
  0
ACAD_PROXY_OBJECT
  5
10081
102
{ACAD_REACTORS
330
10072
102
}
330
10072
100
AcDbProxyObject
 90
      499
 91
      503
 93
      105
310
903383A310000000000000810100
  0
ACAD_PROXY_OBJECT
  5
10082
102
{ACAD_REACTORS
330
10072
102
}
330
10072
100
AcDbProxyObject
 90
      499
 91
      503
 93
      113
310
90431303A310000000000000910100
  0
ACAD_PROXY_OBJECT
  5
10083
102
{ACAD_REACTORS
330
10072
102
}
330
10072
100
AcDbProxyObject
 90
      499
 91
      503
 93
      121
310
9053130303A310000000000001650100
  0
ACAD_PROXY_OBJECT
  5
10084
102
{ACAD_REACTORS
330
10072
102
}
330
10072
100
AcDbProxyObject
 90
      499
 91
      503
 93
      257
310
90E312F31323822203D2031272D3022000000000000200FC000000000000284000
  0
ACAD_PROXY_OBJECT
  5
10085
102
{ACAD_REACTORS
330
10072
102
}
330
10072
100
AcDbProxyObject
 90
      499
 91
      503
 93
      249
310
90D312F363422203D2031272D3022000000000000240FC000000000000284000
  0
ACAD_PROXY_OBJECT
  5
10086
102
{ACAD_REACTORS
330
10072
102
}
330
10072
100
AcDbProxyObject
 90
      499
 91
      503
 93
      249
310
90D312F333222203D2031272D3022000000000000280FC000000000000284000
  0
ACAD_PROXY_OBJECT
  5
10087
102
{ACAD_REACTORS
330
10072
102
}
330
10072
100
AcDbProxyObject
 90
      499
 91
      503
 93
      249
310
90D312F313622203D2031272D30220000000000002C0FC000000000000284000
  0
ACAD_PROXY_OBJECT
  5
10088
102
{ACAD_REACTORS
330
10072
102
}
330
10072
100
AcDbProxyObject
 90
      499
 91
      503
 93
      249
310
90D332F333222203D2031272D30220000000000002E0FC000000000000284000
  0
ACAD_PROXY_OBJECT
  5
10089
102
{ACAD_REACTORS
330
10072
102
}
330
10072
100
AcDbProxyObject
 90
      499
 91
      503
 93
      241
310
90C312F3822203D2031272D3022000000000000300FC000000000000284000
  0
ACAD_PROXY_OBJECT
  5
1008A
102
{ACAD_REACTORS
330
10072
102
}
330
10072
100
AcDbProxyObject
 90
      499
 91
      503
 93
      249
310
90D332F313622203D2031272D3022000000000000320FC000000000000284000
  0
ACAD_PROXY_OBJECT
  5
1008B
102
{ACAD_REACTORS
330
10072
102
}
330
10072
100
AcDbProxyObject
 90
      499
 91
      503
 93
      241
310
90C312F3422203D2031272D3022000000000000340FC000000000000284000
  0
ACAD_PROXY_OBJECT
  5
1008C
102
{ACAD_REACTORS
330
10072
102
}
330
10072
100
AcDbProxyObject
 90
      499
 91
      503
 93
      241
310
90C332F3822203D2031272D3022000000000000360FC000000000000284000
  0
ACAD_PROXY_OBJECT
  5
1008D
102
{ACAD_REACTORS
330
10072
102
}
330
10072
100
AcDbProxyObject
 90
      499
 91
      503
 93
      241
310
90C312F3222203D2031272D3022000000000000380FC000000000000284000
  0
ACAD_PROXY_OBJECT
  5
1008E
102
{ACAD_REACTORS
330
10072
102
}
330
10072
100
AcDbProxyObject
 90
      499
 91
      503
 93
      241
310
90C332F3422203D2031272D30220000000000003A0FC000000000000284000
  0
ACAD_PROXY_OBJECT
  5
1008F
102
{ACAD_REACTORS
330
10072
102
}
330
10072
100
AcDbProxyObject
 90
      499
 91
      503
 93
      161
310
90A3122203D2031272D30224000000000000284000
  0
ACAD_PROXY_OBJECT
  5
10090
102
{ACAD_REACTORS
330
10072
102
}
330
10072
100
AcDbProxyObject
 90
      499
 91
      503
 93
      257
310
90E312D312F3222203D2031272D30220000000000003E0FC000000000000284000
  0
ACAD_PROXY_OBJECT
  5
10091
102
{ACAD_REACTORS
330
10072
102
}
330
10072
100
AcDbProxyObject
 90
      499
 91
      503
 93
      225
310
90A3322203D2031272D302200000000000002100000000000000284000
  0
ACAD_PROXY_OBJECT
  5
10092
102
{ACAD_REACTORS
330
10072
102
}
330
10072
100
AcDbProxyObject
 90
      499
 91
      503
 93
      225
310
90A3622203D2031272D302200000000000006100000000000000284000
  0
ACAD_PROXY_OBJECT
  5
10093
102
{ACAD_REACTORS
330
10072
102
}
330
10072
100
AcDbProxyObject
 90
      499
 91
      503
 93
      249
310
90D31272D3022203D2031272D30220000000000000A100000000000000284000
  0
ACAD_PROXY_OBJECT
  5
1005A
102
{ACAD_REACTORS
330
10055
102
}
330
10055
100
AcDbProxyObject
 90
      499
 91
      501
 93
      436
310
42CC9915DA5C99599C985B595049028333333333333E33F0000000000000F90107901411070040501600405405064090741402480A0340
1001
ACAD
1000
AcDbSavedByObjectVersion
1070
     0
  0
ACAD_PROXY_OBJECT
  5
1005D
102
{ACAD_REACTORS
330
10055
102
}
330
10055
100
AcDbProxyObject
 90
      499
 91
      501
 93
      388
310
4150985CDA58D07406404333333333333E33F0000000000000F90107A41107004050150841D405064090741402480A0350
1001
ACAD
1000
AcDbSavedByObjectVersion
1070
     0
  0
ACAD_PROXY_OBJECT
  5
10061
102
{ACAD_REACTORS
330
10055
102
}
330
10055
100
AcDbProxyObject
 90
      499
 91
      501
 93
      428
310
42109C9A59DA1D195B90C409028333333333333E33F0000000000000F9010790141107004050150841D405064090741402480A029950
1001
ACAD
1000
AcDbSavedByObjectVersion
1070
     0
  0
ACAD_PROXY_OBJECT
  5
10065
102
{ACAD_REACTORS
330
10055
102
}
330
10055
100
AcDbProxyObject
 90
      499
 91
      501
 93
      452
310
42D0DBDB1BDC90DA185B99D95104090240C333333333333E33F0000000000000F90108901411070040501508421405064090741402480A0350
1001
ACAD
1000
AcDbSavedByObjectVersion
1070
     0
  0
ACAD_PROXY_OBJECT
  5
1005F
102
{ACAD_REACTORS
330
10055
102
}
330
10055
100
AcDbProxyObject
 90
      499
 91
      501
 93
      500
310
4290DBDB98D95C1D1D585B10940D028333333333333E33F0000000000000F90107902409070040501000000000018199010841D405064090740C02480A0340
1001
ACAD
1000
AcDbSavedByObjectVersion
1070
     0
  0
ACAD_PROXY_OBJECT
  5
10060
102
{ACAD_REACTORS
330
10055
102
}
330
10055
100
AcDbProxyObject
 90
      499
 91
      501
 93
      412
310
40D11A5B50B409028333333333333E33F0000000000000F9010790141107004050150841D405064090741402480A02677FFFFFD0
1001
ACAD
1000
AcDbSavedByObjectVersion
1070
     0
  0
ACAD_PROXY_OBJECT
  5
10068
102
{ACAD_REACTORS
330
10055
102
}
330
10055
100
AcDbProxyObject
 90
      499
 91
      501
 93
      452
310
43115919D950DBDB1BDC93D999916409028333333333333E33F0000000000000F9010790141107004050150841D405064090741402480A0350
1001
ACAD
1000
AcDbSavedByObjectVersion
1070
     0
  0
ACAD_PROXY_OBJECT
  5
10064
102
{ACAD_REACTORS
330
10055
102
}
330
10055
100
AcDbProxyObject
 90
      499
 91
      501
 93
      444
310
42D19858D95C185D1D195C9B90F409028333333333333E33F0000000000000F9010790141107004050150841D405064090741402480A0350
1001
ACAD
1000
AcDbSavedByObjectVersion
1070
     0
  0
ACAD_PROXY_OBJECT
  5
10056
102
{ACAD_REACTORS
330
10055
102
}
330
10055
100
AcDbProxyObject
 90
      499
 91
      501
 93
      380
310
41119B185D240901404333333333333E33F0000000000000F9010740A907004050150841D405064090741402480A1B50
1001
ACAD
1000
AcDbSavedByObjectVersion
1070
     0
  0
ACAD_PROXY_OBJECT
  5
10057
102
{ACAD_REACTORS
330
10055
102
}
330
10055
100
AcDbProxyObject
 90
      499
 91
      501
 93
      468
310
43519B185D15DA5D1A115919D95CD0140901404333333333333E33F0000000000000F90107409019070040501600405405064090741402480A1B50
1001
ACAD
1000
AcDbSavedByObjectVersion
1070
     0
  0
ACAD_PROXY_OBJECT
  5
10058
102
{ACAD_REACTORS
330
10055
102
}
330
10055
100
AcDbProxyObject
 90
      499
 91
      501
 93
      404
310
41D1DBDD5C985D5910240902404333333333333E33F0000000000000F9010740A9070040501641D405064090741402480A1B50
1001
ACAD
1000
AcDbSavedByObjectVersion
1070
     0
  0
ACAD_PROXY_OBJECT
  5
10059
102
{ACAD_REACTORS
330
10055
102
}
330
10055
100
AcDbProxyObject
 90
      499
 91
      501
 93
      492
310
4411DBDD5C985D5915DA5D1A115919D95CD0340902404333333333333E33F0000000000000F90107409019070040501600405405064090741402480A1B50
1001
ACAD
1000
AcDbSavedByObjectVersion
1070
     0
  0
ACAD_PROXY_OBJECT
  5
1005C
102
{ACAD_REACTORS
330
10055
102
}
330
10055
100
AcDbProxyObject
 90
      499
 91
      501
 93
      476
310
41921A5919195B90640502408333333333333E33F0000000000000F901079024090700405020000000000001110200405405064090740C02480A0340
1001
ACAD
1000
AcDbSavedByObjectVersion
1070
     0
  0
ACAD_PROXY_OBJECT
  5
10066
102
{ACAD_REACTORS
330
10055
102
}
330
10055
100
AcDbProxyObject
 90
      499
 91
      501
 93
      428
310
42529A5D1D195C93D999914409028333333333333E33F0000000000000F9010790141107004050150A41D405064090741402480A0350
1001
ACAD
1000
AcDbSavedByObjectVersion
1070
     0
  0
ACAD_PROXY_OBJECT
  5
10063
102
{ACAD_REACTORS
330
10055
102
}
330
10055
100
AcDbProxyObject
 90
      499
 91
      501
 93
      444
310
42D31A5B995C185D1D195C9B90E409028333333333333E33F0000000000000F9010790141107004050750841D405064090741402483A0350
1001
ACAD
1000
AcDbSavedByObjectVersion
1070
     0
  0
ACAD_PROXY_OBJECT
  5
10067
102
{ACAD_REACTORS
330
10055
102
}
330
10055
100
AcDbProxyObject
 90
      499
 91
      501
 93
      444
310
42D3DD995C9A185B99D3D999915409028333333333333E33F0000000000000F9010790141107004050150941D405064090741402480A0350
1001
ACAD
1000
AcDbSavedByObjectVersion
1070
     0
  0
ACAD_PROXY_OBJECT
  5
1005E
102
{ACAD_REACTORS
330
10055
102
}
330
10055
100
AcDbProxyObject
 90
      499
 91
      501
 93
      428
310
425499585B1A5CDD1A58D08409038333333333333E33F0000000000000F9010740A907004050150800405405064090740C02480A1B40
1001
ACAD
1000
AcDbSavedByObjectVersion
1070
     0
  0
ACAD_PROXY_OBJECT
  5
1006D
102
{ACAD_REACTORS
330
10055
102
}
330
10055
100
AcDbProxyObject
 90
      499
 91
      501
 93
      420
310
4194DA1859195911B40902404333333333333E33F0000000000000F9010740A41107004050150800405405064090840C02480A0B40
1001
ACAD
1000
AcDbSavedByObjectVersion
1070
     0
  0
ACAD_PROXY_OBJECT
  5
1006C
102
{ACAD_REACTORS
330
10055
102
}
330
10055
100
AcDbProxyObject
 90
      499
 91
      501
 93
      516
310
4454DA18591959081DDA5D1A08195919D95CD1A40902404333333333333E33F0000000000000F901074090142907004050250800405405064090740C02480A0B40
1001
ACAD
1000
AcDbSavedByObjectVersion
1070
     0
  0
ACAD_PROXY_OBJECT
  5
10069
102
{ACAD_REACTORS
330
10055
102
}
330
10055
100
AcDbProxyObject
 90
      499
 91
      501
 93
      532
310
4394DA1859195CC81BD98811DC985E5174090240C333333333333E33F0000000000000F901079024090741D01000000000000111010841D405064090740C02480A0340
1001
ACAD
1000
AcDbSavedByObjectVersion
1070
     0
  0
ACAD_PROXY_OBJECT
  5
1006A
102
{ACAD_REACTORS
330
10055
102
}
330
10055
100
AcDbProxyObject
 90
      499
 91
      501
 93
      476
310
41D4DAD95D18DA1E51840502408333333333333E33F0000000000000F901079024090741D01000000000000111010B41D405064090741802480A0340
1001
ACAD
1000
AcDbSavedByObjectVersion
1070
     0
  0
ACAD_PROXY_OBJECT
  5
10062
102
{ACAD_REACTORS
330
10055
102
}
330
10055
100
AcDbProxyObject
 90
      499
 91
      501
 93
      412
310
41D51A1A58DAD95B90D409028333333333333E33F0000000000000F9010790141107004050150C41D405064090741402480A0350
1001
ACAD
1000
AcDbSavedByObjectVersion
1070
     0
  0
ACAD_PROXY_OBJECT
  5
1005B
102
{ACAD_REACTORS
330
10055
102
}
330
10055
100
AcDbProxyObject
 90
      499
 91
      501
 93
      420
310
4255DA5C99599C985B595059028333333333333E33F0000000000000F90107901411070040501600405405064090740C02480A0340
1001
ACAD
1000
AcDbSavedByObjectVersion
1070
     0
  0
ACAD_PROXY_OBJECT
  5
1006B
102
{ACAD_REACTORS
330
10055
102
}
330
10055
100
AcDbProxyObject
 90
      499
 91
      501
 93
      404
310
41560B54985E51940902404000000000000E03F0000000000000F9010740501907004050150841D405064090740C02480A1B40
1001
ACAD
1000
AcDbSavedByObjectVersion
1070
     0
  0
XRECORD
  5
10118
102
{ACAD_REACTORS
330
1010E
102
}
330
1010E
100
AcDbXrecord
340
0
  0
XRECORD
  5
10117
102
{ACAD_REACTORS
330
1010E
102
}
330
1010E
100
AcDbXrecord
 90
        0
  0
XRECORD
  5
1012E
102
{ACAD_REACTORS
330
1010E
102
}
330
1010E
100
AcDbXrecord
1000
DSTYLE
1002
{
1070
   176
 70
   178
1070
   177
 70
   178
1070
   178
 70
   178
1070
   340
340
1003D
1002
}
  0
XRECORD
  5
10119
102
{ACAD_REACTORS
330
1010E
102
}
330
1010E
100
AcDbXrecord
  1
{41681dc2-aa54-9745-b606-4e56f15a715d}
  0
XRECORD
  5
10111
102
{ACAD_REACTORS
330
1010E
102
}
330
1010E
100
AcDbXrecord
  1

  0
XRECORD
  5
10116
102
{ACAD_REACTORS
330
1010E
102
}
330
1010E
100
AcDbXrecord
 90
        4
  0
XRECORD
  5
10113
102
{ACAD_REACTORS
330
1010E
102
}
330
1010E
100
AcDbXrecord
340
10045
  0
XRECORD
  5
10115
102
{ACAD_REACTORS
330
1010E
102
}
330
1010E
100
AcDbXrecord
 90
    10781
  0
XRECORD
  5
10114
102
{ACAD_REACTORS
330
1010E
102
}
330
1010E
100
AcDbXrecord
340
10044
  0
XRECORD
  5
1011B
102
{ACAD_REACTORS
330
1010E
102
}
330
1010E
100
AcDbXrecord
 40
0.0
  0
XRECORD
  5
1011E
102
{ACAD_REACTORS
330
1010E
102
}
330
1010E
100
AcDbXrecord
340
0
  0
XRECORD
  5
10124
102
{ACAD_REACTORS
330
1010E
102
}
330
1010E
100
AcDbXrecord
 10
0.0
 20
0.0
 30
0.0
  0
XRECORD
  5
10120
102
{ACAD_REACTORS
330
1010E
102
}
330
1010E
100
AcDbXrecord
 10
0.0
 20
0.0
 30
0.0
  0
XRECORD
  5
10123
102
{ACAD_REACTORS
330
1010E
102
}
330
1010E
100
AcDbXrecord
 10
0.0
 20
0.0
 30
0.0
  0
XRECORD
  5
10121
102
{ACAD_REACTORS
330
1010E
102
}
330
1010E
100
AcDbXrecord
 10
0.0
 20
0.0
 30
0.0
  0
XRECORD
  5
10122
102
{ACAD_REACTORS
330
1010E
102
}
330
1010E
100
AcDbXrecord
 10
0.0
 20
0.0
 30
0.0
  0
XRECORD
  5
1011F
102
{ACAD_REACTORS
330
1010E
102
}
330
1010E
100
AcDbXrecord
 10
0.0
 20
0.0
 30
0.0
  0
XRECORD
  5
1011C
102
{ACAD_REACTORS
330
1010E
102
}
330
1010E
100
AcDbXrecord
340
0
  0
XRECORD
  5
1011D
102
{ACAD_REACTORS
330
1010E
102
}
330
1010E
100
AcDbXrecord
 70
     0
  0
XRECORD
  5
10112
102
{ACAD_REACTORS
330
1010E
102
}
330
1010E
100
AcDbXrecord
  1

  0
XRECORD
  5
1010F
102
{ACAD_REACTORS
330
1010E
102
}
330
1010E
100
AcDbXrecord
 90
        1
  0
XRECORD
  5
10110
102
{ACAD_REACTORS
330
1010E
102
}
330
1010E
100
AcDbXrecord
 90
       70
  0
XRECORD
  5
10127
102
{ACAD_REACTORS
330
1010E
102
}
330
1010E
100
AcDbXrecord
340
0
  0
XRECORD
  5
1012D
102
{ACAD_REACTORS
330
1010E
102
}
330
1010E
100
AcDbXrecord
 10
0.0
 20
0.0
 30
0.0
  0
XRECORD
  5
10129
102
{ACAD_REACTORS
330
1010E
102
}
330
1010E
100
AcDbXrecord
 10
0.0
 20
0.0
 30
0.0
  0
XRECORD
  5
1012C
102
{ACAD_REACTORS
330
1010E
102
}
330
1010E
100
AcDbXrecord
 10
0.0
 20
0.0
 30
0.0
  0
XRECORD
  5
1012A
102
{ACAD_REACTORS
330
1010E
102
}
330
1010E
100
AcDbXrecord
 10
0.0
 20
0.0
 30
0.0
  0
XRECORD
  5
1012B
102
{ACAD_REACTORS
330
1010E
102
}
330
1010E
100
AcDbXrecord
 10
0.0
 20
0.0
 30
0.0
  0
XRECORD
  5
10128
102
{ACAD_REACTORS
330
1010E
102
}
330
1010E
100
AcDbXrecord
 10
0.0
 20
0.0
 30
0.0
  0
XRECORD
  5
10125
102
{ACAD_REACTORS
330
1010E
102
}
330
1010E
100
AcDbXrecord
340
0
  0
XRECORD
  5
10126
102
{ACAD_REACTORS
330
1010E
102
}
330
1010E
100
AcDbXrecord
 70
     0
  0
XRECORD
  5
1011A
102
{ACAD_REACTORS
330
1010E
102
}
330
1010E
100
AcDbXrecord
  1
{FAEB1C32-E019-11D5-929B-00C0DF256EC4}
  0
DICTIONARYVAR
  5
10139
102
{ACAD_REACTORS
330
1012F
102
}
330
1012F
100
DictionaryVariables
280
     0
  1
1:1
  0
DICTIONARYVAR
  5
10131
102
{ACAD_REACTORS
330
1012F
102
}
330
1012F
100
DictionaryVariables
280
     0
  1
Standard
  0
DICTIONARYVAR
  5
10130
102
{ACAD_REACTORS
330
1012F
102
}
330
1012F
100
DictionaryVariables
280
     0
  1
Standard
  0
DICTIONARYVAR
  5
10134
102
{ACAD_REACTORS
330
1012F
102
}
330
1012F
100
DictionaryVariables
280
     0
  1
2
  0
DICTIONARYVAR
  5
10135
102
{ACAD_REACTORS
330
1012F
102
}
330
1012F
100
DictionaryVariables
280
     0
  1
1
  0
DICTIONARYVAR
  5
1013A
102
{ACAD_REACTORS
330
1012F
102
}
330
1012F
100
DictionaryVariables
280
     0
  1
1
  0
XRECORD
  5
1009C
102
{ACAD_REACTORS
330
1009A
102
}
330
1009A
100
AcDbXrecord
1000
#ffffff
  0
XRECORD
  5
1009D
102
{ACAD_REACTORS
330
1009A
102
}
330
1009A
100
AcDbXrecord
1000
FullColor
  0
ACAD_PROXY_OBJECT
  5
1009E
102
{ACAD_REACTORS
330
1009A
102
}
330
1009A
100
AcDbProxyObject
 90
      499
 91
      508
 93
       34
310
40C8804040
  0
ACAD_PROXY_OBJECT
  5
1009F
102
{ACAD_REACTORS
330
1009A
102
}
330
1009A
100
AcDbProxyObject
 90
      499
 91
      508
 93
       34
310
40C8804040
  0
ACAD_PROXY_OBJECT
  5
100A0
102
{ACAD_REACTORS
330
1009A
102
}
330
1009A
100
AcDbProxyObject
 90
      499
 91
      508
 93
       34
310
40C8804040
  0
ACAD_PROXY_OBJECT
  5
100A1
102
{ACAD_REACTORS
330
1009A
102
}
330
1009A
100
AcDbProxyObject
 90
      499
 91
      508
 93
       34
310
40C8804040
  0
XRECORD
  5
100A2
102
{ACAD_REACTORS
330
1009A
102
}
330
1009A
100
AcDbXrecord
1000
auto
  0
XRECORD
  5
100A3
102
{ACAD_REACTORS
330
1009A
102
}
330
1009A
100
AcDbXrecord
1000
auto
  0
XRECORD
  5
100A4
102
{ACAD_REACTORS
330
1009A
102
}
330
1009A
100
AcDbXrecord
1000
auto
  0
XRECORD
  5
100A5
102
{ACAD_REACTORS
330
1009A
102
}
330
1009A
100
AcDbXrecord
1000
auto
  0
XRECORD
  5
100A6
102
{ACAD_REACTORS
330
1009A
102
}
330
1009A
100
AcDbXrecord
1000
auto
  0
XRECORD
  5
100A7
102
{ACAD_REACTORS
330
1009A
102
}
330
1009A
100
AcDbXrecord
1000
auto
  0
XRECORD
  5
100A8
102
{ACAD_REACTORS
330
1009A
102
}
330
1009A
100
AcDbXrecord
1000
auto
  0
XRECORD
  5
100A9
102
{ACAD_REACTORS
330
1009A
102
}
330
1009A
100
AcDbXrecord
1000
auto
  0
ACAD_PROXY_OBJECT
  5
100AA
102
{ACAD_REACTORS
330
1009A
102
}
330
1009A
100
AcDbProxyObject
 90
      499
 91
      508
 93
       34
310
40C8804000
  0
ACAD_PROXY_OBJECT
  5
100AB
102
{ACAD_REACTORS
330
1009A
102
}
330
1009A
100
AcDbProxyObject
 90
      499
 91
      508
 93
       34
310
40C8804000
  0
ACAD_PROXY_OBJECT
  5
100AC
102
{ACAD_REACTORS
330
1009A
102
}
330
1009A
100
AcDbProxyObject
 90
      499
 91
      508
 93
       34
310
40C8804000
  0
ACAD_PROXY_OBJECT
  5
100AD
102
{ACAD_REACTORS
330
1009A
102
}
330
1009A
100
AcDbProxyObject
 90
      499
 91
      508
 93
       34
310
40C8804000
  0
XRECORD
  5
100AE
102
{ACAD_REACTORS
330
1009A
102
}
330
1009A
100
AcDbXrecord
 90
    65537
  0
XRECORD
  5
100AF
102
{ACAD_REACTORS
330
1009A
102
}
330
1009A
100
AcDbXrecord
 90
    65537
  0
XRECORD
  5
100B0
102
{ACAD_REACTORS
330
1009A
102
}
330
1009A
100
AcDbXrecord
 90
    65537
  0
XRECORD
  5
100B1
102
{ACAD_REACTORS
330
1009A
102
}
330
1009A
100
AcDbXrecord
 90
    65537
  0
XRECORD
  5
100B2
102
{ACAD_REACTORS
330
1009A
102
}
330
1009A
100
AcDbXrecord
1000
auto
  0
XRECORD
  5
100B3
102
{ACAD_REACTORS
330
1009A
102
}
330
1009A
100
AcDbXrecord
1000
auto
  0
XRECORD
  5
100B4
102
{ACAD_REACTORS
330
1009A
102
}
330
1009A
100
AcDbXrecord
1000
auto
  0
XRECORD
  5
100B5
102
{ACAD_REACTORS
330
1009A
102
}
330
1009A
100
AcDbXrecord
1000
auto
  0
XRECORD
  5
100B6
102
{ACAD_REACTORS
330
1009A
102
}
330
1009A
100
AcDbXrecord
1000
auto
  0
XRECORD
  5
100B7
102
{ACAD_REACTORS
330
1009A
102
}
330
1009A
100
AcDbXrecord
1000
auto
  0
XRECORD
  5
100B8
102
{ACAD_REACTORS
330
1009A
102
}
330
1009A
100
AcDbXrecord
1000
auto
  0
XRECORD
  5
100B9
102
{ACAD_REACTORS
330
1009A
102
}
330
1009A
100
AcDbXrecord
1000
auto
  0
XRECORD
  5
100BA
102
{ACAD_REACTORS
330
1009A
102
}
330
1009A
100
AcDbXrecord
 90
        1
  0
XRECORD
  5
100BC
102
{ACAD_REACTORS
330
1009A
102
}
330
1009A
100
AcDbXrecord
 40
10.0
  0
XRECORD
  5
100BD
102
{ACAD_REACTORS
330
1009A
102
}
330
1009A
100
AcDbXrecord
 40
10.0
  0
XRECORD
  5
100BE
102
{ACAD_REACTORS
330
1009A
102
}
330
1009A
100
AcDbXrecord
 40
10.0
  0
XRECORD
  5
100BB
102
{ACAD_REACTORS
330
1009A
102
}
330
1009A
100
AcDbXrecord
 40
10.0
  0
ACAD_PROXY_OBJECT
  5
100BF
102
{ACAD_REACTORS
330
1009A
102
}
330
1009A
100
AcDbProxyObject
 90
      499
 91
      508
 93
       34
310
40C8804000
  0
XRECORD
  5
100C0
102
{ACAD_REACTORS
330
1009A
102
}
330
1009A
100
AcDbXrecord
 90
        1
  0
XRECORD
  5
100C1
102
{ACAD_REACTORS
330
1009A
102
}
330
1009A
100
AcDbXrecord
 40
0.0
  0
XRECORD
  5
100C2
102
{ACAD_REACTORS
330
1009A
102
}
330
1009A
100
AcDbXrecord
 40
0.0
  0
XRECORD
  5
100C3
102
{ACAD_REACTORS
330
1009A
102
}
330
1009A
100
AcDbXrecord
1000
Portrait
  0
XRECORD
  5
100C4
102
{ACAD_REACTORS
330
1009A
102
}
330
1009A
100
AcDbXrecord
 40
279.4
  0
XRECORD
  5
100C5
102
{ACAD_REACTORS
330
1009A
102
}
330
1009A
100
AcDbXrecord
 40
215.9
  0
XRECORD
  5
100C6
102
{ACAD_REACTORS
330
1009A
102
}
330
1009A
100
AcDbXrecord
1000
1:1
  0
ACAD_PROXY_OBJECT
  5
100C7
102
{ACAD_REACTORS
330
1009A
102
}
330
1009A
100
AcDbProxyObject
 90
      499
 91
      508
 93
       34
310
40C8804040
  0
ACAD_PROXY_OBJECT
  5
100C8
102
{ACAD_REACTORS
330
1009A
102
}
330
1009A
100
AcDbProxyObject
 90
      499
 91
      508
 93
       34
310
40C8804000
  0
XRECORD
  5
100C9
102
{ACAD_REACTORS
330
1009A
102
}
330
1009A
100
AcDbXrecord
1000
Inside
  0
XRECORD
  5
100CA
102
{ACAD_REACTORS
330
1009A
102
}
330
1009A
100
AcDbXrecord
1000
Arial,10,-1,5,50,0,0,0,0,0
  0
XRECORD
  5
100CB
102
{ACAD_REACTORS
330
1009A
102
}
330
1009A
100
AcDbXrecord
1000
TopLeft
  0
XRECORD
  5
1009B
102
{ACAD_REACTORS
330
1009A
102
}
330
1009A
100
AcDbXrecord
1000
3.24.3
  0
XRECORD
  5
100CC
102
{ACAD_REACTORS
330
1009A
102
}
330
1009A
100
AcDbXrecord
 90
        4
  0
XRECORD
  5
100CD
102
{ACAD_REACTORS
330
1009A
102
}
330
1009A
100
AcDbXrecord
  0
XRECORD
  5
100CE
102
{ACAD_REACTORS
330
1009A
102
}
330
1009A
100
AcDbXrecord
 40
623.6443771667579
  0
XRECORD
  5
100CF
102
{ACAD_REACTORS
330
1009A
102
}
330
1009A
100
AcDbXrecord
 40
778.9581109439197
  0
DICTIONARY
  5
1013D
330
10070
100
AcDbDictionary
280
     1
  3
ACAD_XREC_ROUNDTRIP
360
1013E
  0
DICTIONARY
  5
1013B
330
1006F
100
AcDbDictionary
280
     1
  3
ACAD_XREC_ROUNDTRIP
360
1013C
  0
DICTIONARY
  5
1013F
330
10071
100
AcDbDictionary
280
     1
  3
ACAD_XREC_ROUNDTRIP
360
10140
  0
XRECORD
  5
1013E
102
{ACAD_REACTORS
330
1013D
102
}
330
1013D
100
AcDbXrecord
102
MATERIAL
148
0.0
149
0.0
149
0.0
 93
        0
 94
      127
282
     0
 72
     1
 77
     1
171
     1
175
     1
179
     1
273
     0
  0
XRECORD
  5
1013C
102
{ACAD_REACTORS
330
1013B
102
}
330
1013B
100
AcDbXrecord
102
MATERIAL
148
0.0
149
0.0
149
0.0
 93
        0
 94
      127
282
     0
 72
     1
 77
     1
171
     1
175
     1
179
     1
273
     0
  0
XRECORD
  5
10140
102
{ACAD_REACTORS
330
1013F
102
}
330
1013F
100
AcDbXrecord
102
MATERIAL
148
0.0
149
0.0
149
0.0
 93
        0
 94
      127
282
     0
 72
     1
 77
     1
171
     1
175
     1
179
     1
273
     0
  0
ENDSEC
  0
EOF
