%TF.GenerationSoftware,KiCad,Pcbnew,(5.99.0-10088-gf5741b875b)*%
%TF.CreationDate,2021-04-11T22:09:58-07:00*%
%TF.ProjectId,clarabelle_plate_iso_half,636c6172-6162-4656-9c6c-655f706c6174,rev?*%
%TF.SameCoordinates,Original*%
%TF.FileFunction,Legend,Bot*%
%TF.FilePolarity,Positive*%
%FSLAX46Y46*%
G04 Gerber Fmt 4.6, Leading zero omitted, Abs format (unit mm)*
G04 Created by KiCad (PCBNEW (5.99.0-10088-gf5741b875b)) date 2021-04-11 22:09:58*
%MOMM*%
%LPD*%
G01*
G04 APERTURE LIST*
G04 Aperture macros list*
%AMRoundRect*
0 Rectangle with rounded corners*
0 $1 Rounding radius*
0 $2 $3 $4 $5 $6 $7 $8 $9 X,Y pos of 4 corners*
0 Add a 4 corners polygon primitive as box body*
4,1,4,$2,$3,$4,$5,$6,$7,$8,$9,$2,$3,0*
0 Add four circle primitives for the rounded corners*
1,1,$1+$1,$2,$3*
1,1,$1+$1,$4,$5*
1,1,$1+$1,$6,$7*
1,1,$1+$1,$8,$9*
0 Add four rect primitives between the rounded corners*
20,1,$1+$1,$2,$3,$4,$5,0*
20,1,$1+$1,$4,$5,$6,$7,0*
20,1,$1+$1,$6,$7,$8,$9,0*
20,1,$1+$1,$8,$9,$2,$3,0*%
G04 Aperture macros list end*
%ADD10RoundRect,1.008000X6.992000X6.992000X-6.992000X6.992000X-6.992000X-6.992000X6.992000X-6.992000X0*%
%ADD11RoundRect,0.666981X-4.626519X-7.833019X4.626519X-7.833019X4.626519X7.833019X-4.626519X7.833019X0*%
%ADD12RoundRect,1.008000X-16.517000X-6.992000X16.517000X-6.992000X16.517000X6.992000X-16.517000X6.992000X0*%
%ADD13RoundRect,0.630000X4.370000X7.870000X-4.370000X7.870000X-4.370000X-7.870000X4.370000X-7.870000X0*%
%ADD14RoundRect,0.630000X-4.370000X-7.870000X4.370000X-7.870000X4.370000X7.870000X-4.370000X7.870000X0*%
%ADD15RoundRect,1.008000X-15.898250X-6.992000X15.898250X-6.992000X15.898250X6.992000X-15.898250X6.992000X0*%
%ADD16RoundRect,1.008000X6.992000X-15.898250X6.992000X15.898250X-6.992000X15.898250X-6.992000X-15.898250X0*%
%ADD17RoundRect,0.630000X7.870000X-4.370000X7.870000X4.370000X-7.870000X4.370000X-7.870000X-4.370000X0*%
G04 APERTURE END LIST*
%LPC*%
D10*
%TO.C,REF\u002A\u002A*%
X93512496Y-126350000D03*
%TD*%
D11*
%TO.C,REF\u002A\u002A*%
X77168996Y-162950000D03*
X52705996Y-162950000D03*
D12*
X64937496Y-164450000D03*
%TD*%
D10*
%TO.C,REF\u002A\u002A*%
X143518746Y-145400000D03*
%TD*%
%TO.C,REF\u002A\u002A*%
X381643746Y-145400000D03*
%TD*%
%TO.C,REF\u002A\u002A*%
X388787496Y-164450000D03*
%TD*%
%TO.C,REF\u002A\u002A*%
X117324996Y-150162500D03*
%TD*%
%TO.C,REF\u002A\u002A*%
X55412496Y-126350000D03*
%TD*%
%TO.C,REF\u002A\u002A*%
X93512496Y-145400000D03*
%TD*%
%TO.C,REF\u002A\u002A*%
X55412496Y-107300000D03*
%TD*%
%TO.C,REF\u002A\u002A*%
X207812496Y-164450000D03*
D13*
X322112496Y-162950000D03*
D10*
X264962496Y-164450000D03*
X322112496Y-164450000D03*
D13*
X207812496Y-162950000D03*
D14*
X226862496Y-162950000D03*
X298299996Y-162950000D03*
D15*
X238768746Y-164450000D03*
X286393746Y-164450000D03*
D14*
X250674996Y-162950000D03*
X274487496Y-162950000D03*
%TD*%
D10*
%TO.C,REF\u002A\u002A*%
X55412496Y-145400000D03*
%TD*%
%TO.C,REF\u002A\u002A*%
X117324996Y-169212500D03*
%TD*%
%TO.C,REF\u002A\u002A*%
X74462496Y-107300000D03*
%TD*%
%TO.C,REF\u002A\u002A*%
X345924996Y-164450000D03*
%TD*%
%TO.C,REF\u002A\u002A*%
X160187496Y-164450000D03*
%TD*%
D16*
%TO.C,REF\u002A\u002A*%
X386406246Y-116825000D03*
D17*
X384906246Y-104918750D03*
X384906246Y-128731250D03*
%TD*%
D10*
%TO.C,REF\u002A\u002A*%
X117324996Y-107300000D03*
%TD*%
%TO.C,REF\u002A\u002A*%
X93512496Y-107300000D03*
%TD*%
%TO.C,REF\u002A\u002A*%
X136374996Y-169212500D03*
%TD*%
%TO.C,REF\u002A\u002A*%
X369737496Y-164450000D03*
%TD*%
%TO.C,REF\u002A\u002A*%
X183999996Y-164450000D03*
%TD*%
%TO.C,REF\u002A\u002A*%
X145899996Y-107300000D03*
%TD*%
%TO.C,REF\u002A\u002A*%
X74462496Y-145400000D03*
%TD*%
%TO.C,REF\u002A\u002A*%
X143518746Y-126350000D03*
X148281246Y-126350000D03*
%TD*%
%TO.C,REF\u002A\u002A*%
X98274996Y-169212500D03*
%TD*%
%TO.C,REF\u002A\u002A*%
X74462496Y-126350000D03*
%TD*%
M02*
