%TF.GenerationSoftware,KiCad,Pcbnew,(5.99.0-10088-gf5741b875b)*%
%TF.CreationDate,2021-04-11T22:09:58-07:00*%
%TF.ProjectId,clarabelle_plate_iso_half,636c6172-6162-4656-9c6c-655f706c6174,rev?*%
%TF.SameCoordinates,Original*%
%TF.FileFunction,Profile,NP*%
%FSLAX46Y46*%
G04 Gerber Fmt 4.6, Leading zero omitted, Abs format (unit mm)*
G04 Created by KiCad (PCBNEW (5.99.0-10088-gf5741b875b)) date 2021-04-11 22:09:58*
%MOMM*%
%LPD*%
G01*
G04 APERTURE LIST*
%TA.AperFunction,Profile*%
%ADD10C,0.050000*%
%TD*%
G04 APERTURE END LIST*
D10*
X255900996Y-178237500D02*
G75*
G02*
X257100996Y-179437500I0J-1200000D01*
G01*
X187100996Y-179437500D02*
G75*
G02*
X188300996Y-178237500I1200000J0D01*
G01*
X257100996Y-180037500D02*
G75*
G02*
X255900996Y-181237500I-1200000J0D01*
G01*
X370543746Y-138400000D02*
G75*
G02*
X371043746Y-138900000I0J-500000D01*
G01*
X67968746Y-92012501D02*
G75*
G03*
X67968746Y-92012501I-1125000J0D01*
G01*
X124324996Y-131875000D02*
G75*
G02*
X120324996Y-135875000I-4000000J0D01*
G01*
X394978496Y-92312501D02*
X394978496Y-91712501D01*
X255899996Y-90512501D02*
G75*
G02*
X257099996Y-91712501I0J-1200000D01*
G01*
X237100996Y-179437500D02*
G75*
G02*
X238300996Y-178237500I1200000J0D01*
G01*
X399600507Y-86725001D02*
G75*
G02*
X402600496Y-89720471I4516J-2995470D01*
G01*
X49221621Y-91712501D02*
X49221621Y-92312501D01*
X255899996Y-90512501D02*
X238299996Y-90512501D01*
X158499996Y-113800000D02*
G75*
G02*
X157999996Y-114300000I-500000J0D01*
G01*
X58021621Y-90512501D02*
X50421621Y-90512501D01*
X238300996Y-181237500D02*
X255900996Y-181237500D01*
X188300996Y-181237500D02*
X205900996Y-181237500D01*
X207100996Y-180037500D02*
G75*
G02*
X205900996Y-181237500I-1200000J0D01*
G01*
X386178496Y-93512501D02*
X393778496Y-93512501D01*
X237100996Y-179437500D02*
X237100996Y-180037500D01*
X399600506Y-185024999D02*
X44599497Y-185024999D01*
X50421621Y-181237500D02*
X58021621Y-181237500D01*
X257099996Y-92312501D02*
X257099996Y-91712501D01*
X59221621Y-92312501D02*
G75*
G02*
X58021621Y-93512501I-1200000J0D01*
G01*
X58021621Y-178237500D02*
G75*
G02*
X59221621Y-179437500I0J-1200000D01*
G01*
X120324996Y-121588000D02*
G75*
G02*
X124324996Y-125588000I0J-4000000D01*
G01*
X257099996Y-92312501D02*
G75*
G02*
X255899996Y-93512501I-1200000J0D01*
G01*
X237099996Y-91712501D02*
X237099996Y-92312501D01*
X371424996Y-100800000D02*
X371424996Y-113800000D01*
X158499996Y-113800000D02*
X158499996Y-100800000D01*
X223225996Y-179737500D02*
G75*
G03*
X223225996Y-179737500I-1125000J0D01*
G01*
X207099996Y-92312501D02*
X207099996Y-91712501D01*
X49221621Y-179437500D02*
X49221621Y-180037500D01*
X114324996Y-135875000D02*
X120324996Y-135875000D01*
X205900996Y-178237500D02*
G75*
G02*
X207100996Y-179437500I0J-1200000D01*
G01*
X110324996Y-125588000D02*
G75*
G02*
X114324996Y-121588000I4000000J0D01*
G01*
X386178496Y-181237500D02*
G75*
G02*
X384978496Y-180037500I0J1200000D01*
G01*
X114324996Y-135875000D02*
G75*
G02*
X110324996Y-131875000I0J4000000D01*
G01*
X49221621Y-91712501D02*
G75*
G02*
X50421621Y-90512501I1200000J0D01*
G01*
X187099996Y-91712501D02*
G75*
G02*
X188299996Y-90512501I1200000J0D01*
G01*
X393778496Y-178237500D02*
G75*
G02*
X394978496Y-179437500I0J-1200000D01*
G01*
X238299996Y-93512501D02*
X255899996Y-93512501D01*
X207100996Y-180037500D02*
X207100996Y-179437500D01*
X124324996Y-131875000D02*
X124324996Y-125588000D01*
X402600496Y-89720471D02*
X402600503Y-182029514D01*
X378481496Y-92012501D02*
G75*
G03*
X378481496Y-92012501I-1125000J0D01*
G01*
X371924996Y-114300000D02*
G75*
G02*
X371424996Y-113800000I0J500000D01*
G01*
X394978496Y-180037500D02*
G75*
G02*
X393778496Y-181237500I-1200000J0D01*
G01*
X223224996Y-92012501D02*
G75*
G03*
X223224996Y-92012501I-1125000J0D01*
G01*
X373424996Y-113800000D02*
G75*
G02*
X372924996Y-114300000I-500000J0D01*
G01*
X371043746Y-151900000D02*
X371043746Y-138900000D01*
X369043746Y-138900000D02*
G75*
G02*
X369543746Y-138400000I500000J0D01*
G01*
X393778496Y-178237500D02*
X386178496Y-178237500D01*
X50421621Y-93512501D02*
X58021621Y-93512501D01*
X120324996Y-121588000D02*
X114324996Y-121588000D01*
X384978496Y-91712501D02*
G75*
G02*
X386178496Y-90512501I1200000J0D01*
G01*
X49221621Y-179437500D02*
G75*
G02*
X50421621Y-178237500I1200000J0D01*
G01*
X369543746Y-152400000D02*
G75*
G02*
X369043746Y-151900000I0J500000D01*
G01*
X44599497Y-185024999D02*
G75*
G02*
X41599497Y-182024999I0J3000000D01*
G01*
X188299996Y-93512501D02*
X205899996Y-93512501D01*
X59221621Y-180037500D02*
X59221621Y-179437500D01*
X205899996Y-90512501D02*
G75*
G02*
X207099996Y-91712501I0J-1200000D01*
G01*
X257100996Y-180037500D02*
X257100996Y-179437500D01*
X157999996Y-100300000D02*
G75*
G02*
X158499996Y-100800000I0J-500000D01*
G01*
X402600503Y-182029514D02*
G75*
G02*
X399600506Y-185024999I-2999997J4515D01*
G01*
X393778496Y-90512501D02*
G75*
G02*
X394978496Y-91712501I0J-1200000D01*
G01*
X156499996Y-100800000D02*
X156499996Y-113800000D01*
X41599497Y-182024999D02*
X41599497Y-89725001D01*
X205899996Y-90512501D02*
X188299996Y-90512501D01*
X371043746Y-151900000D02*
G75*
G02*
X370543746Y-152400000I-500000J0D01*
G01*
X384978496Y-179437500D02*
G75*
G02*
X386178496Y-178237500I1200000J0D01*
G01*
X255900996Y-178237500D02*
X238300996Y-178237500D01*
X156499996Y-100800000D02*
G75*
G02*
X156999996Y-100300000I500000J0D01*
G01*
X205900996Y-178237500D02*
X188300996Y-178237500D01*
X58021621Y-178237500D02*
X50421621Y-178237500D01*
X59221621Y-92312501D02*
X59221621Y-91712501D01*
X110324996Y-125588000D02*
X110324996Y-131875000D01*
X371424996Y-100800000D02*
G75*
G02*
X371924996Y-100300000I500000J0D01*
G01*
X238300996Y-181237500D02*
G75*
G02*
X237100996Y-180037500I0J1200000D01*
G01*
X67968746Y-179737500D02*
G75*
G03*
X67968746Y-179737500I-1125000J0D01*
G01*
X394978496Y-92312501D02*
G75*
G02*
X393778496Y-93512501I-1200000J0D01*
G01*
X156999996Y-114300000D02*
G75*
G02*
X156499996Y-113800000I0J500000D01*
G01*
X50421621Y-93512501D02*
G75*
G02*
X49221621Y-92312501I0J1200000D01*
G01*
X188299996Y-93512501D02*
G75*
G02*
X187099996Y-92312501I0J1200000D01*
G01*
X238299996Y-93512501D02*
G75*
G02*
X237099996Y-92312501I0J1200000D01*
G01*
X384978496Y-91712501D02*
X384978496Y-92312501D01*
X372924996Y-100300000D02*
X371924996Y-100300000D01*
X370543746Y-138400000D02*
X369543746Y-138400000D01*
X59221621Y-180037500D02*
G75*
G02*
X58021621Y-181237500I-1200000J0D01*
G01*
X237099996Y-91712501D02*
G75*
G02*
X238299996Y-90512501I1200000J0D01*
G01*
X384978496Y-179437500D02*
X384978496Y-180037500D01*
X187100996Y-179437500D02*
X187100996Y-180037500D01*
X386178496Y-93512501D02*
G75*
G02*
X384978496Y-92312501I0J1200000D01*
G01*
X378481496Y-179737500D02*
G75*
G03*
X378481496Y-179737500I-1125000J0D01*
G01*
X369543746Y-152400000D02*
X370543746Y-152400000D01*
X41599497Y-89725001D02*
G75*
G02*
X44599497Y-86725001I3000000J0D01*
G01*
X50421621Y-181237500D02*
G75*
G02*
X49221621Y-180037500I0J1200000D01*
G01*
X187099996Y-91712501D02*
X187099996Y-92312501D01*
X188300996Y-181237500D02*
G75*
G02*
X187100996Y-180037500I0J1200000D01*
G01*
X371924996Y-114300000D02*
X372924996Y-114300000D01*
X156999996Y-114300000D02*
X157999996Y-114300000D01*
X386178496Y-181237500D02*
X393778496Y-181237500D01*
X394978496Y-180037500D02*
X394978496Y-179437500D01*
X373424996Y-113800000D02*
X373424996Y-100800000D01*
X157999996Y-100300000D02*
X156999996Y-100300000D01*
X58021621Y-90512501D02*
G75*
G02*
X59221621Y-91712501I0J-1200000D01*
G01*
X393778496Y-90512501D02*
X386178496Y-90512501D01*
X207099996Y-92312501D02*
G75*
G02*
X205899996Y-93512501I-1200000J0D01*
G01*
X44599497Y-86725001D02*
X399600507Y-86725001D01*
X369043746Y-138900000D02*
X369043746Y-151900000D01*
X372924996Y-100300000D02*
G75*
G02*
X373424996Y-100800000I0J-500000D01*
G01*
%TO.C,REF\u002A\u002A*%
X100012496Y-119350000D02*
X87012496Y-119350000D01*
X87012496Y-133350000D02*
X100012496Y-133350000D01*
X86512496Y-119850000D02*
X86512496Y-132850000D01*
X100512496Y-132850000D02*
X100512496Y-119850000D01*
X87012496Y-133350000D02*
G75*
G02*
X86512496Y-132850000I0J500000D01*
G01*
X100012496Y-119350000D02*
G75*
G02*
X100512496Y-119850000I0J-500000D01*
G01*
X100512496Y-132850000D02*
G75*
G02*
X100012496Y-133350000I-500000J0D01*
G01*
X86512496Y-119850000D02*
G75*
G02*
X87012496Y-119350000I500000J0D01*
G01*
X81462496Y-170950000D02*
X81462496Y-155950000D01*
X48912496Y-171450000D02*
X80962496Y-171450000D01*
X56999496Y-156950000D02*
X56999496Y-155950000D01*
X72375496Y-157450000D02*
X57499496Y-157450000D01*
X48412496Y-155950000D02*
X48412496Y-170950000D01*
X72875496Y-155950000D02*
X72875496Y-156950000D01*
X80962496Y-155450000D02*
X73375496Y-155450000D01*
X56499496Y-155450000D02*
X48912496Y-155450000D01*
X72875496Y-156950000D02*
G75*
G02*
X72375496Y-157450000I-500000J0D01*
G01*
X57499496Y-157450000D02*
G75*
G02*
X56999496Y-156950000I0J500000D01*
G01*
X48412496Y-155950000D02*
G75*
G02*
X48912496Y-155450000I500000J0D01*
G01*
X72875496Y-155950000D02*
G75*
G02*
X73375496Y-155450000I500000J0D01*
G01*
X48912496Y-171450000D02*
G75*
G02*
X48412496Y-170950000I0J500000D01*
G01*
X80962496Y-155450000D02*
G75*
G02*
X81462496Y-155950000I0J-500000D01*
G01*
X81462496Y-170950000D02*
G75*
G02*
X80962496Y-171450000I-500000J0D01*
G01*
X56499496Y-155450000D02*
G75*
G02*
X56999496Y-155950000I0J-500000D01*
G01*
X137018746Y-152400000D02*
X150018746Y-152400000D01*
X150018746Y-138400000D02*
X137018746Y-138400000D01*
X136518746Y-138900000D02*
X136518746Y-151900000D01*
X150518746Y-151900000D02*
X150518746Y-138900000D01*
X137018746Y-152400000D02*
G75*
G02*
X136518746Y-151900000I0J500000D01*
G01*
X150518746Y-151900000D02*
G75*
G02*
X150018746Y-152400000I-500000J0D01*
G01*
X150018746Y-138400000D02*
G75*
G02*
X150518746Y-138900000I0J-500000D01*
G01*
X136518746Y-138900000D02*
G75*
G02*
X137018746Y-138400000I500000J0D01*
G01*
X375143746Y-152400000D02*
X388143746Y-152400000D01*
X374643746Y-138900000D02*
X374643746Y-151900000D01*
X388643746Y-151900000D02*
X388643746Y-138900000D01*
X388143746Y-138400000D02*
X375143746Y-138400000D01*
X374643746Y-138900000D02*
G75*
G02*
X375143746Y-138400000I500000J0D01*
G01*
X388643746Y-151900000D02*
G75*
G02*
X388143746Y-152400000I-500000J0D01*
G01*
X388143746Y-138400000D02*
G75*
G02*
X388643746Y-138900000I0J-500000D01*
G01*
X375143746Y-152400000D02*
G75*
G02*
X374643746Y-151900000I0J500000D01*
G01*
X395287496Y-157450000D02*
X382287496Y-157450000D01*
X382287496Y-171450000D02*
X395287496Y-171450000D01*
X395787496Y-170950000D02*
X395787496Y-157950000D01*
X381787496Y-157950000D02*
X381787496Y-170950000D01*
X395787496Y-170950000D02*
G75*
G02*
X395287496Y-171450000I-500000J0D01*
G01*
X381787496Y-157950000D02*
G75*
G02*
X382287496Y-157450000I500000J0D01*
G01*
X395287496Y-157450000D02*
G75*
G02*
X395787496Y-157950000I0J-500000D01*
G01*
X382287496Y-171450000D02*
G75*
G02*
X381787496Y-170950000I0J500000D01*
G01*
X123824996Y-143162500D02*
X110824996Y-143162500D01*
X110324996Y-143662500D02*
X110324996Y-156662500D01*
X124324996Y-156662500D02*
X124324996Y-143662500D01*
X110824996Y-157162500D02*
X123824996Y-157162500D01*
X110824996Y-157162500D02*
G75*
G02*
X110324996Y-156662500I0J500000D01*
G01*
X124324996Y-156662500D02*
G75*
G02*
X123824996Y-157162500I-500000J0D01*
G01*
X123824996Y-143162500D02*
G75*
G02*
X124324996Y-143662500I0J-500000D01*
G01*
X110324996Y-143662500D02*
G75*
G02*
X110824996Y-143162500I500000J0D01*
G01*
X61912496Y-119350000D02*
X48912496Y-119350000D01*
X62412496Y-132850000D02*
X62412496Y-119850000D01*
X48912496Y-133350000D02*
X61912496Y-133350000D01*
X48412496Y-119850000D02*
X48412496Y-132850000D01*
X48412496Y-119850000D02*
G75*
G02*
X48912496Y-119350000I500000J0D01*
G01*
X48912496Y-133350000D02*
G75*
G02*
X48412496Y-132850000I0J500000D01*
G01*
X61912496Y-119350000D02*
G75*
G02*
X62412496Y-119850000I0J-500000D01*
G01*
X62412496Y-132850000D02*
G75*
G02*
X61912496Y-133350000I-500000J0D01*
G01*
X86512496Y-138900000D02*
X86512496Y-151900000D01*
X100512496Y-151900000D02*
X100512496Y-138900000D01*
X87012496Y-152400000D02*
X100012496Y-152400000D01*
X100012496Y-138400000D02*
X87012496Y-138400000D01*
X100012496Y-138400000D02*
G75*
G02*
X100512496Y-138900000I0J-500000D01*
G01*
X86512496Y-138900000D02*
G75*
G02*
X87012496Y-138400000I500000J0D01*
G01*
X100512496Y-151900000D02*
G75*
G02*
X100012496Y-152400000I-500000J0D01*
G01*
X87012496Y-152400000D02*
G75*
G02*
X86512496Y-151900000I0J500000D01*
G01*
X48912496Y-114300000D02*
X61912496Y-114300000D01*
X48412496Y-100800000D02*
X48412496Y-113800000D01*
X62412496Y-113800000D02*
X62412496Y-100800000D01*
X61912496Y-100300000D02*
X48912496Y-100300000D01*
X48912496Y-114300000D02*
G75*
G02*
X48412496Y-113800000I0J500000D01*
G01*
X61912496Y-100300000D02*
G75*
G02*
X62412496Y-100800000I0J-500000D01*
G01*
X48412496Y-100800000D02*
G75*
G02*
X48912496Y-100300000I500000J0D01*
G01*
X62412496Y-113800000D02*
G75*
G02*
X61912496Y-114300000I-500000J0D01*
G01*
X314612496Y-167950000D02*
X307706246Y-167950000D01*
X230830746Y-156950000D02*
X230830746Y-155950000D01*
X222830746Y-155950000D02*
X222830746Y-170950000D01*
X211312496Y-155450000D02*
X204312496Y-155450000D01*
X326612496Y-157450000D02*
X328612496Y-157450000D01*
X269955746Y-157450000D02*
X258462496Y-157450000D01*
X278455746Y-156950000D02*
X278455746Y-155950000D01*
X246206746Y-157450000D02*
X231330746Y-157450000D01*
X257962496Y-157950000D02*
X257962496Y-170950000D01*
X315612496Y-157450000D02*
X317612496Y-157450000D01*
X293831746Y-157450000D02*
X278955746Y-157450000D01*
X201312496Y-171450000D02*
X214312496Y-171450000D01*
X203812496Y-155950000D02*
X203812496Y-156950000D01*
X302331746Y-170950000D02*
X302331746Y-155950000D01*
X214812496Y-170950000D02*
X214812496Y-157950000D01*
X223330746Y-171450000D02*
X254206746Y-171450000D01*
X246706746Y-155950000D02*
X246706746Y-156950000D01*
X258462496Y-171450000D02*
X301831746Y-171450000D01*
X328612496Y-171450000D02*
X315612496Y-171450000D01*
X307206246Y-167450000D02*
X307206246Y-161450000D01*
X277955746Y-155450000D02*
X270955746Y-155450000D01*
X214312496Y-157450000D02*
X212312496Y-157450000D01*
X301831746Y-155450000D02*
X294831746Y-155450000D01*
X326112496Y-155950000D02*
X326112496Y-156950000D01*
X203312496Y-157450000D02*
X201312496Y-157450000D01*
X318612496Y-155450000D02*
X325612496Y-155450000D01*
X294331746Y-155950000D02*
X294331746Y-156950000D01*
X211812496Y-156950000D02*
X211812496Y-155950000D01*
X329112496Y-157950000D02*
X329112496Y-170950000D01*
X254206746Y-155450000D02*
X247206746Y-155450000D01*
X270455746Y-155950000D02*
X270455746Y-156950000D01*
X230330746Y-155450000D02*
X223330746Y-155450000D01*
X318112496Y-156950000D02*
X318112496Y-155950000D01*
X200812496Y-157950000D02*
X200812496Y-170950000D01*
X315112496Y-160450000D02*
X315112496Y-157950000D01*
X315112496Y-170950000D02*
X315112496Y-168450000D01*
X307706246Y-160950000D02*
X314612496Y-160950000D01*
X254706746Y-170950000D02*
X254706746Y-155950000D01*
X254206746Y-155450000D02*
G75*
G02*
X254706746Y-155950000I0J-500000D01*
G01*
X231330746Y-157450000D02*
G75*
G02*
X230830746Y-156950000I0J500000D01*
G01*
X254706746Y-170950000D02*
G75*
G02*
X254206746Y-171450000I-500000J0D01*
G01*
X203812496Y-156950000D02*
G75*
G02*
X203312496Y-157450000I-500000J0D01*
G01*
X294331746Y-156950000D02*
G75*
G02*
X293831746Y-157450000I-500000J0D01*
G01*
X230330746Y-155450000D02*
G75*
G02*
X230830746Y-155950000I0J-500000D01*
G01*
X203812496Y-155950000D02*
G75*
G02*
X204312496Y-155450000I500000J0D01*
G01*
X302331746Y-170950000D02*
G75*
G02*
X301831746Y-171450000I-500000J0D01*
G01*
X307706246Y-167950000D02*
G75*
G02*
X307206246Y-167450000I0J500000D01*
G01*
X278955746Y-157450000D02*
G75*
G02*
X278455746Y-156950000I0J500000D01*
G01*
X211312496Y-155450000D02*
G75*
G02*
X211812496Y-155950000I0J-500000D01*
G01*
X212312496Y-157450000D02*
G75*
G02*
X211812496Y-156950000I0J500000D01*
G01*
X294331746Y-155950000D02*
G75*
G02*
X294831746Y-155450000I500000J0D01*
G01*
X201312496Y-171450000D02*
G75*
G02*
X200812496Y-170950000I0J500000D01*
G01*
X315112496Y-157950000D02*
G75*
G02*
X315612496Y-157450000I500000J0D01*
G01*
X246706746Y-155950000D02*
G75*
G02*
X247206746Y-155450000I500000J0D01*
G01*
X214812496Y-170950000D02*
G75*
G02*
X214312496Y-171450000I-500000J0D01*
G01*
X318112496Y-155950000D02*
G75*
G02*
X318612496Y-155450000I500000J0D01*
G01*
X315112496Y-160450000D02*
G75*
G02*
X314612496Y-160950000I-500000J0D01*
G01*
X258462496Y-171450000D02*
G75*
G02*
X257962496Y-170950000I0J500000D01*
G01*
X223330746Y-171450000D02*
G75*
G02*
X222830746Y-170950000I0J500000D01*
G01*
X314612496Y-167950000D02*
G75*
G02*
X315112496Y-168450000I0J-500000D01*
G01*
X270455746Y-156950000D02*
G75*
G02*
X269955746Y-157450000I-500000J0D01*
G01*
X246706746Y-156950000D02*
G75*
G02*
X246206746Y-157450000I-500000J0D01*
G01*
X315612496Y-171450000D02*
G75*
G02*
X315112496Y-170950000I0J500000D01*
G01*
X307206246Y-161450000D02*
G75*
G02*
X307706246Y-160950000I500000J0D01*
G01*
X222830746Y-155950000D02*
G75*
G02*
X223330746Y-155450000I500000J0D01*
G01*
X329112496Y-170950000D02*
G75*
G02*
X328612496Y-171450000I-500000J0D01*
G01*
X325612496Y-155450000D02*
G75*
G02*
X326112496Y-155950000I0J-500000D01*
G01*
X328612496Y-157450000D02*
G75*
G02*
X329112496Y-157950000I0J-500000D01*
G01*
X326612496Y-157450000D02*
G75*
G02*
X326112496Y-156950000I0J500000D01*
G01*
X277955746Y-155450000D02*
G75*
G02*
X278455746Y-155950000I0J-500000D01*
G01*
X214312496Y-157450000D02*
G75*
G02*
X214812496Y-157950000I0J-500000D01*
G01*
X200812496Y-157950000D02*
G75*
G02*
X201312496Y-157450000I500000J0D01*
G01*
X270455746Y-155950000D02*
G75*
G02*
X270955746Y-155450000I500000J0D01*
G01*
X301831746Y-155450000D02*
G75*
G02*
X302331746Y-155950000I0J-500000D01*
G01*
X318112496Y-156950000D02*
G75*
G02*
X317612496Y-157450000I-500000J0D01*
G01*
X257962496Y-157950000D02*
G75*
G02*
X258462496Y-157450000I500000J0D01*
G01*
X61912496Y-138400000D02*
X48912496Y-138400000D01*
X48912496Y-152400000D02*
X61912496Y-152400000D01*
X48412496Y-138900000D02*
X48412496Y-151900000D01*
X62412496Y-151900000D02*
X62412496Y-138900000D01*
X48412496Y-138900000D02*
G75*
G02*
X48912496Y-138400000I500000J0D01*
G01*
X61912496Y-138400000D02*
G75*
G02*
X62412496Y-138900000I0J-500000D01*
G01*
X62412496Y-151900000D02*
G75*
G02*
X61912496Y-152400000I-500000J0D01*
G01*
X48912496Y-152400000D02*
G75*
G02*
X48412496Y-151900000I0J500000D01*
G01*
X123824996Y-162212500D02*
X110824996Y-162212500D01*
X110324996Y-162712500D02*
X110324996Y-175712500D01*
X110824996Y-176212500D02*
X123824996Y-176212500D01*
X124324996Y-175712500D02*
X124324996Y-162712500D01*
X123824996Y-162212500D02*
G75*
G02*
X124324996Y-162712500I0J-500000D01*
G01*
X110324996Y-162712500D02*
G75*
G02*
X110824996Y-162212500I500000J0D01*
G01*
X124324996Y-175712500D02*
G75*
G02*
X123824996Y-176212500I-500000J0D01*
G01*
X110824996Y-176212500D02*
G75*
G02*
X110324996Y-175712500I0J500000D01*
G01*
X67962496Y-114300000D02*
X80962496Y-114300000D01*
X67462496Y-100800000D02*
X67462496Y-113800000D01*
X81462496Y-113800000D02*
X81462496Y-100800000D01*
X80962496Y-100300000D02*
X67962496Y-100300000D01*
X81462496Y-113800000D02*
G75*
G02*
X80962496Y-114300000I-500000J0D01*
G01*
X67962496Y-114300000D02*
G75*
G02*
X67462496Y-113800000I0J500000D01*
G01*
X80962496Y-100300000D02*
G75*
G02*
X81462496Y-100800000I0J-500000D01*
G01*
X67462496Y-100800000D02*
G75*
G02*
X67962496Y-100300000I500000J0D01*
G01*
X339424996Y-171450000D02*
X352424996Y-171450000D01*
X352924996Y-170950000D02*
X352924996Y-157950000D01*
X352424996Y-157450000D02*
X339424996Y-157450000D01*
X338924996Y-157950000D02*
X338924996Y-170950000D01*
X339424996Y-171450000D02*
G75*
G02*
X338924996Y-170950000I0J500000D01*
G01*
X352424996Y-157450000D02*
G75*
G02*
X352924996Y-157950000I0J-500000D01*
G01*
X352924996Y-170950000D02*
G75*
G02*
X352424996Y-171450000I-500000J0D01*
G01*
X338924996Y-157950000D02*
G75*
G02*
X339424996Y-157450000I500000J0D01*
G01*
X153687496Y-171450000D02*
X166687496Y-171450000D01*
X166687496Y-157450000D02*
X153687496Y-157450000D01*
X167187496Y-170950000D02*
X167187496Y-157950000D01*
X153187496Y-157950000D02*
X153187496Y-170950000D01*
X153687496Y-171450000D02*
G75*
G02*
X153187496Y-170950000I0J500000D01*
G01*
X153187496Y-157950000D02*
G75*
G02*
X153687496Y-157450000I500000J0D01*
G01*
X166687496Y-157450000D02*
G75*
G02*
X167187496Y-157950000I0J-500000D01*
G01*
X167187496Y-170950000D02*
G75*
G02*
X166687496Y-171450000I-500000J0D01*
G01*
X377406246Y-108387000D02*
X377406246Y-101387000D01*
X378906246Y-108887000D02*
X377906246Y-108887000D01*
X377906246Y-124763000D02*
X378906246Y-124763000D01*
X377406246Y-132263000D02*
X377406246Y-125263000D01*
X393406246Y-101387000D02*
X393406246Y-132263000D01*
X392906246Y-132763000D02*
X377906246Y-132763000D01*
X377906246Y-100887000D02*
X392906246Y-100887000D01*
X379406246Y-124263000D02*
X379406246Y-109387000D01*
X377406245Y-101386999D02*
G75*
G02*
X377906246Y-100887000I500000J-1D01*
G01*
X379406246Y-124263000D02*
G75*
G02*
X378906246Y-124763000I-500000J0D01*
G01*
X393406247Y-132263001D02*
G75*
G02*
X392906246Y-132763000I-500000J1D01*
G01*
X377406245Y-125262999D02*
G75*
G02*
X377906246Y-124763000I500000J-1D01*
G01*
X377906245Y-132763001D02*
G75*
G02*
X377406246Y-132263000I1J500000D01*
G01*
X392906247Y-100886999D02*
G75*
G02*
X393406246Y-101387000I-1J-500000D01*
G01*
X378906246Y-108887000D02*
G75*
G02*
X379406246Y-109387000I0J-500000D01*
G01*
X377906245Y-108887001D02*
G75*
G02*
X377406246Y-108387000I1J500000D01*
G01*
X123824996Y-100300000D02*
X110824996Y-100300000D01*
X110324996Y-100800000D02*
X110324996Y-113800000D01*
X110824996Y-114300000D02*
X123824996Y-114300000D01*
X124324996Y-113800000D02*
X124324996Y-100800000D01*
X124324996Y-113800000D02*
G75*
G02*
X123824996Y-114300000I-500000J0D01*
G01*
X110824996Y-114300000D02*
G75*
G02*
X110324996Y-113800000I0J500000D01*
G01*
X123824996Y-100300000D02*
G75*
G02*
X124324996Y-100800000I0J-500000D01*
G01*
X110324996Y-100800000D02*
G75*
G02*
X110824996Y-100300000I500000J0D01*
G01*
X100012496Y-100300000D02*
X87012496Y-100300000D01*
X86512496Y-100800000D02*
X86512496Y-113800000D01*
X87012496Y-114300000D02*
X100012496Y-114300000D01*
X100512496Y-113800000D02*
X100512496Y-100800000D01*
X86512496Y-100800000D02*
G75*
G02*
X87012496Y-100300000I500000J0D01*
G01*
X87012496Y-114300000D02*
G75*
G02*
X86512496Y-113800000I0J500000D01*
G01*
X100512496Y-113800000D02*
G75*
G02*
X100012496Y-114300000I-500000J0D01*
G01*
X100012496Y-100300000D02*
G75*
G02*
X100512496Y-100800000I0J-500000D01*
G01*
X143374996Y-175712500D02*
X143374996Y-162712500D01*
X129874996Y-176212500D02*
X142874996Y-176212500D01*
X129374996Y-162712500D02*
X129374996Y-175712500D01*
X142874996Y-162212500D02*
X129874996Y-162212500D01*
X142874996Y-162212500D02*
G75*
G02*
X143374996Y-162712500I0J-500000D01*
G01*
X129874996Y-176212500D02*
G75*
G02*
X129374996Y-175712500I0J500000D01*
G01*
X143374996Y-175712500D02*
G75*
G02*
X142874996Y-176212500I-500000J0D01*
G01*
X129374996Y-162712500D02*
G75*
G02*
X129874996Y-162212500I500000J0D01*
G01*
X376237496Y-157450000D02*
X363237496Y-157450000D01*
X362737496Y-157950000D02*
X362737496Y-170950000D01*
X363237496Y-171450000D02*
X376237496Y-171450000D01*
X376737496Y-170950000D02*
X376737496Y-157950000D01*
X376737496Y-170950000D02*
G75*
G02*
X376237496Y-171450000I-500000J0D01*
G01*
X363237496Y-171450000D02*
G75*
G02*
X362737496Y-170950000I0J500000D01*
G01*
X362737496Y-157950000D02*
G75*
G02*
X363237496Y-157450000I500000J0D01*
G01*
X376237496Y-157450000D02*
G75*
G02*
X376737496Y-157950000I0J-500000D01*
G01*
X190499996Y-157450000D02*
X177499996Y-157450000D01*
X176999996Y-157950000D02*
X176999996Y-170950000D01*
X177499996Y-171450000D02*
X190499996Y-171450000D01*
X190999996Y-170950000D02*
X190999996Y-157950000D01*
X190499996Y-157450000D02*
G75*
G02*
X190999996Y-157950000I0J-500000D01*
G01*
X177499996Y-171450000D02*
G75*
G02*
X176999996Y-170950000I0J500000D01*
G01*
X176999996Y-157950000D02*
G75*
G02*
X177499996Y-157450000I500000J0D01*
G01*
X190999996Y-170950000D02*
G75*
G02*
X190499996Y-171450000I-500000J0D01*
G01*
X139399996Y-114300000D02*
X152399996Y-114300000D01*
X138899996Y-100800000D02*
X138899996Y-113800000D01*
X152399996Y-100300000D02*
X139399996Y-100300000D01*
X152899996Y-113800000D02*
X152899996Y-100800000D01*
X152399996Y-100300000D02*
G75*
G02*
X152899996Y-100800000I0J-500000D01*
G01*
X152899996Y-113800000D02*
G75*
G02*
X152399996Y-114300000I-500000J0D01*
G01*
X139399996Y-114300000D02*
G75*
G02*
X138899996Y-113800000I0J500000D01*
G01*
X138899996Y-100800000D02*
G75*
G02*
X139399996Y-100300000I500000J0D01*
G01*
X67462496Y-138900000D02*
X67462496Y-151900000D01*
X81462496Y-151900000D02*
X81462496Y-138900000D01*
X80962496Y-138400000D02*
X67962496Y-138400000D01*
X67962496Y-152400000D02*
X80962496Y-152400000D01*
X67462496Y-138900000D02*
G75*
G02*
X67962496Y-138400000I500000J0D01*
G01*
X81462496Y-151900000D02*
G75*
G02*
X80962496Y-152400000I-500000J0D01*
G01*
X80962496Y-138400000D02*
G75*
G02*
X81462496Y-138900000I0J-500000D01*
G01*
X67962496Y-152400000D02*
G75*
G02*
X67462496Y-151900000I0J500000D01*
G01*
X158881246Y-119850000D02*
X158881246Y-122350000D01*
X163881246Y-122850000D02*
X161381246Y-122850000D01*
X160381246Y-119350000D02*
X159381246Y-119350000D01*
X154781246Y-119350000D02*
X137018746Y-119350000D01*
X158381246Y-122850000D02*
X155781246Y-122850000D01*
X155781246Y-129850000D02*
X158381246Y-129850000D01*
X155281246Y-132850000D02*
X155281246Y-130350000D01*
X160881246Y-122350000D02*
X160881246Y-119850000D01*
X137018746Y-133350000D02*
X154781246Y-133350000D01*
X164381246Y-129350000D02*
X164381246Y-123350000D01*
X155281246Y-122350000D02*
X155281246Y-119850000D01*
X161381246Y-129850000D02*
X163881246Y-129850000D01*
X160881246Y-132850000D02*
X160881246Y-130350000D01*
X158881246Y-130350000D02*
X158881246Y-132850000D01*
X159381246Y-133350000D02*
X160381246Y-133350000D01*
X136518746Y-119850000D02*
X136518746Y-132850000D01*
X160881246Y-132850000D02*
G75*
G02*
X160381246Y-133350000I-500000J0D01*
G01*
X154781246Y-119350000D02*
G75*
G02*
X155281246Y-119850000I0J-500000D01*
G01*
X161381246Y-122850000D02*
G75*
G02*
X160881246Y-122350000I0J500000D01*
G01*
X137018746Y-133350000D02*
G75*
G02*
X136518746Y-132850000I0J500000D01*
G01*
X159381246Y-133350000D02*
G75*
G02*
X158881246Y-132850000I0J500000D01*
G01*
X163881246Y-122850000D02*
G75*
G02*
X164381246Y-123350000I0J-500000D01*
G01*
X164381246Y-129350000D02*
G75*
G02*
X163881246Y-129850000I-500000J0D01*
G01*
X160381246Y-119350000D02*
G75*
G02*
X160881246Y-119850000I0J-500000D01*
G01*
X155281246Y-130350000D02*
G75*
G02*
X155781246Y-129850000I500000J0D01*
G01*
X155281246Y-132850000D02*
G75*
G02*
X154781246Y-133350000I-500000J0D01*
G01*
X158881246Y-122350000D02*
G75*
G02*
X158381246Y-122850000I-500000J0D01*
G01*
X136518746Y-119850000D02*
G75*
G02*
X137018746Y-119350000I500000J0D01*
G01*
X160881246Y-130350000D02*
G75*
G02*
X161381246Y-129850000I500000J0D01*
G01*
X158381246Y-129850000D02*
G75*
G02*
X158881246Y-130350000I0J-500000D01*
G01*
X155781246Y-122850000D02*
G75*
G02*
X155281246Y-122350000I0J500000D01*
G01*
X158881246Y-119850000D02*
G75*
G02*
X159381246Y-119350000I500000J0D01*
G01*
X366562496Y-135081250D02*
X372912496Y-135081250D01*
X160981246Y-116031250D02*
X164949996Y-116031250D01*
X157012496Y-136668750D02*
X164949996Y-136668750D01*
X160187496Y-99362500D02*
X160187496Y-115237500D01*
X372912496Y-117618750D02*
X370531246Y-117618750D01*
X157012496Y-154131250D02*
X364974996Y-154131250D01*
X373706246Y-134287500D02*
X373706246Y-118412500D01*
X156218746Y-137462500D02*
X156218746Y-153337500D01*
X165743746Y-116825000D02*
X165743746Y-135875000D01*
X368943746Y-98568750D02*
X160981246Y-98568750D01*
X369737496Y-116825000D02*
X369737496Y-99362500D01*
X365768746Y-153337500D02*
X365768746Y-135875000D01*
X160187496Y-99362500D02*
G75*
G02*
X160981246Y-98568750I793750J0D01*
G01*
X373706246Y-134287500D02*
G75*
G02*
X372912496Y-135081250I-793750J0D01*
G01*
X156218746Y-137462500D02*
G75*
G02*
X157012496Y-136668750I793750J0D01*
G01*
X160981246Y-116031250D02*
G75*
G02*
X160187496Y-115237500I0J793750D01*
G01*
X372912496Y-117618750D02*
G75*
G02*
X373706246Y-118412500I0J-793750D01*
G01*
X157012496Y-154131250D02*
G75*
G02*
X156218746Y-153337500I0J793750D01*
G01*
X368943746Y-98568750D02*
G75*
G02*
X369737496Y-99362500I0J-793750D01*
G01*
X165743746Y-135875000D02*
G75*
G02*
X164949996Y-136668750I-793750J0D01*
G01*
X365768746Y-153337500D02*
G75*
G02*
X364974996Y-154131250I-793750J0D01*
G01*
X365768746Y-135875000D02*
G75*
G02*
X366562496Y-135081250I793750J0D01*
G01*
X164949996Y-116031250D02*
G75*
G02*
X165743746Y-116825000I0J-793750D01*
G01*
X370531246Y-117618750D02*
G75*
G02*
X369737496Y-116825000I0J793750D01*
G01*
X105274996Y-175712500D02*
X105274996Y-162712500D01*
X91274996Y-162712500D02*
X91274996Y-175712500D01*
X104774996Y-162212500D02*
X91774996Y-162212500D01*
X91774996Y-176212500D02*
X104774996Y-176212500D01*
X105274996Y-175712500D02*
G75*
G02*
X104774996Y-176212500I-500000J0D01*
G01*
X91274996Y-162712500D02*
G75*
G02*
X91774996Y-162212500I500000J0D01*
G01*
X104774996Y-162212500D02*
G75*
G02*
X105274996Y-162712500I0J-500000D01*
G01*
X91774996Y-176212500D02*
G75*
G02*
X91274996Y-175712500I0J500000D01*
G01*
X67962496Y-133350000D02*
X80962496Y-133350000D01*
X80962496Y-119350000D02*
X67962496Y-119350000D01*
X81462496Y-132850000D02*
X81462496Y-119850000D01*
X67462496Y-119850000D02*
X67462496Y-132850000D01*
X81462496Y-132850000D02*
G75*
G02*
X80962496Y-133350000I-500000J0D01*
G01*
X80962496Y-119350000D02*
G75*
G02*
X81462496Y-119850000I0J-500000D01*
G01*
X67462496Y-119850000D02*
G75*
G02*
X67962496Y-119350000I500000J0D01*
G01*
X67962496Y-133350000D02*
G75*
G02*
X67462496Y-132850000I0J500000D01*
G01*
%TD*%
M02*
